{"glyphs":{"0":{"ha":794,"x_min":63,"x_max":732,"o":"m 732 497 q 713 282 732 376 q 655 122 694 188 q 551 21 615 56 q 396 -14 486 -14 q 208 47 282 -14 q 99 223 135 108 q 63 497 63 338 q 95 772 63 658 q 201 947 128 886 q 396 1007 275 1007 q 584 947 510 1007 q 695 772 658 886 q 732 497 732 658 m 210 497 q 228 282 210 368 q 287 153 246 196 q 396 110 328 110 q 505 152 464 110 q 565 281 546 194 q 583 497 583 368 q 565 712 583 626 q 505 840 546 797 q 396 883 464 883 q 287 840 328 883 q 228 712 246 797 q 210 497 210 626 z "},"1":{"ha":794,"x_min":111,"x_max":517,"o":"m 517 0 l 371 0 l 371 658 q 372 723 371 693 q 374 781 372 753 q 376 836 375 810 q 339 801 358 818 q 294 763 319 785 l 186 675 l 111 769 l 394 992 l 517 992 l 517 0 z "},"2":{"ha":794,"x_min":64,"x_max":731,"o":"m 731 0 l 64 0 l 64 114 l 319 374 q 444 506 394 450 q 519 615 494 563 q 544 728 544 667 q 500 842 544 804 q 385 881 456 881 q 263 855 317 881 q 150 783 208 829 l 71 882 q 158 944 111 917 q 262 989 204 972 q 389 1006 319 1006 q 551 973 483 1006 q 656 881 619 940 q 693 740 693 821 q 661 593 693 661 q 571 459 629 525 q 433 317 513 393 l 249 138 l 249 131 l 731 131 l 731 0 z "},"3":{"ha":794,"x_min":60,"x_max":722,"o":"m 692 763 q 666 647 692 696 q 593 567 640 597 q 485 522 546 536 l 485 517 q 663 442 604 503 q 722 283 722 382 q 681 130 722 197 q 555 24 640 63 q 336 -14 469 -14 q 189 -1 257 -14 q 60 40 121 11 l 60 174 q 194 125 122 142 q 331 108 265 108 q 513 156 457 108 q 568 290 568 204 q 539 381 568 346 q 450 434 510 417 q 301 451 390 451 l 211 451 l 211 572 l 303 572 q 440 594 388 572 q 518 654 493 615 q 543 743 543 693 q 499 847 543 810 q 374 883 456 883 q 281 872 324 883 q 204 843 239 861 q 136 803 169 825 l 64 904 q 197 976 118 946 q 378 1006 275 1006 q 612 938 532 1006 q 692 763 692 871 z "},"4":{"ha":794,"x_min":28,"x_max":768,"o":"m 768 219 l 631 219 l 631 0 l 488 0 l 488 219 l 28 219 l 28 336 l 485 996 l 631 996 l 631 344 l 768 344 l 768 219 m 488 614 q 488 678 488 647 q 490 737 489 708 q 492 790 492 765 q 494 833 493 814 l 489 833 q 462 776 478 806 q 429 725 446 747 l 167 344 l 488 344 l 488 614 z "},"5":{"ha":794,"x_min":82,"x_max":719,"o":"m 392 615 q 564 581 490 615 q 678 481 638 546 q 719 321 719 415 q 675 142 719 217 q 547 26 631 67 q 342 -14 463 -14 q 197 0 265 -14 q 82 40 129 14 l 82 175 q 203 128 132 146 q 340 110 275 110 q 462 131 411 110 q 541 197 513 153 q 569 307 569 240 q 513 445 569 397 q 336 493 457 493 q 249 486 297 493 q 172 472 201 479 l 104 513 l 142 992 l 651 992 l 651 861 l 269 861 l 247 601 q 307 610 271 606 q 392 615 343 615 z "},"6":{"ha":794,"x_min":68,"x_max":735,"o":"m 68 422 q 80 592 68 508 q 122 749 92 675 q 204 881 151 824 q 338 972 257 939 q 535 1004 419 1004 q 601 1002 564 1004 q 661 993 638 1000 l 661 869 q 603 882 635 878 q 542 886 572 886 q 383 857 446 886 q 285 776 321 828 q 232 658 249 725 q 211 511 215 590 l 219 511 q 271 571 240 544 q 346 613 301 597 q 449 628 390 628 q 599 592 535 628 q 699 488 664 556 q 735 322 735 419 q 695 142 735 218 q 584 26 656 67 q 413 -14 513 -14 q 278 13 340 -14 q 168 93 215 39 q 94 230 121 147 q 68 422 68 313 m 411 108 q 540 160 490 108 q 590 322 590 213 q 547 461 590 410 q 415 513 503 513 q 311 488 356 513 q 242 424 267 463 q 217 344 217 385 q 229 260 217 301 q 266 183 242 218 q 326 128 290 149 q 411 108 363 108 z "},"7":{"ha":794,"x_min":54,"x_max":733,"o":"m 179 0 l 575 861 l 54 861 l 54 992 l 733 992 l 733 886 l 339 0 l 179 0 z "},"8":{"ha":794,"x_min":63,"x_max":731,"o":"m 396 1006 q 551 978 483 1006 q 659 899 619 951 q 699 767 699 846 q 674 663 699 707 q 607 584 649 618 q 514 525 565 550 q 622 459 572 496 q 701 374 671 422 q 731 257 731 325 q 690 113 731 174 q 574 19 649 53 q 399 -14 499 -14 q 216 18 292 -14 q 101 109 140 50 q 63 253 63 168 q 90 371 63 321 q 164 457 118 421 q 264 518 210 493 q 178 581 217 546 q 117 663 139 617 q 94 768 94 708 q 135 898 94 846 q 244 978 175 950 q 396 1006 313 1006 m 204 256 q 251 144 204 188 q 396 100 299 100 q 540 144 490 100 q 589 257 589 188 q 565 338 589 303 q 498 399 540 372 q 400 449 456 426 l 379 457 q 283 404 322 433 q 224 339 244 375 q 204 256 204 303 m 394 890 q 281 857 326 890 q 236 760 236 824 q 258 682 236 714 q 318 627 281 650 q 400 583 356 604 q 479 626 444 603 q 535 681 514 649 q 556 760 556 714 q 511 857 556 824 q 394 890 467 890 z "},"9":{"ha":794,"x_min":63,"x_max":729,"o":"m 729 568 q 717 399 729 483 q 675 241 704 315 q 592 109 646 167 q 458 19 539 51 q 261 -14 376 -14 q 196 -11 233 -14 q 133 -1 158 -8 l 133 122 q 192 110 160 114 q 256 106 225 106 q 413 134 351 106 q 512 214 475 163 q 565 333 549 265 q 585 478 582 401 l 576 478 q 525 419 556 446 q 451 378 494 393 q 346 363 407 363 q 197 399 261 363 q 97 502 132 435 q 63 667 63 569 q 102 848 63 772 q 215 964 142 924 q 385 1004 288 1004 q 519 978 457 1004 q 629 897 582 951 q 703 761 676 843 q 729 568 729 679 m 386 883 q 257 831 307 883 q 207 669 207 778 q 249 529 207 581 q 381 478 292 478 q 486 503 442 478 q 556 567 531 529 q 581 647 581 606 q 568 731 581 689 q 532 807 556 772 q 472 863 508 842 q 386 883 435 883 z "},"\u0000":{"ha":0,"x_min":0,"x_max":0,"o":""},"\r":{"ha":361,"x_min":0,"x_max":0,"o":""}," ":{"ha":361,"x_min":0,"x_max":0,"o":""},"!":{"ha":379,"x_min":93,"x_max":285,"o":"m 242 292 l 138 292 l 103 992 l 276 992 l 242 292 m 93 82 q 121 160 93 138 q 189 182 149 182 q 256 160 228 182 q 285 82 285 138 q 256 4 285 28 q 189 -19 228 -19 q 121 4 149 -19 q 93 82 93 28 z "},"\"":{"ha":596,"x_min":89,"x_max":507,"o":"m 240 992 l 213 633 l 117 633 l 89 992 l 240 992 m 507 992 l 479 633 l 383 633 l 356 992 l 507 992 z "},"#":{"ha":897,"x_min":33,"x_max":863,"o":"m 669 596 l 631 393 l 815 393 l 815 286 l 610 286 l 554 0 l 440 0 l 496 286 l 317 286 l 264 0 l 153 0 l 204 286 l 33 286 l 33 393 l 225 393 l 265 596 l 85 596 l 85 703 l 285 703 l 339 992 l 454 992 l 399 703 l 581 703 l 635 992 l 746 992 l 690 703 l 863 703 l 863 596 l 669 596 m 338 393 l 517 393 l 557 596 l 378 596 l 338 393 z "},"$":{"ha":794,"x_min":78,"x_max":724,"o":"m 351 64 q 199 79 271 67 q 79 114 128 92 l 79 250 q 205 208 129 226 q 351 188 281 189 l 351 447 q 195 511 256 476 q 106 594 135 546 q 78 707 78 642 q 112 824 78 775 q 208 903 146 874 q 351 938 269 932 l 351 1054 l 442 1054 l 442 939 q 579 923 517 938 q 697 885 642 908 l 651 765 q 549 798 604 785 q 442 815 494 811 l 442 560 q 591 501 528 532 q 689 426 654 471 q 724 307 724 381 q 651 146 724 208 q 442 69 578 83 l 442 -81 l 351 -81 l 351 64 m 442 193 q 547 228 514 201 q 579 299 579 256 q 566 349 579 328 q 523 385 553 369 q 442 415 493 400 l 442 193 m 351 813 q 280 797 308 810 q 237 763 251 783 q 222 714 222 742 q 235 660 222 683 q 275 622 247 638 q 351 592 303 606 l 351 813 z "},"%":{"ha":1183,"x_min":60,"x_max":1122,"o":"m 272 1006 q 433 924 378 1006 q 489 696 489 843 q 435 466 489 549 q 272 383 382 383 q 115 466 171 383 q 60 696 60 549 q 112 924 60 843 q 272 1006 164 1006 m 272 906 q 202 852 224 906 q 181 696 181 799 q 202 538 181 592 q 272 485 224 485 q 346 538 322 485 q 369 696 369 590 q 346 852 369 799 q 272 906 322 906 m 928 992 l 378 0 l 254 0 l 804 992 l 928 992 m 906 608 q 1066 527 1010 608 q 1122 299 1122 446 q 1069 69 1122 151 q 906 -14 1015 -14 q 749 69 804 -14 q 693 299 693 151 q 745 527 693 446 q 906 608 797 608 m 906 507 q 835 454 857 507 q 814 299 814 401 q 835 141 814 194 q 906 88 857 88 q 979 140 956 88 q 1003 299 1003 193 q 979 455 1003 403 q 906 507 956 507 z "},"&":{"ha":1024,"x_min":68,"x_max":1022,"o":"m 425 1007 q 558 981 501 1007 q 645 908 614 956 q 676 792 676 861 q 619 640 676 703 q 478 528 563 578 l 724 290 q 779 390 757 335 q 817 507 801 444 l 967 507 q 910 341 946 421 q 819 197 875 261 l 1022 0 l 831 0 l 722 104 q 631 43 679 69 q 524 1 582 17 q 394 -14 467 -14 q 221 19 294 -14 q 108 113 147 51 q 68 261 68 175 q 92 383 68 332 q 163 474 117 435 q 272 550 210 514 q 216 622 242 585 q 174 699 190 658 q 158 786 158 739 q 191 905 158 856 q 284 981 224 954 q 425 1007 344 1007 m 360 460 q 287 406 317 433 q 240 347 257 379 q 222 269 222 314 q 272 156 222 199 q 401 114 321 114 q 534 138 478 114 q 631 196 590 161 l 360 460 m 421 889 q 335 863 369 889 q 300 783 300 836 q 324 698 300 738 q 390 613 347 658 q 500 695 465 656 q 535 786 535 735 q 503 861 535 833 q 421 889 471 889 z "},"'":{"ha":329,"x_min":89,"x_max":240,"o":"m 240 992 l 213 633 l 117 633 l 89 992 l 240 992 z "},"(":{"ha":433,"x_min":56,"x_max":392,"o":"m 56 381 q 77 603 56 494 q 144 810 99 711 q 260 992 190 908 l 392 992 q 245 704 294 861 q 196 382 196 547 q 218 169 196 275 q 283 -34 240 64 q 390 -219 326 -132 l 260 -219 q 144 -41 190 -137 q 77 163 99 56 q 56 381 56 269 z "},")":{"ha":433,"x_min":42,"x_max":378,"o":"m 378 381 q 356 163 378 269 q 290 -41 335 56 q 174 -219 244 -137 l 43 -219 q 150 -34 107 -132 q 215 169 193 64 q 236 382 236 275 q 215 599 236 492 q 150 806 193 706 q 42 992 107 906 l 174 992 q 290 810 244 908 q 356 603 335 711 q 378 381 378 494 z "},"*":{"ha":761,"x_min":53,"x_max":707,"o":"m 453 1056 l 425 794 l 688 868 l 707 726 l 460 707 l 621 493 l 490 424 l 376 657 l 274 424 l 139 493 l 297 707 l 53 728 l 74 868 l 332 794 l 304 1056 l 453 1056 z "},"+":{"ha":794,"x_min":67,"x_max":725,"o":"m 453 546 l 725 546 l 725 433 l 453 433 l 453 154 l 339 154 l 339 433 l 67 433 l 67 546 l 339 546 l 339 826 l 453 826 l 453 546 z "},",":{"ha":379,"x_min":53,"x_max":279,"o":"m 279 146 q 247 40 267 97 q 206 -73 228 -17 q 160 -179 183 -129 l 53 -179 q 80 -65 67 -125 q 104 54 93 -4 q 122 161 115 113 l 269 161 l 279 146 z "},"-":{"ha":446,"x_min":51,"x_max":396,"o":"m 51 308 l 51 436 l 396 436 l 396 308 l 51 308 z "},".":{"ha":378,"x_min":93,"x_max":285,"o":"m 93 82 q 121 160 93 138 q 188 182 149 182 q 256 160 228 182 q 285 82 285 138 q 256 4 285 28 q 188 -19 228 -19 q 121 4 149 -19 q 93 82 93 28 z "},"/":{"ha":535,"x_min":13,"x_max":522,"o":"m 522 994 l 153 -3 l 13 -3 l 382 994 l 522 994 z "},":":{"ha":378,"x_min":93,"x_max":285,"o":"m 93 82 q 121 160 93 138 q 188 182 149 182 q 256 160 228 182 q 285 82 285 138 q 256 4 285 28 q 188 -19 228 -19 q 121 4 149 -19 q 93 82 93 28 m 93 665 q 121 744 93 722 q 188 767 149 767 q 256 744 228 767 q 285 665 285 722 q 256 589 285 613 q 188 565 228 565 q 121 589 149 565 q 93 665 93 613 z "},";":{"ha":379,"x_min":43,"x_max":283,"o":"m 271 146 q 239 40 258 97 q 197 -73 219 -17 q 151 -179 174 -129 l 43 -179 q 63 -94 53 -139 q 83 -5 74 -50 q 99 83 92 40 q 113 161 107 125 l 261 161 l 271 146 m 92 665 q 119 744 92 722 q 188 767 147 767 q 255 744 226 767 q 283 665 283 722 q 255 589 283 613 q 188 565 226 565 q 119 589 147 565 q 92 665 92 613 z "},"<":{"ha":794,"x_min":67,"x_max":726,"o":"m 726 154 l 67 444 l 67 522 l 726 851 l 726 728 l 221 489 l 726 278 l 726 154 z "},"=":{"ha":794,"x_min":72,"x_max":719,"o":"m 72 569 l 72 682 l 719 682 l 719 569 l 72 569 m 72 296 l 72 410 l 719 410 l 719 296 l 72 296 z "},">":{"ha":794,"x_min":67,"x_max":726,"o":"m 67 278 l 572 489 l 67 728 l 67 851 l 726 522 l 726 444 l 67 154 l 67 278 z "},"?":{"ha":621,"x_min":14,"x_max":586,"o":"m 196 333 q 206 421 196 383 q 242 492 217 458 q 314 563 268 526 q 395 635 367 606 q 435 691 424 664 q 446 756 446 718 q 406 848 446 815 q 292 881 365 881 q 172 863 226 881 q 65 819 118 846 l 14 932 q 144 985 74 964 q 301 1006 215 1006 q 512 940 438 1006 q 586 761 586 874 q 567 658 586 701 q 511 576 547 614 q 424 499 475 539 q 353 434 378 461 q 321 381 329 407 q 313 318 313 354 l 313 292 l 196 292 l 196 333 m 164 82 q 192 160 164 138 q 260 182 219 182 q 327 160 299 182 q 356 82 356 138 q 327 5 356 29 q 260 -19 299 -19 q 192 5 219 -19 q 164 82 164 29 z "},"@":{"ha":1249,"x_min":76,"x_max":1172,"o":"m 1172 499 q 1157 373 1172 435 q 1111 262 1142 311 q 1035 183 1081 213 q 929 153 990 153 q 830 187 868 153 q 779 267 792 221 l 772 267 q 698 185 746 218 q 579 153 650 153 q 411 224 469 153 q 353 414 353 296 q 390 576 353 506 q 494 688 426 647 q 657 728 563 728 q 778 717 718 728 q 874 693 839 707 l 860 411 q 858 377 858 389 q 858 358 858 365 q 881 272 858 293 q 935 250 904 250 q 1003 284 975 250 q 1045 375 1031 318 q 1060 500 1060 432 q 1010 712 1060 625 q 872 845 961 799 q 668 892 783 892 q 463 855 553 892 q 313 751 374 818 q 222 594 253 685 q 192 396 192 504 q 239 172 192 265 q 378 31 286 79 q 603 -17 469 -17 q 766 1 686 -17 q 911 43 846 19 l 911 -62 q 772 -103 849 -87 q 604 -119 696 -119 q 320 -58 439 -119 q 139 117 201 3 q 76 393 76 232 q 117 632 76 522 q 234 823 157 742 q 420 949 311 904 q 667 994 529 994 q 870 960 778 994 q 1031 862 963 926 q 1135 706 1099 797 q 1172 499 1172 614 m 475 413 q 509 288 475 326 q 599 250 543 250 q 705 306 672 250 q 743 456 738 361 l 750 618 q 709 626 733 622 q 658 629 685 629 q 551 598 592 629 q 493 517 511 567 q 475 413 475 467 z "},"A":{"ha":910,"x_min":0,"x_max":908,"o":"m 750 0 l 643 285 l 263 285 l 157 0 l 0 0 l 376 996 l 532 996 l 908 0 l 750 0 m 503 692 q 488 738 499 706 q 468 806 478 771 q 453 861 458 840 q 438 799 446 832 q 421 739 429 767 q 407 692 413 711 l 307 415 l 601 415 l 503 692 z "},"B":{"ha":908,"x_min":129,"x_max":836,"o":"m 424 992 q 710 935 615 992 q 804 746 804 879 q 783 641 804 686 q 720 567 761 596 q 622 526 679 538 l 622 519 q 729 484 681 510 q 807 410 778 458 q 836 283 836 361 q 793 130 836 193 q 672 33 750 67 q 485 0 594 0 l 129 0 l 129 992 l 424 992 m 446 576 q 606 615 563 576 q 649 728 649 654 q 597 835 649 801 q 428 868 544 868 l 281 868 l 281 576 l 446 576 m 281 457 l 281 124 l 461 124 q 629 172 582 124 q 676 296 676 219 q 656 379 676 343 q 585 436 635 415 q 453 457 536 457 l 281 457 z "},"C":{"ha":882,"x_min":82,"x_max":839,"o":"m 558 876 q 426 851 485 876 q 325 775 367 825 q 262 654 283 725 q 240 494 240 583 q 276 292 240 378 q 382 161 311 207 q 560 115 453 115 q 684 128 625 115 q 800 158 743 140 l 800 29 q 681 -3 742 7 q 539 -14 621 -14 q 285 49 386 -14 q 133 226 183 111 q 82 496 82 342 q 113 702 82 608 q 205 864 144 796 q 355 969 265 932 q 560 1006 444 1006 q 707 990 635 1006 q 839 946 779 975 l 783 821 q 680 860 736 843 q 558 876 624 876 z "},"D":{"ha":1015,"x_min":129,"x_max":933,"o":"m 933 507 q 871 227 933 340 q 692 57 808 114 q 414 0 576 0 l 129 0 l 129 992 l 442 992 q 704 936 594 992 q 874 774 814 881 q 933 507 933 667 m 775 503 q 735 707 775 626 q 617 826 694 788 q 428 865 539 865 l 281 865 l 281 128 l 401 128 q 682 222 589 128 q 775 503 775 315 z "},"E":{"ha":774,"x_min":132,"x_max":690,"o":"m 690 0 l 132 0 l 132 992 l 690 992 l 690 864 l 282 864 l 282 581 l 665 581 l 665 454 l 282 454 l 282 129 l 690 129 l 690 0 z "},"F":{"ha":733,"x_min":132,"x_max":690,"o":"m 281 0 l 132 0 l 132 992 l 690 992 l 690 864 l 281 864 l 281 540 l 664 540 l 664 413 l 281 413 l 281 0 z "},"G":{"ha":1010,"x_min":83,"x_max":904,"o":"m 546 533 l 904 533 l 904 39 q 742 -1 825 13 q 554 -14 660 -14 q 298 47 403 -14 q 138 222 193 108 q 83 496 83 336 q 144 765 83 651 q 320 942 206 879 q 599 1006 435 1006 q 756 990 681 1006 q 894 946 831 974 l 840 821 q 726 860 789 844 q 593 876 663 876 q 403 830 483 876 q 281 698 324 783 q 239 494 239 613 q 274 297 239 383 q 383 163 308 211 q 579 114 458 114 q 679 120 638 114 q 756 135 721 126 l 756 404 l 546 404 l 546 533 z "},"H":{"ha":1039,"x_min":132,"x_max":906,"o":"m 906 0 l 756 0 l 756 453 l 282 453 l 282 0 l 132 0 l 132 992 l 282 992 l 282 581 l 756 581 l 756 992 l 906 992 l 906 0 z "},"I":{"ha":492,"x_min":53,"x_max":438,"o":"m 438 0 l 53 0 l 53 86 l 171 121 l 171 869 l 53 906 l 53 992 l 438 992 l 438 906 l 321 869 l 321 121 l 438 86 l 438 0 z "},"J":{"ha":403,"x_min":-107,"x_max":276,"o":"m 1 -272 q -60 -267 -33 -272 q -107 -254 -86 -262 l -107 -129 q -60 -139 -85 -135 q -7 -143 -35 -143 q 59 -129 28 -143 q 108 -79 90 -115 q 126 22 126 -43 l 126 992 l 276 992 l 276 29 q 242 -142 276 -75 q 147 -241 208 -210 q 1 -272 85 -272 z "},"K":{"ha":878,"x_min":132,"x_max":878,"o":"m 878 0 l 704 0 l 379 457 l 282 376 l 282 0 l 132 0 l 132 992 l 282 992 l 282 513 q 354 597 318 556 q 426 681 390 639 l 694 992 l 867 992 l 488 558 l 878 0 z "},"L":{"ha":742,"x_min":129,"x_max":704,"o":"m 129 0 l 129 992 l 281 992 l 281 131 l 704 131 l 704 0 l 129 0 z "},"M":{"ha":1275,"x_min":132,"x_max":1143,"o":"m 564 0 l 264 843 l 258 843 q 263 768 260 815 q 267 667 265 721 q 268 560 268 613 l 268 0 l 132 0 l 132 992 l 346 992 l 631 196 l 636 196 l 929 992 l 1143 992 l 1143 0 l 997 0 l 997 568 q 999 669 997 617 q 1003 767 1001 721 q 1007 842 1006 813 l 1001 842 l 693 0 l 564 0 z "},"N":{"ha":1078,"x_min":132,"x_max":946,"o":"m 946 0 l 764 0 l 263 801 l 257 801 q 262 721 260 765 q 266 628 264 676 q 268 528 268 579 l 268 0 l 132 0 l 132 992 l 313 992 l 813 194 l 817 194 q 814 268 815 224 q 810 363 813 313 q 807 458 808 414 l 807 992 l 946 992 l 946 0 z "},"O":{"ha":1089,"x_min":82,"x_max":1006,"o":"m 1006 497 q 977 288 1006 382 q 891 126 949 194 q 747 22 833 58 q 544 -14 660 -14 q 340 23 426 -14 q 195 127 253 60 q 110 289 138 194 q 82 499 82 383 q 133 765 82 651 q 286 943 183 879 q 546 1007 389 1007 q 801 944 699 1007 q 954 766 903 881 q 1006 497 1006 651 m 242 497 q 274 293 242 379 q 373 161 306 207 q 544 115 440 115 q 717 161 650 115 q 815 293 783 207 q 847 497 847 379 q 776 776 847 675 q 546 878 704 878 q 373 832 440 878 q 274 701 306 786 q 242 497 242 617 z "},"P":{"ha":847,"x_min":129,"x_max":779,"o":"m 407 992 q 690 915 600 992 q 779 696 779 838 q 760 576 779 633 q 694 474 740 519 q 573 402 649 428 q 388 376 497 376 l 281 376 l 281 0 l 129 0 l 129 992 l 407 992 m 397 865 l 281 865 l 281 503 l 372 503 q 513 522 456 503 q 597 581 569 540 q 625 690 625 622 q 570 821 625 776 q 397 865 515 865 z "},"Q":{"ha":1089,"x_min":82,"x_max":1006,"o":"m 1006 497 q 975 283 1006 379 q 884 118 944 186 q 731 17 824 50 l 969 -236 l 763 -236 l 575 -12 q 560 -13 568 -12 q 544 -14 551 -14 q 340 23 426 -14 q 195 127 253 60 q 110 289 138 194 q 82 499 82 383 q 133 765 82 651 q 286 943 183 879 q 546 1007 389 1007 q 801 944 699 1007 q 954 766 903 881 q 1006 497 1006 651 m 242 497 q 274 293 242 379 q 373 161 306 207 q 544 115 440 115 q 717 161 650 115 q 815 293 783 207 q 847 497 847 379 q 776 776 847 675 q 546 878 704 878 q 373 832 440 878 q 274 701 306 786 q 242 497 242 617 z "},"R":{"ha":878,"x_min":129,"x_max":864,"o":"m 413 992 q 619 960 538 992 q 742 865 701 928 q 782 708 782 803 q 754 580 782 632 q 683 495 726 528 q 589 442 639 463 l 864 0 l 689 0 l 454 401 l 281 401 l 281 0 l 129 0 l 129 992 l 413 992 m 406 867 l 281 867 l 281 524 l 411 524 q 574 568 521 524 q 626 701 626 613 q 603 796 626 760 q 531 849 579 832 q 406 867 482 867 z "},"S":{"ha":764,"x_min":69,"x_max":701,"o":"m 701 268 q 658 117 701 179 q 535 20 615 54 q 343 -14 454 -14 q 239 -8 289 -14 q 146 10 189 -1 q 69 38 103 21 l 69 179 q 200 134 125 154 q 353 114 275 114 q 464 132 419 114 q 531 182 508 150 q 553 257 553 214 q 530 334 553 303 q 459 392 507 365 q 331 450 411 419 q 230 497 275 471 q 151 557 185 522 q 99 638 117 592 q 81 744 81 683 q 122 885 81 826 q 235 974 163 943 q 403 1006 307 1006 q 552 990 483 1006 q 683 946 621 974 l 636 822 q 521 861 579 846 q 399 876 463 876 q 306 860 343 876 q 249 814 268 843 q 231 746 231 785 q 251 669 231 700 q 318 613 272 639 q 439 557 364 588 q 581 488 522 525 q 671 398 640 450 q 701 268 701 346 z "},"T":{"ha":781,"x_min":18,"x_max":763,"o":"m 465 0 l 315 0 l 315 863 l 18 863 l 18 992 l 763 992 l 763 863 l 465 863 l 465 0 z "},"U":{"ha":1025,"x_min":124,"x_max":901,"o":"m 901 350 q 859 165 901 247 q 729 34 817 82 q 508 -14 642 -14 q 222 87 319 -14 q 124 353 124 188 l 124 992 l 274 992 l 274 360 q 333 176 274 238 q 515 114 393 114 q 651 144 599 114 q 728 230 704 175 q 753 361 753 285 l 753 992 l 901 992 l 901 350 z "},"V":{"ha":854,"x_min":0,"x_max":854,"o":"m 854 992 l 504 0 l 349 0 l 0 992 l 154 992 l 367 369 q 390 298 379 336 q 411 222 401 260 q 426 151 421 185 q 442 222 433 185 q 463 299 451 260 q 486 371 475 338 l 699 992 l 854 992 z "},"W":{"ha":1307,"x_min":11,"x_max":1294,"o":"m 1294 992 l 1033 0 l 874 0 l 699 613 q 683 668 690 638 q 668 728 675 699 q 656 782 661 758 q 649 818 651 806 q 643 782 647 806 q 632 728 639 758 q 618 667 625 699 q 603 608 611 636 l 431 0 l 271 0 l 11 992 l 165 992 l 311 406 q 325 343 318 375 q 338 279 332 311 q 349 217 344 247 q 358 163 354 188 q 367 219 363 189 q 379 283 372 250 q 394 347 386 315 q 410 406 401 379 l 575 992 l 725 992 l 896 403 q 912 343 904 375 q 926 278 919 311 q 938 216 933 246 q 947 163 943 186 q 959 238 951 197 q 976 323 967 279 q 996 406 986 367 l 1142 992 l 1294 992 z "},"X":{"ha":849,"x_min":6,"x_max":843,"o":"m 843 0 l 671 0 l 421 408 l 168 0 l 6 0 l 335 515 l 25 992 l 193 992 l 425 618 l 656 992 l 819 992 l 511 514 l 843 0 z "},"Y":{"ha":811,"x_min":0,"x_max":811,"o":"m 406 525 l 647 992 l 811 992 l 481 385 l 481 0 l 329 0 l 329 379 l 0 992 l 164 992 l 406 525 z "},"Z":{"ha":797,"x_min":47,"x_max":749,"o":"m 749 0 l 47 0 l 47 107 l 556 863 l 63 863 l 63 992 l 736 992 l 736 885 l 228 129 l 749 129 l 749 0 z "},"[":{"ha":458,"x_min":107,"x_max":424,"o":"m 424 -219 l 107 -219 l 107 992 l 424 992 l 424 879 l 243 879 l 243 -107 l 424 -107 l 424 -219 z "},"\\":{"ha":535,"x_min":13,"x_max":522,"o":"m 153 994 l 522 -3 l 382 -3 l 13 994 l 153 994 z "},"]":{"ha":458,"x_min":35,"x_max":351,"o":"m 35 -107 l 214 -107 l 214 879 l 35 879 l 35 992 l 351 992 l 351 -219 l 35 -219 l 35 -107 z "},"^":{"ha":794,"x_min":47,"x_max":747,"o":"m 47 365 l 342 999 l 419 999 l 747 365 l 624 365 l 383 846 l 169 365 l 47 365 z "},"_":{"ha":603,"x_min":-3,"x_max":606,"o":"m 606 -215 l -3 -215 l -3 -125 l 606 -125 l 606 -215 z "},"`":{"ha":425,"x_min":56,"x_max":369,"o":"m 228 1064 q 269 995 244 1033 q 320 921 293 957 q 369 858 347 885 l 369 842 l 269 842 q 215 888 246 861 q 153 945 183 915 q 97 1003 122 975 q 56 1050 71 1031 l 56 1064 l 228 1064 z "},"a":{"ha":794,"x_min":61,"x_max":686,"o":"m 413 761 q 618 699 550 761 q 686 507 686 638 l 686 0 l 581 0 l 551 104 l 546 104 q 480 38 514 64 q 402 -1 446 11 q 296 -14 358 -14 q 176 10 229 -14 q 92 85 122 35 q 61 213 61 135 q 149 385 61 325 q 414 451 236 446 l 540 456 l 540 494 q 503 614 540 581 q 397 647 465 647 q 288 630 342 647 q 188 590 235 613 l 143 697 q 264 743 194 725 q 413 761 333 761 m 439 356 q 263 315 313 351 q 214 214 214 279 q 249 128 214 156 q 339 101 283 101 q 483 149 425 101 q 540 294 540 197 l 540 360 l 439 356 z "},"b":{"ha":861,"x_min":114,"x_max":788,"o":"m 261 801 q 259 715 261 756 q 254 650 257 675 l 261 650 q 347 729 293 697 q 488 761 401 761 q 705 664 622 761 q 788 375 788 567 q 750 160 788 246 q 644 30 713 74 q 486 -14 576 -14 q 347 17 400 -14 q 261 90 293 49 l 250 90 l 222 0 l 114 0 l 114 1056 l 261 1056 l 261 801 m 453 640 q 339 613 381 640 q 279 529 297 586 q 261 383 261 472 l 261 372 q 303 176 261 243 q 456 108 344 108 q 591 177 546 108 q 636 376 636 246 q 591 574 636 508 q 453 640 546 640 z "},"c":{"ha":682,"x_min":74,"x_max":638,"o":"m 421 -14 q 241 26 319 -14 q 118 152 163 67 q 74 371 74 238 q 120 595 74 508 q 248 722 167 682 q 432 763 329 763 q 546 750 492 763 q 638 719 600 738 l 593 600 q 513 626 557 615 q 429 638 469 638 q 315 608 361 638 q 247 519 269 578 q 225 372 225 460 q 248 228 225 286 q 315 140 271 169 q 424 111 358 111 q 533 124 485 111 q 622 158 582 138 l 622 32 q 535 -2 583 10 q 421 -14 488 -14 z "},"d":{"ha":861,"x_min":74,"x_max":747,"o":"m 372 -14 q 156 83 238 -14 q 74 374 74 181 q 156 664 74 565 q 375 763 239 763 q 475 748 433 763 q 548 708 517 733 q 601 653 579 683 l 608 653 q 603 710 607 672 q 600 775 600 749 l 600 1056 l 747 1056 l 747 0 l 631 0 l 606 100 l 600 100 q 547 42 578 68 q 473 1 515 17 q 372 -14 431 -14 m 408 107 q 560 167 517 107 q 604 350 604 228 l 604 371 q 563 571 604 501 q 407 640 521 640 q 271 568 317 640 q 225 369 225 496 q 271 175 225 243 q 408 107 317 107 z "},"e":{"ha":797,"x_min":74,"x_max":728,"o":"m 411 763 q 581 722 510 763 q 690 604 653 681 q 728 424 728 528 l 728 342 l 225 342 q 286 167 228 228 q 450 106 344 106 q 576 119 521 106 q 692 158 632 132 l 692 36 q 578 -1 635 11 q 440 -14 521 -14 q 249 28 332 -14 q 120 157 167 71 q 74 369 74 243 q 115 582 74 494 q 233 716 157 669 q 411 763 310 763 m 413 649 q 285 597 332 649 q 228 451 238 546 l 581 451 q 562 554 581 511 q 506 623 543 597 q 413 649 469 649 z "},"f":{"ha":496,"x_min":22,"x_max":556,"o":"m 481 636 l 296 636 l 296 0 l 149 0 l 149 636 l 22 636 l 22 706 l 149 751 l 149 799 q 178 952 149 894 q 264 1036 208 1010 q 399 1063 319 1063 q 488 1054 447 1063 q 556 1036 528 1046 l 518 924 q 467 937 496 931 q 406 943 438 943 q 323 907 350 943 q 296 797 296 871 l 296 749 l 481 749 l 481 636 z "},"g":{"ha":861,"x_min":74,"x_max":747,"o":"m 374 763 q 506 734 449 763 q 603 651 564 706 l 610 651 l 626 749 l 747 749 l 747 -11 q 710 -188 747 -117 q 596 -297 672 -260 q 401 -333 519 -333 q 250 -322 318 -333 q 126 -286 182 -311 l 126 -154 q 252 -198 183 -183 q 404 -212 321 -212 q 549 -161 497 -212 q 601 -21 601 -110 l 601 6 q 603 53 601 22 q 606 99 604 83 l 600 99 q 508 15 564 43 q 375 -14 451 -14 q 153 88 233 -14 q 74 374 74 189 q 154 658 74 554 q 374 763 235 763 m 406 642 q 307 610 347 642 q 246 519 267 579 q 225 371 225 458 q 272 173 225 240 q 408 106 318 106 q 498 119 461 106 q 559 163 535 133 q 594 237 583 192 q 606 344 606 282 l 606 374 q 585 527 606 468 q 520 614 565 586 q 406 642 475 642 z "},"h":{"ha":871,"x_min":114,"x_max":763,"o":"m 261 775 q 259 704 261 738 q 254 647 257 671 l 263 647 q 322 711 286 686 q 401 749 357 736 q 490 761 444 761 q 640 733 579 761 q 731 644 700 704 q 763 488 763 585 l 763 0 l 617 0 l 617 467 q 579 597 617 554 q 463 640 542 640 q 342 610 386 640 q 280 520 299 579 q 261 376 261 461 l 261 0 l 114 0 l 114 1056 l 261 1056 l 261 775 z "},"i":{"ha":375,"x_min":104,"x_max":272,"o":"m 261 749 l 261 0 l 114 0 l 114 749 l 261 749 m 189 1033 q 247 1014 222 1033 q 272 949 272 994 q 247 884 272 904 q 189 864 222 864 q 128 884 153 864 q 104 949 104 904 q 128 1014 104 994 q 189 1033 153 1033 z "},"j":{"ha":375,"x_min":-75,"x_max":272,"o":"m 38 -333 q -25 -328 4 -333 q -75 -317 -54 -324 l -75 -199 q -33 -208 -54 -204 q 14 -212 -11 -212 q 85 -188 57 -212 q 114 -96 114 -164 l 114 749 l 261 749 l 261 -103 q 238 -224 261 -172 q 167 -305 215 -276 q 38 -333 118 -333 m 104 949 q 128 1014 104 994 q 189 1033 153 1033 q 247 1014 222 1033 q 272 949 272 994 q 247 884 272 904 q 189 864 222 864 q 128 884 153 864 q 104 949 104 904 z "},"k":{"ha":776,"x_min":115,"x_max":768,"o":"m 261 528 q 259 461 261 499 q 254 392 257 424 l 258 392 q 285 426 269 406 q 318 467 301 446 q 349 503 335 488 l 578 749 l 749 749 l 447 428 l 768 0 l 594 0 l 347 335 l 261 263 l 261 0 l 115 0 l 115 1056 l 261 1056 l 261 528 z "},"l":{"ha":375,"x_min":114,"x_max":261,"o":"m 261 0 l 114 0 l 114 1056 l 261 1056 l 261 0 z "},"m":{"ha":1315,"x_min":114,"x_max":1207,"o":"m 951 763 q 1143 698 1079 763 q 1207 488 1207 633 l 1207 0 l 1060 0 l 1060 468 q 1025 598 1060 556 q 919 640 990 640 q 776 579 818 640 q 733 401 733 518 l 733 0 l 586 0 l 586 468 q 571 565 586 526 q 525 622 556 603 q 444 640 494 640 q 335 610 375 640 q 278 521 296 579 q 261 378 261 463 l 261 0 l 114 0 l 114 749 l 231 749 l 251 649 l 258 649 q 316 712 282 686 q 392 750 350 738 q 481 763 433 763 q 624 733 567 763 q 708 640 681 703 l 715 640 q 816 733 753 703 q 951 763 879 763 z "},"n":{"ha":871,"x_min":114,"x_max":763,"o":"m 493 763 q 694 698 625 763 q 763 488 763 633 l 763 0 l 617 0 l 617 467 q 579 597 617 554 q 463 640 542 640 q 305 573 349 640 q 261 378 261 506 l 261 0 l 114 0 l 114 749 l 231 749 l 251 647 l 258 647 q 320 712 283 686 q 401 750 357 738 q 493 763 446 763 z "},"o":{"ha":849,"x_min":74,"x_max":776,"o":"m 776 376 q 751 210 776 282 q 681 88 726 138 q 569 12 635 38 q 422 -14 503 -14 q 283 12 347 -14 q 172 88 219 38 q 99 210 125 138 q 74 376 74 282 q 116 586 74 500 q 238 717 158 672 q 426 763 317 763 q 608 717 529 763 q 731 586 686 672 q 776 376 776 500 m 225 376 q 246 231 225 292 q 311 137 267 169 q 425 104 356 104 q 538 137 494 104 q 603 231 582 169 q 624 376 624 292 q 602 520 624 461 q 537 611 581 579 q 424 643 493 643 q 272 572 319 643 q 225 376 225 501 z "},"p":{"ha":861,"x_min":114,"x_max":788,"o":"m 489 763 q 706 665 624 763 q 788 376 788 568 q 750 161 788 249 q 644 30 713 74 q 486 -14 576 -14 q 386 1 429 -14 q 313 40 343 17 q 261 90 282 64 l 253 90 q 258 32 256 67 q 261 -32 261 -3 l 261 -333 l 114 -333 l 114 749 l 235 749 l 254 649 l 261 649 q 314 706 283 679 q 387 747 344 732 q 489 763 429 763 m 451 640 q 342 614 383 640 q 281 534 300 588 q 261 399 263 481 l 261 376 q 278 231 261 290 q 338 140 296 171 q 454 108 381 108 q 556 142 517 108 q 616 237 596 176 q 636 378 636 297 q 591 570 636 500 q 451 640 546 640 z "},"q":{"ha":861,"x_min":74,"x_max":747,"o":"m 600 -15 q 601 42 600 10 q 607 100 603 75 l 599 100 q 513 19 568 53 q 371 -14 458 -14 q 156 83 239 -14 q 74 374 74 181 q 112 588 74 501 q 218 719 150 675 q 375 763 286 763 q 516 730 461 763 q 603 649 571 697 l 608 649 l 626 749 l 747 749 l 747 -333 l 600 -333 l 600 -15 m 410 106 q 523 132 481 106 q 585 213 565 158 q 604 346 604 267 l 604 372 q 561 574 604 506 q 407 643 518 643 q 270 569 315 643 q 225 369 225 496 q 271 175 225 244 q 410 106 317 106 z "},"r":{"ha":588,"x_min":114,"x_max":568,"o":"m 482 763 q 527 760 503 763 q 568 754 551 758 l 551 617 q 513 624 533 621 q 468 626 492 626 q 392 610 429 626 q 325 565 354 594 q 278 493 296 536 q 261 393 261 450 l 261 0 l 114 0 l 114 749 l 231 749 l 250 615 l 257 615 q 313 690 279 656 q 389 743 346 724 q 482 763 432 763 z "},"s":{"ha":675,"x_min":68,"x_max":614,"o":"m 614 211 q 578 89 614 139 q 475 13 543 39 q 311 -14 407 -14 q 175 -2 233 -14 q 69 32 117 10 l 69 163 q 185 119 119 138 q 311 101 250 101 q 434 128 396 101 q 472 199 472 154 q 457 245 472 225 q 403 286 442 265 q 292 335 364 307 q 172 391 221 363 q 95 459 122 419 q 68 560 68 499 q 147 710 68 658 q 354 763 226 763 q 484 749 424 763 q 600 710 544 735 l 553 600 q 451 634 504 619 q 347 649 399 649 q 245 627 281 649 q 210 568 210 606 q 226 522 210 542 q 284 483 243 501 q 394 436 325 464 q 514 381 465 410 q 588 313 563 353 q 614 211 614 272 z "},"t":{"ha":532,"x_min":25,"x_max":497,"o":"m 385 106 q 444 111 414 106 q 497 124 475 117 l 497 13 q 433 -6 474 1 q 353 -14 393 -14 q 241 7 292 -14 q 160 79 190 28 q 129 222 129 131 l 129 636 l 25 636 l 25 703 l 135 758 l 186 917 l 276 917 l 276 749 l 490 749 l 490 636 l 276 636 l 276 225 q 306 135 276 164 q 385 106 336 106 z "},"u":{"ha":871,"x_min":106,"x_max":758,"o":"m 758 749 l 758 0 l 640 0 l 619 99 l 613 99 q 551 35 589 60 q 469 -2 514 10 q 376 -14 425 -14 q 230 15 290 -14 q 138 103 169 43 q 106 258 106 164 l 106 749 l 256 749 l 256 281 q 292 151 256 194 q 407 107 329 107 q 529 138 485 107 q 592 227 574 168 q 610 371 610 286 l 610 749 l 758 749 z "},"v":{"ha":732,"x_min":0,"x_max":732,"o":"m 283 0 l 0 749 l 157 749 l 310 307 q 331 248 319 281 q 350 184 342 215 q 361 132 358 153 l 367 132 q 380 184 371 153 q 401 249 389 215 q 421 307 413 282 l 575 749 l 732 749 l 446 0 l 283 0 z "},"w":{"ha":1121,"x_min":15,"x_max":1106,"o":"m 621 375 q 605 436 614 403 q 588 503 596 469 q 572 567 579 538 q 561 613 565 596 l 556 613 q 547 567 553 596 q 532 503 540 538 q 515 435 524 469 q 497 374 507 401 l 386 1 l 222 1 l 15 750 l 165 750 l 263 371 q 283 289 274 332 q 299 206 292 246 q 310 140 307 167 l 315 140 q 324 185 318 158 q 335 242 329 213 q 348 300 342 272 q 361 346 354 328 l 481 750 l 642 750 l 758 346 q 776 280 767 318 q 794 205 786 242 q 804 142 801 168 l 810 142 q 819 203 813 165 q 837 286 826 242 q 857 371 847 331 l 957 750 l 1106 750 l 896 1 l 728 1 l 621 375 z "},"x":{"ha":754,"x_min":19,"x_max":735,"o":"m 286 382 l 32 749 l 200 749 l 378 479 l 556 749 l 722 749 l 468 382 l 735 0 l 568 0 l 378 286 l 186 0 l 19 0 l 286 382 z "},"y":{"ha":733,"x_min":1,"x_max":733,"o":"m 1 749 l 158 749 l 314 322 q 335 258 325 289 q 354 198 346 228 q 367 140 363 168 l 372 140 q 396 224 381 174 q 428 324 411 274 l 576 749 l 733 749 l 415 -93 q 350 -221 388 -167 q 259 -304 313 -275 q 128 -333 206 -333 q 69 -330 94 -333 q 25 -322 43 -326 l 25 -206 q 62 -211 40 -208 q 107 -214 83 -214 q 181 -197 150 -214 q 233 -151 211 -181 q 269 -82 254 -121 l 301 0 l 1 749 z "},"z":{"ha":663,"x_min":50,"x_max":611,"o":"m 611 0 l 50 0 l 50 93 l 436 635 l 74 635 l 74 749 l 600 749 l 600 644 l 222 114 l 611 114 l 611 0 z "},"{":{"ha":533,"x_min":33,"x_max":486,"o":"m 486 -219 q 329 -196 392 -218 q 235 -126 267 -174 q 204 -8 204 -79 l 204 199 q 185 274 204 246 q 127 314 165 301 q 33 326 89 326 l 33 446 q 127 460 89 447 q 185 500 165 472 q 204 572 204 528 l 204 781 q 236 899 204 853 q 331 969 268 946 q 486 992 394 992 l 486 876 q 410 863 442 875 q 360 825 378 850 q 342 756 342 800 l 342 556 q 303 445 342 486 q 189 392 265 404 l 189 383 q 304 328 267 369 q 342 219 342 288 l 342 15 q 359 -53 342 -28 q 408 -91 376 -79 q 486 -104 440 -103 l 486 -219 z "},"|":{"ha":765,"x_min":325,"x_max":440,"o":"m 325 1054 l 440 1054 l 440 -329 l 325 -329 l 325 1054 z "},"}":{"ha":533,"x_min":47,"x_max":500,"o":"m 47 -104 q 124 -90 93 -103 q 174 -52 156 -78 q 192 17 192 -26 l 192 218 q 230 328 192 288 q 344 382 268 369 l 344 390 q 230 444 268 403 q 192 554 192 485 l 192 757 q 174 826 192 800 q 125 864 157 851 q 47 876 93 876 l 47 992 q 206 969 143 992 q 299 899 268 946 q 329 781 329 853 l 329 574 q 349 500 329 528 q 407 459 368 472 q 500 446 446 446 l 500 326 q 407 314 446 326 q 349 274 368 301 q 329 200 329 246 l 329 -8 q 297 -127 329 -81 q 203 -197 265 -174 q 47 -219 140 -219 l 47 -104 z "},"~":{"ha":794,"x_min":67,"x_max":726,"o":"m 374 436 q 289 466 322 458 q 225 474 256 474 q 143 450 186 474 q 67 392 100 426 l 67 514 q 142 569 100 550 q 235 588 185 588 q 315 579 275 588 q 419 543 356 571 q 504 513 471 521 q 567 506 538 506 q 650 529 607 506 q 726 588 693 553 l 726 467 q 651 411 693 431 q 558 392 608 392 q 477 401 518 392 q 374 436 436 410 z "}," ":{"ha":361,"x_min":0,"x_max":0,"o":""},"¡":{"ha":381,"x_min":94,"x_max":285,"o":"m 136 444 l 242 444 l 276 -251 l 101 -251 l 136 444 m 285 658 q 257 581 285 603 q 190 558 229 558 q 123 581 151 558 q 94 657 94 603 q 123 735 94 711 q 189 758 151 758 q 257 735 229 758 q 285 658 285 711 z "},"¢":{"ha":794,"x_min":118,"x_max":683,"o":"m 494 896 q 599 882 550 894 q 683 853 647 869 l 639 733 q 555 761 600 750 q 471 772 510 772 q 358 743 403 772 q 290 654 313 714 q 268 504 268 594 q 291 356 268 414 q 358 272 314 299 q 468 244 403 244 q 575 256 529 244 q 667 289 621 268 l 667 163 q 587 133 628 143 q 493 119 546 122 l 493 -14 l 392 -14 l 392 124 q 247 178 308 136 q 151 301 185 221 q 118 503 118 381 q 152 711 118 631 q 248 835 186 792 q 392 890 310 878 l 392 1006 l 494 1006 l 494 896 z "},"£":{"ha":794,"x_min":47,"x_max":750,"o":"m 467 1004 q 606 988 543 1004 q 718 949 669 972 l 669 833 q 576 868 626 853 q 474 883 526 883 q 367 847 406 883 q 328 726 328 811 l 328 553 l 601 553 l 601 443 l 328 443 l 328 313 q 314 224 328 260 q 278 166 300 188 q 231 131 256 144 l 750 131 l 750 0 l 47 0 l 47 122 q 117 156 88 133 q 164 215 147 178 q 181 311 181 253 l 181 443 l 51 443 l 51 553 l 181 553 l 181 736 q 217 884 181 825 q 318 974 253 943 q 467 1004 383 1004 z "},"¤":{"ha":793,"x_min":79,"x_max":711,"o":"m 125 490 q 137 568 125 531 q 169 638 149 606 l 79 729 l 157 804 l 247 717 q 317 750 278 739 q 396 761 356 761 q 473 750 436 761 q 542 717 510 739 l 633 804 l 711 731 l 622 639 q 654 570 642 608 q 667 490 667 532 q 656 410 667 449 q 622 342 644 372 l 708 251 l 633 176 l 542 264 q 474 232 511 243 q 396 221 436 221 q 316 233 354 221 q 246 264 278 244 l 157 178 l 81 253 l 169 343 q 137 411 149 374 q 125 490 125 449 m 232 490 q 253 408 232 444 q 313 349 275 371 q 396 326 350 326 q 480 349 443 326 q 539 408 517 371 q 561 490 561 444 q 539 575 561 538 q 480 634 517 613 q 396 656 443 656 q 313 634 350 656 q 253 575 275 613 q 232 490 232 538 z "},"¥":{"ha":794,"x_min":15,"x_max":776,"o":"m 396 529 l 624 992 l 776 992 l 503 475 l 664 475 l 664 376 l 467 376 l 467 269 l 664 269 l 664 171 l 467 171 l 467 0 l 325 0 l 325 171 l 128 171 l 128 269 l 325 269 l 325 376 l 128 376 l 128 475 l 285 475 l 15 992 l 169 992 l 396 529 z "},"¦":{"ha":765,"x_min":325,"x_max":440,"o":"m 325 1054 l 440 1054 l 440 518 l 325 518 l 325 1054 m 325 207 l 440 207 l 440 -329 l 325 -329 l 325 207 z "},"§":{"ha":701,"x_min":79,"x_max":617,"o":"m 90 547 q 122 656 90 614 q 194 719 153 697 q 119 786 146 747 q 93 879 93 825 q 165 1013 93 964 q 367 1063 238 1063 q 498 1049 442 1063 q 607 1013 554 1035 l 564 908 q 469 944 517 929 q 360 958 422 958 q 253 938 285 958 q 222 882 222 918 q 238 838 222 857 q 292 799 254 818 q 393 756 329 781 q 513 698 464 729 q 590 626 563 667 q 617 531 617 586 q 588 417 617 461 q 518 349 558 374 q 590 286 565 322 q 615 197 615 250 q 535 46 615 100 q 314 -8 456 -8 q 182 3 239 -8 q 79 39 125 15 l 79 154 q 151 125 111 139 q 234 103 190 111 q 318 94 278 94 q 449 122 413 94 q 485 188 485 150 q 472 231 485 213 q 424 270 460 250 q 317 318 388 290 q 194 375 246 346 q 117 445 143 404 q 90 547 90 486 m 208 561 q 226 503 208 529 q 285 454 244 478 q 394 404 326 431 l 418 396 q 472 442 447 414 q 497 513 497 469 q 480 572 497 546 q 419 623 463 599 q 296 674 376 647 q 235 634 263 664 q 208 561 208 604 z "},"¨":{"ha":811,"x_min":197,"x_max":618,"o":"m 197 949 q 219 1006 197 988 q 271 1024 240 1024 q 324 1006 301 1024 q 346 949 346 988 q 324 891 346 910 q 271 872 301 872 q 219 891 240 872 q 197 949 197 910 m 469 949 q 491 1006 469 988 q 543 1024 513 1024 q 596 1006 574 1024 q 618 949 618 988 q 596 891 618 910 q 543 872 574 872 q 491 891 513 872 q 469 949 469 910 z "},"©":{"ha":1156,"x_min":68,"x_max":1088,"o":"m 599 183 q 391 269 460 183 q 322 496 322 354 q 355 658 322 588 q 450 768 388 728 q 604 808 513 808 q 692 797 647 808 q 775 767 736 786 l 735 679 q 667 706 700 697 q 606 715 635 715 q 478 657 524 715 q 433 496 433 599 q 473 333 433 390 q 604 275 513 275 q 676 284 636 275 q 750 307 715 293 l 750 217 q 682 193 717 203 q 599 183 647 183 m 578 -14 q 374 24 467 -14 q 212 130 281 61 q 106 292 143 199 q 68 496 68 385 q 106 699 68 606 q 213 860 143 792 q 375 967 282 929 q 578 1006 468 1006 q 776 968 683 1006 q 938 862 868 931 q 1048 700 1008 793 q 1088 496 1088 607 q 1050 292 1088 385 q 944 130 1013 199 q 782 24 875 61 q 578 -14 689 -14 m 578 64 q 742 96 665 64 q 878 186 819 128 q 970 323 938 244 q 1003 496 1003 401 q 971 663 1003 585 q 882 801 939 742 q 748 894 825 861 q 578 928 671 928 q 407 896 485 928 q 272 806 329 864 q 183 669 214 749 q 151 496 151 590 q 183 327 151 406 q 271 190 214 249 q 406 97 328 131 q 578 64 485 64 z "},"ª":{"ha":506,"x_min":43,"x_max":440,"o":"m 254 1003 q 392 963 344 1003 q 440 839 440 924 l 440 533 l 367 533 l 347 597 q 281 544 319 564 q 189 525 243 525 q 111 541 144 525 q 60 588 78 557 q 43 667 43 619 q 67 748 43 717 q 140 796 90 779 q 264 815 190 813 l 339 818 l 339 844 q 312 903 339 886 q 246 921 285 921 q 173 910 207 921 q 104 883 139 900 l 71 960 q 156 991 110 979 q 254 1003 201 1003 m 274 747 q 172 724 199 744 q 146 668 146 703 q 165 621 146 636 q 217 606 183 606 q 310 638 281 606 q 339 721 339 669 l 339 750 l 274 747 z "},"«":{"ha":750,"x_min":54,"x_max":696,"o":"m 54 379 l 293 667 l 400 608 l 207 371 l 400 133 l 293 74 l 54 361 l 54 379 m 350 379 l 592 667 l 696 608 l 503 371 l 696 133 l 592 74 l 350 361 l 350 379 z "},"¬":{"ha":794,"x_min":67,"x_max":725,"o":"m 725 546 l 725 175 l 613 175 l 613 433 l 67 433 l 67 546 l 725 546 z "},"­":{"ha":446,"x_min":51,"x_max":396,"o":"m 51 308 l 51 436 l 396 436 l 396 308 l 51 308 z "},"®":{"ha":1156,"x_min":68,"x_max":1088,"o":"m 386 192 l 386 800 l 565 800 q 732 755 679 800 q 785 619 785 710 q 751 516 785 554 q 676 461 718 478 l 838 192 l 717 192 l 579 431 l 493 431 l 493 192 l 386 192 m 563 518 q 647 546 617 518 q 676 617 676 574 q 649 688 676 665 q 561 710 622 710 l 493 710 l 493 518 l 563 518 m 578 -14 q 374 24 467 -14 q 212 130 281 61 q 106 292 143 199 q 68 496 68 385 q 106 699 68 606 q 213 860 143 792 q 375 967 282 929 q 578 1006 468 1006 q 776 968 683 1006 q 938 862 868 931 q 1048 700 1008 793 q 1088 496 1088 607 q 1050 292 1088 385 q 944 130 1013 199 q 782 24 875 61 q 578 -14 689 -14 m 578 64 q 742 96 665 64 q 878 186 819 128 q 970 323 938 244 q 1003 496 1003 401 q 971 663 1003 585 q 882 801 939 742 q 748 894 825 861 q 578 928 671 928 q 407 896 485 928 q 272 806 329 864 q 183 669 214 749 q 151 496 151 590 q 183 327 151 406 q 271 190 214 249 q 406 97 328 131 q 578 64 485 64 z "},"¯":{"ha":694,"x_min":-4,"x_max":699,"o":"m 699 1056 l -4 1056 l -4 1161 l 699 1161 l 699 1056 z "},"°":{"ha":593,"x_min":71,"x_max":522,"o":"m 296 567 q 178 594 229 567 q 99 672 128 622 q 71 785 71 721 q 99 900 71 850 q 177 978 126 950 q 296 1006 228 1006 q 415 978 364 1006 q 494 900 465 950 q 522 785 522 850 q 494 672 522 721 q 415 594 465 622 q 296 567 364 567 m 297 663 q 390 697 360 663 q 419 785 419 731 q 388 877 419 843 q 297 911 357 911 q 204 877 235 911 q 174 785 174 843 q 204 697 174 731 q 297 663 235 663 z "},"±":{"ha":794,"x_min":67,"x_max":726,"o":"m 67 0 l 67 114 l 726 114 l 726 0 l 67 0 m 453 561 l 725 561 l 725 449 l 453 449 l 453 169 l 339 169 l 339 449 l 67 449 l 67 561 l 339 561 l 339 842 l 453 842 l 453 561 z "},"²":{"ha":499,"x_min":35,"x_max":440,"o":"m 440 578 l 35 578 l 35 664 l 192 818 q 272 900 244 868 q 309 958 299 932 q 319 1011 319 983 q 297 1070 319 1050 q 236 1090 274 1090 q 166 1075 199 1090 q 97 1031 133 1060 l 38 1106 q 129 1163 79 1142 q 243 1185 179 1185 q 384 1141 332 1185 q 436 1019 436 1097 q 419 938 436 975 q 366 861 401 900 q 279 772 331 822 l 179 679 l 440 679 l 440 578 z "},"³":{"ha":499,"x_min":28,"x_max":457,"o":"m 238 1185 q 388 1142 336 1185 q 439 1033 439 1100 q 410 942 439 978 q 336 890 382 906 l 336 886 q 425 840 393 875 q 457 747 457 804 q 397 616 457 665 q 215 567 338 567 q 116 576 163 567 q 28 607 69 586 l 28 707 q 123 671 75 683 q 214 658 171 658 q 312 683 281 658 q 343 753 343 708 q 307 819 343 797 q 201 840 271 840 l 124 840 l 124 928 l 197 928 q 295 952 265 928 q 325 1017 325 976 q 299 1075 325 1056 q 235 1094 274 1094 q 158 1081 193 1094 q 85 1042 122 1067 l 29 1115 q 122 1166 72 1147 q 238 1185 172 1185 z "},"´":{"ha":425,"x_min":56,"x_max":369,"o":"m 369 1050 q 328 1003 354 1031 q 271 945 301 975 q 210 888 240 915 q 153 842 179 861 l 56 842 l 56 858 q 103 921 76 885 q 154 995 129 957 q 196 1064 179 1033 l 369 1064 l 369 1050 z "},"µ":{"ha":878,"x_min":114,"x_max":764,"o":"m 764 749 l 764 0 l 647 0 l 625 100 l 618 100 q 565 38 596 64 q 496 -1 535 13 q 408 -14 457 -14 q 321 3 357 -14 q 260 47 285 19 l 254 47 q 259 -20 257 22 q 261 -117 261 -62 l 261 -333 l 114 -333 l 114 749 l 261 749 l 261 279 q 299 151 261 194 q 415 107 338 107 q 535 138 492 107 q 598 227 579 168 q 617 371 617 286 l 617 749 l 764 749 z "},"¶":{"ha":907,"x_min":75,"x_max":769,"o":"m 769 -176 l 681 -176 l 681 964 l 546 964 l 546 -176 l 456 -176 l 456 379 q 410 370 435 374 q 360 367 385 367 q 210 399 274 367 q 110 506 146 431 q 75 707 75 581 q 113 916 75 840 q 221 1024 151 992 q 381 1056 290 1056 l 769 1056 l 769 -176 z "},"·":{"ha":378,"x_min":93,"x_max":285,"o":"m 93 490 q 121 568 93 546 q 188 590 149 590 q 256 568 228 590 q 285 490 285 546 q 256 413 285 436 q 188 389 228 389 q 121 413 149 389 q 93 490 93 436 z "},"¸":{"ha":328,"x_min":21,"x_max":307,"o":"m 307 -189 q 256 -295 307 -257 q 106 -333 206 -333 q 57 -331 79 -333 q 21 -324 35 -328 l 21 -237 q 57 -243 36 -240 q 99 -246 78 -246 q 168 -233 144 -246 q 192 -189 192 -221 q 158 -138 192 -154 q 71 -115 124 -122 l 128 0 l 217 0 l 185 -68 q 246 -90 218 -75 q 290 -128 274 -104 q 307 -189 307 -151 z "},"¹":{"ha":499,"x_min":49,"x_max":349,"o":"m 349 1172 l 349 578 l 233 578 l 233 936 q 234 981 233 958 q 236 1024 235 1003 q 239 1064 238 1046 q 210 1037 226 1051 q 178 1010 194 1022 l 107 957 l 49 1033 l 239 1172 l 349 1172 z "},"º":{"ha":526,"x_min":43,"x_max":485,"o":"m 485 764 q 424 588 485 650 q 261 525 364 525 q 105 587 167 525 q 43 764 43 649 q 102 942 43 881 q 264 1003 161 1003 q 380 975 331 1003 q 457 894 429 947 q 485 764 485 842 m 144 764 q 173 649 144 688 q 263 610 201 610 q 353 649 325 610 q 381 764 381 688 q 353 880 381 842 q 263 918 325 918 q 173 880 201 918 q 144 764 144 842 z "},"»":{"ha":750,"x_min":54,"x_max":696,"o":"m 696 361 l 454 74 l 349 133 l 542 371 l 349 608 l 454 667 l 696 379 l 696 361 m 399 361 l 158 74 l 54 133 l 246 371 l 54 608 l 158 667 l 399 379 l 399 361 z "},"¼":{"ha":1069,"x_min":42,"x_max":1057,"o":"m 188 0 l 776 992 l 897 992 l 308 0 l 188 0 m 222 757 q 223 802 222 779 q 225 847 224 825 q 228 885 226 868 q 199 858 215 874 q 167 832 183 843 l 99 781 l 42 854 l 229 992 l 339 992 l 339 397 l 222 397 l 222 757 m 851 0 l 851 125 l 583 125 l 583 206 l 854 599 l 972 599 l 972 217 l 1057 217 l 1057 125 l 972 125 l 972 0 l 851 0 m 689 217 l 851 217 l 851 340 q 853 406 851 369 q 856 476 854 443 q 828 426 849 460 q 793 369 807 392 l 689 217 z "},"½":{"ha":1113,"x_min":31,"x_max":1056,"o":"m 158 0 l 747 992 l 868 992 l 279 0 l 158 0 m 211 757 q 212 791 211 774 q 213 825 213 808 q 215 858 214 842 q 217 885 215 874 q 188 858 204 874 q 156 832 171 843 l 86 781 l 31 854 l 218 992 l 328 992 l 328 397 l 211 397 l 211 757 m 650 0 l 650 86 l 807 240 q 887 322 860 290 q 924 380 914 354 q 933 433 933 406 q 910 492 933 472 q 850 513 888 513 q 781 497 814 513 q 711 453 747 482 l 653 528 q 744 585 694 564 q 858 607 794 607 q 999 563 947 607 q 1051 442 1051 519 q 1033 360 1051 397 q 981 283 1015 322 q 894 194 946 244 l 794 101 l 1056 101 l 1056 0 l 650 0 z "},"¾":{"ha":1111,"x_min":33,"x_max":1099,"o":"m 244 0 l 833 992 l 956 992 l 367 0 l 244 0 m 215 386 q 119 396 164 386 q 33 428 75 406 l 33 528 q 126 490 79 504 q 217 476 172 476 q 313 502 282 476 q 343 572 343 528 q 308 638 343 615 q 201 661 272 661 l 124 661 l 124 746 l 197 746 q 297 772 268 746 q 325 836 325 799 q 300 895 325 876 q 236 914 275 914 q 163 900 197 914 q 90 861 128 886 l 35 935 q 126 985 78 967 q 242 1004 175 1004 q 388 961 336 1004 q 439 850 439 918 q 410 762 439 797 q 333 711 381 726 l 333 706 q 424 658 392 694 q 457 567 457 621 q 399 436 457 486 q 215 386 340 386 m 893 0 l 893 125 l 625 125 l 625 206 l 894 599 l 1014 599 l 1014 217 l 1099 217 l 1099 125 l 1014 125 l 1014 0 l 893 0 m 731 217 l 893 217 l 893 340 q 894 406 893 369 q 897 476 896 443 q 869 426 890 460 q 835 369 849 392 l 731 217 z "},"¿":{"ha":621,"x_min":32,"x_max":604,"o":"m 422 411 q 412 323 422 361 q 376 251 401 285 q 306 181 351 218 q 224 110 253 139 q 184 53 196 81 q 172 -12 172 26 q 213 -103 172 -71 q 326 -136 254 -136 q 447 -118 393 -136 q 553 -76 501 -100 l 604 -189 q 475 -242 546 -221 q 317 -262 404 -262 q 106 -197 181 -262 q 32 -18 32 -131 q 51 87 32 43 q 108 167 71 131 q 196 246 144 204 q 265 310 242 283 q 297 363 289 336 q 306 426 306 390 l 306 451 l 422 451 l 422 411 m 454 663 q 427 585 454 607 q 358 563 400 563 q 291 585 319 563 q 263 663 263 607 q 291 739 263 715 q 358 763 319 763 q 427 739 400 763 q 454 663 454 715 z "},"À":{"ha":910,"x_min":0,"x_max":908,"o":"m 750 0 l 643 285 l 263 285 l 157 0 l 0 0 l 376 996 l 532 996 l 908 0 l 750 0 m 503 692 q 488 738 499 706 q 468 806 478 771 q 453 861 458 840 q 438 799 446 832 q 421 739 429 767 q 407 692 413 711 l 307 415 l 601 415 l 503 692 m 435 1307 q 476 1238 451 1276 q 527 1164 500 1200 q 576 1101 554 1128 l 576 1085 l 476 1085 q 422 1131 453 1104 q 360 1188 390 1158 q 303 1246 329 1218 q 263 1293 278 1274 l 263 1307 l 435 1307 z "},"Á":{"ha":910,"x_min":0,"x_max":908,"o":"m 750 0 l 643 285 l 263 285 l 157 0 l 0 0 l 376 996 l 532 996 l 908 0 l 750 0 m 503 692 q 488 738 499 706 q 468 806 478 771 q 453 861 458 840 q 438 799 446 832 q 421 739 429 767 q 407 692 413 711 l 307 415 l 601 415 l 503 692 m 682 1293 q 640 1246 667 1274 q 583 1188 614 1218 q 522 1131 553 1158 q 465 1085 492 1104 l 368 1085 l 368 1101 q 415 1164 389 1128 q 467 1238 442 1200 q 508 1307 492 1276 l 682 1307 l 682 1293 z "},"Â":{"ha":910,"x_min":0,"x_max":908,"o":"m 750 0 l 643 285 l 263 285 l 157 0 l 0 0 l 376 996 l 532 996 l 908 0 l 750 0 m 503 692 q 488 738 499 706 q 468 806 478 771 q 453 861 458 840 q 438 799 446 832 q 421 739 429 767 q 407 692 413 711 l 307 415 l 601 415 l 503 692 m 528 1307 q 577 1238 546 1276 q 642 1163 608 1200 q 701 1101 675 1126 l 701 1085 l 600 1085 q 526 1138 564 1107 q 451 1206 489 1169 q 378 1139 414 1169 q 306 1085 342 1108 l 206 1085 l 206 1101 q 265 1164 232 1128 q 328 1238 297 1200 q 378 1307 358 1276 l 528 1307 z "},"Ã":{"ha":910,"x_min":0,"x_max":908,"o":"m 750 0 l 643 285 l 263 285 l 157 0 l 0 0 l 376 996 l 532 996 l 908 0 l 750 0 m 503 692 q 488 738 499 706 q 468 806 478 771 q 453 861 458 840 q 438 799 446 832 q 421 739 429 767 q 407 692 413 711 l 307 415 l 601 415 l 503 692 m 193 1085 q 210 1164 197 1129 q 244 1222 224 1199 q 293 1258 265 1246 q 356 1271 321 1271 q 413 1260 385 1271 q 467 1233 442 1249 q 518 1206 493 1218 q 565 1194 543 1194 q 613 1214 594 1194 q 639 1272 631 1233 l 718 1272 q 667 1135 710 1185 q 557 1086 624 1086 q 501 1097 528 1086 q 447 1124 474 1108 q 395 1151 419 1140 q 347 1163 371 1163 q 299 1143 317 1163 q 272 1085 282 1124 l 193 1085 z "},"Ä":{"ha":910,"x_min":0,"x_max":908,"o":"m 750 0 l 643 285 l 263 285 l 157 0 l 0 0 l 376 996 l 532 996 l 908 0 l 750 0 m 503 692 q 488 738 499 706 q 468 806 478 771 q 453 861 458 840 q 438 799 446 832 q 421 739 429 767 q 407 692 413 711 l 307 415 l 601 415 l 503 692 m 243 1192 q 265 1249 243 1231 q 317 1267 286 1267 q 369 1249 347 1267 q 392 1192 392 1231 q 369 1134 392 1153 q 317 1115 347 1115 q 265 1134 286 1115 q 243 1192 243 1153 m 515 1192 q 537 1249 515 1231 q 589 1267 558 1267 q 642 1249 619 1267 q 664 1192 664 1231 q 642 1134 664 1153 q 589 1115 619 1115 q 537 1134 558 1115 q 515 1192 515 1153 z "},"Å":{"ha":910,"x_min":0,"x_max":908,"o":"m 750 0 l 643 285 l 263 285 l 157 0 l 0 0 l 376 996 l 532 996 l 908 0 l 750 0 m 503 692 q 488 738 499 706 q 468 806 478 771 q 453 861 458 840 q 438 799 446 832 q 421 739 429 767 q 407 692 413 711 l 307 415 l 601 415 l 503 692 m 451 919 q 338 959 381 919 q 294 1071 294 999 q 338 1181 294 1142 q 451 1221 381 1221 q 565 1181 518 1221 q 611 1072 611 1142 q 565 959 611 999 q 451 919 519 919 m 451 996 q 504 1016 483 996 q 525 1071 525 1036 q 503 1124 525 1104 q 451 1144 482 1144 q 398 1124 419 1144 q 376 1071 376 1104 q 396 1016 376 1036 q 451 996 415 996 z "},"Æ":{"ha":1253,"x_min":-1,"x_max":1169,"o":"m 1169 0 l 631 0 l 631 286 l 288 286 l 153 0 l -1 0 l 463 992 l 1169 992 l 1169 864 l 781 864 l 781 581 l 1144 581 l 1144 454 l 781 454 l 781 129 l 1169 129 l 1169 0 m 344 417 l 631 417 l 631 861 l 549 861 l 344 417 z "},"Ç":{"ha":882,"x_min":82,"x_max":839,"o":"m 558 876 q 426 851 485 876 q 325 775 367 825 q 262 654 283 725 q 240 494 240 583 q 276 292 240 378 q 382 161 311 207 q 560 115 453 115 q 684 128 625 115 q 800 158 743 140 l 800 29 q 681 -3 742 7 q 539 -14 621 -14 q 285 49 386 -14 q 133 226 183 111 q 82 496 82 342 q 113 702 82 608 q 205 864 144 796 q 355 969 265 932 q 560 1006 444 1006 q 707 990 635 1006 q 839 946 779 975 l 783 821 q 680 860 736 843 q 558 876 624 876 m 661 -189 q 610 -295 661 -257 q 460 -333 560 -333 q 411 -331 433 -333 q 375 -324 389 -328 l 375 -237 q 411 -243 390 -240 q 453 -246 432 -246 q 522 -233 499 -246 q 546 -189 546 -221 q 512 -138 546 -154 q 425 -115 478 -122 l 482 0 l 571 0 l 539 -68 q 600 -90 572 -75 q 644 -128 628 -104 q 661 -189 661 -151 z "},"È":{"ha":774,"x_min":132,"x_max":690,"o":"m 690 0 l 132 0 l 132 992 l 690 992 l 690 864 l 282 864 l 282 581 l 665 581 l 665 454 l 282 454 l 282 129 l 690 129 l 690 0 m 392 1307 q 433 1238 408 1276 q 484 1164 457 1200 q 533 1101 511 1128 l 533 1085 l 433 1085 q 378 1131 410 1104 q 317 1188 347 1158 q 260 1246 286 1218 q 219 1293 235 1274 l 219 1307 l 392 1307 z "},"É":{"ha":774,"x_min":132,"x_max":690,"o":"m 690 0 l 132 0 l 132 992 l 690 992 l 690 864 l 282 864 l 282 581 l 665 581 l 665 454 l 282 454 l 282 129 l 690 129 l 690 0 m 640 1293 q 599 1246 625 1274 q 542 1188 572 1218 q 481 1131 511 1158 q 424 1085 450 1104 l 326 1085 l 326 1101 q 374 1164 347 1128 q 425 1238 400 1200 q 467 1307 450 1276 l 640 1307 l 640 1293 z "},"Ê":{"ha":774,"x_min":132,"x_max":690,"o":"m 690 0 l 132 0 l 132 992 l 690 992 l 690 864 l 282 864 l 282 581 l 665 581 l 665 454 l 282 454 l 282 129 l 690 129 l 690 0 m 494 1307 q 544 1238 513 1276 q 608 1163 575 1200 q 668 1101 642 1126 l 668 1085 l 567 1085 q 493 1138 531 1107 q 418 1206 456 1169 q 344 1139 381 1169 q 272 1085 308 1108 l 172 1085 l 172 1101 q 231 1164 199 1128 q 294 1238 264 1200 q 344 1307 325 1276 l 494 1307 z "},"Ë":{"ha":774,"x_min":132,"x_max":690,"o":"m 690 0 l 132 0 l 132 992 l 690 992 l 690 864 l 282 864 l 282 581 l 665 581 l 665 454 l 282 454 l 282 129 l 690 129 l 690 0 m 211 1192 q 233 1249 211 1231 q 285 1267 254 1267 q 338 1249 315 1267 q 360 1192 360 1231 q 338 1134 360 1153 q 285 1115 315 1115 q 233 1134 254 1115 q 211 1192 211 1153 m 483 1192 q 505 1249 483 1231 q 557 1267 526 1267 q 610 1249 588 1267 q 632 1192 632 1231 q 610 1134 632 1153 q 557 1115 588 1115 q 505 1134 526 1115 q 483 1192 483 1153 z "},"Ì":{"ha":492,"x_min":43,"x_max":438,"o":"m 438 0 l 53 0 l 53 86 l 171 121 l 171 869 l 53 906 l 53 992 l 438 992 l 438 906 l 321 869 l 321 121 l 438 86 l 438 0 m 215 1307 q 256 1238 232 1276 q 308 1164 281 1200 q 357 1101 335 1128 l 357 1085 l 257 1085 q 202 1131 233 1104 q 140 1188 171 1158 q 84 1246 110 1218 q 43 1293 58 1274 l 43 1307 l 215 1307 z "},"Í":{"ha":492,"x_min":53,"x_max":464,"o":"m 438 0 l 53 0 l 53 86 l 171 121 l 171 869 l 53 906 l 53 992 l 438 992 l 438 906 l 321 869 l 321 121 l 438 86 l 438 0 m 465 1293 q 424 1246 450 1274 q 367 1188 397 1218 q 306 1131 336 1158 q 249 1085 275 1104 l 151 1085 l 151 1101 q 199 1164 172 1128 q 250 1238 225 1200 q 292 1307 275 1276 l 465 1307 l 465 1293 z "},"Î":{"ha":492,"x_min":-3,"x_max":493,"o":"m 438 0 l 53 0 l 53 86 l 171 121 l 171 869 l 53 906 l 53 992 l 438 992 l 438 906 l 321 869 l 321 121 l 438 86 l 438 0 m 319 1307 q 369 1238 338 1276 q 433 1163 400 1200 q 493 1101 467 1126 l 493 1085 l 392 1085 q 318 1138 356 1107 q 243 1206 281 1169 q 169 1139 206 1169 q 97 1085 133 1108 l -3 1085 l -3 1101 q 56 1164 24 1128 q 119 1238 89 1200 q 169 1307 150 1276 l 319 1307 z "},"Ï":{"ha":492,"x_min":36,"x_max":457,"o":"m 438 0 l 53 0 l 53 86 l 171 121 l 171 869 l 53 906 l 53 992 l 438 992 l 438 906 l 321 869 l 321 121 l 438 86 l 438 0 m 36 1192 q 58 1249 36 1231 q 110 1267 79 1267 q 163 1249 140 1267 q 185 1192 185 1231 q 163 1134 185 1153 q 110 1115 140 1115 q 58 1134 79 1115 q 36 1192 36 1153 m 308 1192 q 330 1249 308 1231 q 382 1267 351 1267 q 435 1249 413 1267 q 457 1192 457 1231 q 435 1134 457 1153 q 382 1115 413 1115 q 330 1134 351 1115 q 308 1192 308 1153 z "},"Ð":{"ha":1015,"x_min":38,"x_max":933,"o":"m 442 992 q 703 936 593 992 q 873 774 813 881 q 933 507 933 667 q 871 227 933 340 q 692 57 808 114 q 413 0 576 0 l 138 0 l 138 426 l 38 426 l 38 554 l 138 554 l 138 992 l 442 992 m 428 865 l 289 865 l 289 554 l 517 554 l 517 426 l 289 426 l 289 128 l 401 128 q 683 222 590 128 q 775 503 775 315 q 734 707 775 626 q 616 826 693 788 q 428 865 539 865 z "},"Ñ":{"ha":1074,"x_min":132,"x_max":946,"o":"m 946 0 l 764 0 l 263 801 l 257 801 q 262 721 260 765 q 266 628 264 676 q 268 528 268 579 l 268 0 l 132 0 l 132 992 l 313 992 l 813 194 l 817 194 q 814 268 815 224 q 810 363 813 313 q 807 458 808 414 l 807 992 l 946 992 l 946 0 m 278 1085 q 295 1164 282 1129 q 329 1222 308 1199 q 378 1258 350 1246 q 440 1271 406 1271 q 498 1260 469 1271 q 552 1233 526 1249 q 603 1206 578 1218 q 650 1194 628 1194 q 697 1214 679 1194 q 724 1272 715 1233 l 803 1272 q 751 1135 794 1185 q 642 1086 708 1086 q 585 1097 613 1086 q 531 1124 558 1108 q 480 1151 504 1140 q 432 1163 456 1163 q 384 1143 401 1163 q 357 1085 367 1124 l 278 1085 z "},"Ò":{"ha":1089,"x_min":82,"x_max":1006,"o":"m 1006 497 q 977 288 1006 382 q 891 126 949 194 q 747 22 833 58 q 544 -14 660 -14 q 340 23 426 -14 q 195 127 253 60 q 110 289 138 194 q 82 499 82 383 q 133 765 82 651 q 286 943 183 879 q 546 1007 389 1007 q 801 944 699 1007 q 954 766 903 881 q 1006 497 1006 651 m 242 497 q 274 293 242 379 q 373 161 306 207 q 544 115 440 115 q 717 161 650 115 q 815 293 783 207 q 847 497 847 379 q 776 776 847 675 q 546 878 704 878 q 373 832 440 878 q 274 701 306 786 q 242 497 242 617 m 526 1307 q 567 1238 543 1276 q 619 1164 592 1200 q 668 1101 646 1128 l 668 1085 l 568 1085 q 513 1131 544 1104 q 451 1188 482 1158 q 395 1246 421 1218 q 354 1293 369 1274 l 354 1307 l 526 1307 z "},"Ó":{"ha":1089,"x_min":82,"x_max":1006,"o":"m 1006 497 q 977 288 1006 382 q 891 126 949 194 q 747 22 833 58 q 544 -14 660 -14 q 340 23 426 -14 q 195 127 253 60 q 110 289 138 194 q 82 499 82 383 q 133 765 82 651 q 286 943 183 879 q 546 1007 389 1007 q 801 944 699 1007 q 954 766 903 881 q 1006 497 1006 651 m 242 497 q 274 293 242 379 q 373 161 306 207 q 544 115 440 115 q 717 161 650 115 q 815 293 783 207 q 847 497 847 379 q 776 776 847 675 q 546 878 704 878 q 373 832 440 878 q 274 701 306 786 q 242 497 242 617 m 774 1293 q 732 1246 758 1274 q 675 1188 706 1218 q 614 1131 644 1158 q 557 1085 583 1104 l 460 1085 l 460 1101 q 507 1164 481 1128 q 558 1238 533 1200 q 600 1307 583 1276 l 774 1307 l 774 1293 z "},"Ô":{"ha":1089,"x_min":82,"x_max":1006,"o":"m 1006 497 q 977 288 1006 382 q 891 126 949 194 q 747 22 833 58 q 544 -14 660 -14 q 340 23 426 -14 q 195 127 253 60 q 110 289 138 194 q 82 499 82 383 q 133 765 82 651 q 286 943 183 879 q 546 1007 389 1007 q 801 944 699 1007 q 954 766 903 881 q 1006 497 1006 651 m 242 497 q 274 293 242 379 q 373 161 306 207 q 544 115 440 115 q 717 161 650 115 q 815 293 783 207 q 847 497 847 379 q 776 776 847 675 q 546 878 704 878 q 373 832 440 878 q 274 701 306 786 q 242 497 242 617 m 619 1307 q 669 1238 638 1276 q 733 1163 700 1200 q 793 1101 767 1126 l 793 1085 l 692 1085 q 618 1138 656 1107 q 543 1206 581 1169 q 469 1139 506 1169 q 397 1085 433 1108 l 297 1085 l 297 1101 q 356 1164 324 1128 q 419 1238 389 1200 q 469 1307 450 1276 l 619 1307 z "},"Õ":{"ha":1089,"x_min":82,"x_max":1006,"o":"m 1006 497 q 977 288 1006 382 q 891 126 949 194 q 747 22 833 58 q 544 -14 660 -14 q 340 23 426 -14 q 195 127 253 60 q 110 289 138 194 q 82 499 82 383 q 133 765 82 651 q 286 943 183 879 q 546 1007 389 1007 q 801 944 699 1007 q 954 766 903 881 q 1006 497 1006 651 m 242 497 q 274 293 242 379 q 373 161 306 207 q 544 115 440 115 q 717 161 650 115 q 815 293 783 207 q 847 497 847 379 q 776 776 847 675 q 546 878 704 878 q 373 832 440 878 q 274 701 306 786 q 242 497 242 617 m 285 1085 q 302 1164 289 1129 q 336 1222 315 1199 q 385 1258 357 1246 q 447 1271 413 1271 q 505 1260 476 1271 q 559 1233 533 1249 q 610 1206 585 1218 q 657 1194 635 1194 q 704 1214 686 1194 q 731 1272 722 1233 l 810 1272 q 758 1135 801 1185 q 649 1086 715 1086 q 592 1097 619 1086 q 538 1124 565 1108 q 487 1151 511 1140 q 439 1163 463 1163 q 391 1143 408 1163 q 364 1085 374 1124 l 285 1085 z "},"Ö":{"ha":1089,"x_min":82,"x_max":1006,"o":"m 1006 497 q 977 288 1006 382 q 891 126 949 194 q 747 22 833 58 q 544 -14 660 -14 q 340 23 426 -14 q 195 127 253 60 q 110 289 138 194 q 82 499 82 383 q 133 765 82 651 q 286 943 183 879 q 546 1007 389 1007 q 801 944 699 1007 q 954 766 903 881 q 1006 497 1006 651 m 242 497 q 274 293 242 379 q 373 161 306 207 q 544 115 440 115 q 717 161 650 115 q 815 293 783 207 q 847 497 847 379 q 776 776 847 675 q 546 878 704 878 q 373 832 440 878 q 274 701 306 786 q 242 497 242 617 m 336 1192 q 358 1249 336 1231 q 410 1267 379 1267 q 463 1249 440 1267 q 485 1192 485 1231 q 463 1134 485 1153 q 410 1115 440 1115 q 358 1134 379 1115 q 336 1192 336 1153 m 608 1192 q 630 1249 608 1231 q 682 1267 651 1267 q 735 1249 713 1267 q 757 1192 757 1231 q 735 1134 757 1153 q 682 1115 713 1115 q 630 1134 651 1115 q 608 1192 608 1153 z "},"×":{"ha":794,"x_min":89,"x_max":704,"o":"m 624 797 l 704 718 l 476 490 l 701 263 l 624 183 l 394 408 l 171 183 l 90 264 l 315 490 l 89 717 l 169 797 l 396 571 l 624 797 z "},"Ø":{"ha":1089,"x_min":82,"x_max":1006,"o":"m 1006 497 q 977 288 1006 382 q 891 126 949 194 q 747 22 833 58 q 544 -14 660 -14 q 408 1 471 -14 q 297 44 346 17 l 232 -49 l 139 13 l 208 111 q 113 278 144 179 q 82 499 82 376 q 133 765 82 651 q 286 943 183 879 q 546 1007 389 1007 q 678 992 617 1007 q 789 949 739 976 l 851 1039 l 943 978 l 875 882 q 973 717 940 815 q 1006 497 1006 619 m 847 497 q 788 753 847 660 l 375 160 q 450 127 407 139 q 544 115 493 115 q 717 161 650 115 q 815 293 783 207 q 847 497 847 379 m 242 497 q 256 355 242 419 q 299 243 269 290 l 711 835 q 638 867 679 856 q 546 878 596 878 q 373 832 440 878 q 274 701 306 786 q 242 497 242 617 z "},"Ù":{"ha":1025,"x_min":124,"x_max":901,"o":"m 901 350 q 859 165 901 247 q 729 34 817 82 q 508 -14 642 -14 q 222 87 319 -14 q 124 353 124 188 l 124 992 l 274 992 l 274 360 q 333 176 274 238 q 515 114 393 114 q 651 144 599 114 q 728 230 704 175 q 753 361 753 285 l 753 992 l 901 992 l 901 350 m 483 1307 q 524 1238 500 1276 q 576 1164 549 1200 q 625 1101 603 1128 l 625 1085 l 525 1085 q 470 1131 501 1104 q 408 1188 439 1158 q 352 1246 378 1218 q 311 1293 326 1274 l 311 1307 l 483 1307 z "},"Ú":{"ha":1025,"x_min":124,"x_max":901,"o":"m 901 350 q 859 165 901 247 q 729 34 817 82 q 508 -14 642 -14 q 222 87 319 -14 q 124 353 124 188 l 124 992 l 274 992 l 274 360 q 333 176 274 238 q 515 114 393 114 q 651 144 599 114 q 728 230 704 175 q 753 361 753 285 l 753 992 l 901 992 l 901 350 m 732 1293 q 690 1246 717 1274 q 633 1188 664 1218 q 572 1131 603 1158 q 515 1085 542 1104 l 418 1085 l 418 1101 q 465 1164 439 1128 q 517 1238 492 1200 q 558 1307 542 1276 l 732 1307 l 732 1293 z "},"Û":{"ha":1025,"x_min":124,"x_max":901,"o":"m 901 350 q 859 165 901 247 q 729 34 817 82 q 508 -14 642 -14 q 222 87 319 -14 q 124 353 124 188 l 124 992 l 274 992 l 274 360 q 333 176 274 238 q 515 114 393 114 q 651 144 599 114 q 728 230 704 175 q 753 361 753 285 l 753 992 l 901 992 l 901 350 m 586 1307 q 635 1238 604 1276 q 700 1163 667 1200 q 760 1101 733 1126 l 760 1085 l 658 1085 q 585 1138 622 1107 q 510 1206 547 1169 q 436 1139 472 1169 q 364 1085 400 1108 l 264 1085 l 264 1101 q 323 1164 290 1128 q 386 1238 356 1200 q 436 1307 417 1276 l 586 1307 z "},"Ü":{"ha":1025,"x_min":124,"x_max":901,"o":"m 901 350 q 859 165 901 247 q 729 34 817 82 q 508 -14 642 -14 q 222 87 319 -14 q 124 353 124 188 l 124 992 l 274 992 l 274 360 q 333 176 274 238 q 515 114 393 114 q 651 144 599 114 q 728 230 704 175 q 753 361 753 285 l 753 992 l 901 992 l 901 350 m 303 1192 q 324 1249 303 1231 q 376 1267 346 1267 q 429 1249 407 1267 q 451 1192 451 1231 q 429 1134 451 1153 q 376 1115 407 1115 q 324 1134 346 1115 q 303 1192 303 1153 m 575 1192 q 597 1249 575 1231 q 649 1267 618 1267 q 701 1249 679 1267 q 724 1192 724 1231 q 701 1134 724 1153 q 649 1115 679 1115 q 597 1134 618 1115 q 575 1192 575 1153 z "},"Ý":{"ha":811,"x_min":0,"x_max":811,"o":"m 406 525 l 647 992 l 811 992 l 481 385 l 481 0 l 329 0 l 329 379 l 0 992 l 164 992 l 406 525 m 635 1293 q 593 1246 619 1274 q 536 1188 567 1218 q 475 1131 506 1158 q 418 1085 444 1104 l 321 1085 l 321 1101 q 368 1164 342 1128 q 419 1238 394 1200 q 461 1307 444 1276 l 635 1307 l 635 1293 z "},"Þ":{"ha":850,"x_min":132,"x_max":782,"o":"m 782 528 q 763 408 782 465 q 698 307 743 351 q 578 236 653 263 q 392 210 503 210 l 282 210 l 282 0 l 132 0 l 132 992 l 282 992 l 282 825 l 411 825 q 694 746 607 825 q 782 528 782 667 m 372 335 q 516 353 460 335 q 600 415 572 372 q 628 524 628 457 q 572 656 628 613 q 394 699 517 699 l 282 699 l 282 335 l 372 335 z "},"ß":{"ha":906,"x_min":114,"x_max":847,"o":"m 758 849 q 739 765 758 801 q 691 702 719 729 q 633 653 663 675 q 585 611 604 632 q 565 568 565 590 q 576 535 565 550 q 613 501 586 521 q 692 447 640 482 q 776 383 740 415 q 829 310 811 350 q 847 215 847 271 q 815 85 847 136 q 722 10 782 35 q 581 -14 661 -14 q 459 -2 510 -14 q 371 32 408 10 l 371 157 q 426 130 394 143 q 495 108 458 117 q 565 100 532 100 q 668 129 636 100 q 700 208 700 158 q 689 262 700 239 q 649 309 678 285 q 569 364 621 333 q 480 430 513 400 q 433 490 447 460 q 418 556 418 519 q 437 629 418 599 q 484 683 456 660 q 541 727 513 706 q 588 775 569 749 q 607 838 607 801 q 560 917 607 892 q 440 943 514 943 q 350 929 390 943 q 285 883 310 915 q 261 794 261 851 l 261 0 l 114 0 l 114 800 q 156 952 114 894 q 272 1036 199 1010 q 440 1063 346 1063 q 606 1039 535 1063 q 718 968 678 1015 q 758 849 758 921 z "},"à":{"ha":794,"x_min":61,"x_max":686,"o":"m 413 761 q 618 699 550 761 q 686 507 686 638 l 686 0 l 581 0 l 551 104 l 546 104 q 480 38 514 64 q 402 -1 446 11 q 296 -14 358 -14 q 176 10 229 -14 q 92 85 122 35 q 61 213 61 135 q 149 385 61 325 q 414 451 236 446 l 540 456 l 540 494 q 503 614 540 581 q 397 647 465 647 q 288 630 342 647 q 188 590 235 613 l 143 697 q 264 743 194 725 q 413 761 333 761 m 439 356 q 263 315 313 351 q 214 214 214 279 q 249 128 214 156 q 339 101 283 101 q 483 149 425 101 q 540 294 540 197 l 540 360 l 439 356 m 381 1064 q 422 995 397 1033 q 473 921 446 957 q 522 858 500 885 l 522 842 l 422 842 q 367 888 399 861 q 306 945 336 915 q 249 1003 275 975 q 208 1050 224 1031 l 208 1064 l 381 1064 z "},"á":{"ha":794,"x_min":61,"x_max":686,"o":"m 413 761 q 618 699 550 761 q 686 507 686 638 l 686 0 l 581 0 l 551 104 l 546 104 q 480 38 514 64 q 402 -1 446 11 q 296 -14 358 -14 q 176 10 229 -14 q 92 85 122 35 q 61 213 61 135 q 149 385 61 325 q 414 451 236 446 l 540 456 l 540 494 q 503 614 540 581 q 397 647 465 647 q 288 630 342 647 q 188 590 235 613 l 143 697 q 264 743 194 725 q 413 761 333 761 m 439 356 q 263 315 313 351 q 214 214 214 279 q 249 128 214 156 q 339 101 283 101 q 483 149 425 101 q 540 294 540 197 l 540 360 l 439 356 m 626 1050 q 585 1003 611 1031 q 528 945 558 975 q 467 888 497 915 q 410 842 436 861 l 313 842 l 313 858 q 360 921 333 885 q 411 995 386 957 q 453 1064 436 1033 l 626 1064 l 626 1050 z "},"â":{"ha":794,"x_min":61,"x_max":686,"o":"m 413 761 q 618 699 550 761 q 686 507 686 638 l 686 0 l 581 0 l 551 104 l 546 104 q 480 38 514 64 q 402 -1 446 11 q 296 -14 358 -14 q 176 10 229 -14 q 92 85 122 35 q 61 213 61 135 q 149 385 61 325 q 414 451 236 446 l 540 456 l 540 494 q 503 614 540 581 q 397 647 465 647 q 288 630 342 647 q 188 590 235 613 l 143 697 q 264 743 194 725 q 413 761 333 761 m 439 356 q 263 315 313 351 q 214 214 214 279 q 249 128 214 156 q 339 101 283 101 q 483 149 425 101 q 540 294 540 197 l 540 360 l 439 356 m 472 1064 q 522 995 490 1033 q 586 920 553 957 q 646 858 619 883 l 646 842 l 544 842 q 471 895 508 864 q 396 963 433 926 q 322 896 358 926 q 250 842 286 865 l 150 842 l 150 858 q 209 921 176 885 q 272 995 242 957 q 322 1064 303 1033 l 472 1064 z "},"ã":{"ha":794,"x_min":61,"x_max":686,"o":"m 413 761 q 618 699 550 761 q 686 507 686 638 l 686 0 l 581 0 l 551 104 l 546 104 q 480 38 514 64 q 402 -1 446 11 q 296 -14 358 -14 q 176 10 229 -14 q 92 85 122 35 q 61 213 61 135 q 149 385 61 325 q 414 451 236 446 l 540 456 l 540 494 q 503 614 540 581 q 397 647 465 647 q 288 630 342 647 q 188 590 235 613 l 143 697 q 264 743 194 725 q 413 761 333 761 m 439 356 q 263 315 313 351 q 214 214 214 279 q 249 128 214 156 q 339 101 283 101 q 483 149 425 101 q 540 294 540 197 l 540 360 l 439 356 m 139 842 q 156 921 143 886 q 190 979 169 956 q 239 1015 211 1003 q 301 1028 267 1028 q 359 1017 331 1028 q 413 990 388 1006 q 464 963 439 975 q 511 951 489 951 q 558 971 540 951 q 585 1029 576 990 l 664 1029 q 613 892 656 942 q 503 843 569 843 q 447 854 474 843 q 392 881 419 865 q 341 908 365 897 q 293 919 317 919 q 245 900 263 919 q 218 842 228 881 l 139 842 z "},"ä":{"ha":794,"x_min":61,"x_max":686,"o":"m 413 761 q 618 699 550 761 q 686 507 686 638 l 686 0 l 581 0 l 551 104 l 546 104 q 480 38 514 64 q 402 -1 446 11 q 296 -14 358 -14 q 176 10 229 -14 q 92 85 122 35 q 61 213 61 135 q 149 385 61 325 q 414 451 236 446 l 540 456 l 540 494 q 503 614 540 581 q 397 647 465 647 q 288 630 342 647 q 188 590 235 613 l 143 697 q 264 743 194 725 q 413 761 333 761 m 439 356 q 263 315 313 351 q 214 214 214 279 q 249 128 214 156 q 339 101 283 101 q 483 149 425 101 q 540 294 540 197 l 540 360 l 439 356 m 189 949 q 210 1006 189 988 q 263 1024 232 1024 q 315 1006 293 1024 q 338 949 338 988 q 315 891 338 910 q 263 872 293 872 q 210 891 232 872 q 189 949 189 910 m 461 949 q 483 1006 461 988 q 535 1024 504 1024 q 588 1006 565 1024 q 610 949 610 988 q 588 891 610 910 q 535 872 565 872 q 483 891 504 872 q 461 949 461 910 z "},"å":{"ha":794,"x_min":61,"x_max":686,"o":"m 413 761 q 618 699 550 761 q 686 507 686 638 l 686 0 l 581 0 l 551 104 l 546 104 q 480 38 514 64 q 402 -1 446 11 q 296 -14 358 -14 q 176 10 229 -14 q 92 85 122 35 q 61 213 61 135 q 149 385 61 325 q 414 451 236 446 l 540 456 l 540 494 q 503 614 540 581 q 397 647 465 647 q 288 630 342 647 q 188 590 235 613 l 143 697 q 264 743 194 725 q 413 761 333 761 m 439 356 q 263 315 313 351 q 214 214 214 279 q 249 128 214 156 q 339 101 283 101 q 483 149 425 101 q 540 294 540 197 l 540 360 l 439 356 m 397 842 q 283 881 326 842 q 240 993 240 921 q 283 1103 240 1064 q 397 1143 326 1143 q 510 1103 464 1143 q 557 994 557 1064 q 511 881 557 921 q 397 842 465 842 m 397 918 q 450 938 429 918 q 471 993 471 958 q 449 1047 471 1026 q 397 1067 428 1067 q 344 1047 365 1067 q 322 993 322 1026 q 342 938 322 958 q 397 918 361 918 z "},"æ":{"ha":1222,"x_min":63,"x_max":1154,"o":"m 853 763 q 1013 722 944 763 q 1117 605 1081 681 q 1154 426 1154 529 l 1154 343 l 674 343 q 730 165 676 224 q 881 106 783 106 q 1006 119 950 106 q 1118 158 1063 132 l 1118 36 q 1006 -1 1063 11 q 875 -14 950 -14 q 758 3 813 -14 q 662 53 704 19 q 589 138 619 88 q 516 56 556 90 q 425 4 476 22 q 300 -14 374 -14 q 180 10 233 -14 q 94 85 126 35 q 63 213 63 136 q 99 341 63 289 q 211 421 136 393 q 397 451 286 449 l 524 456 l 524 506 q 485 615 524 583 q 381 647 447 647 q 274 631 326 647 q 174 592 221 615 l 128 697 q 250 744 179 726 q 392 763 321 763 q 532 735 475 763 q 621 651 589 708 q 718 733 660 704 q 853 763 776 763 m 426 357 q 260 315 307 351 q 214 211 214 278 q 247 126 214 153 q 333 100 279 100 q 429 122 386 100 q 497 186 472 143 q 522 294 522 229 l 522 360 l 426 357 m 851 649 q 728 599 774 649 q 676 451 683 549 l 1006 451 q 989 554 1006 510 q 938 624 972 599 q 851 649 904 649 z "},"ç":{"ha":682,"x_min":74,"x_max":638,"o":"m 421 -14 q 241 26 319 -14 q 118 152 163 67 q 74 371 74 238 q 120 595 74 508 q 248 722 167 682 q 432 763 329 763 q 546 750 492 763 q 638 719 600 738 l 593 600 q 513 626 557 615 q 429 638 469 638 q 315 608 361 638 q 247 519 269 578 q 225 372 225 460 q 248 228 225 286 q 315 140 271 169 q 424 111 358 111 q 533 124 485 111 q 622 158 582 138 l 622 32 q 535 -2 583 10 q 421 -14 488 -14 m 542 -189 q 491 -295 542 -257 q 340 -333 440 -333 q 292 -331 314 -333 q 256 -324 269 -328 l 256 -237 q 292 -243 271 -240 q 333 -246 313 -246 q 403 -233 379 -246 q 426 -189 426 -221 q 392 -138 426 -154 q 306 -115 358 -122 l 363 0 l 451 0 l 419 -68 q 481 -90 453 -75 q 525 -128 508 -104 q 542 -189 542 -151 z "},"è":{"ha":797,"x_min":74,"x_max":728,"o":"m 411 763 q 581 722 510 763 q 690 604 653 681 q 728 424 728 528 l 728 342 l 225 342 q 286 167 228 228 q 450 106 344 106 q 576 119 521 106 q 692 158 632 132 l 692 36 q 578 -1 635 11 q 440 -14 521 -14 q 249 28 332 -14 q 120 157 167 71 q 74 369 74 243 q 115 582 74 494 q 233 716 157 669 q 411 763 310 763 m 413 649 q 285 597 332 649 q 228 451 238 546 l 581 451 q 562 554 581 511 q 506 623 543 597 q 413 649 469 649 m 383 1064 q 424 995 400 1033 q 476 921 449 957 q 525 858 503 885 l 525 842 l 425 842 q 370 888 401 861 q 308 945 339 915 q 252 1003 278 975 q 211 1050 226 1031 l 211 1064 l 383 1064 z "},"é":{"ha":797,"x_min":74,"x_max":728,"o":"m 411 763 q 581 722 510 763 q 690 604 653 681 q 728 424 728 528 l 728 342 l 225 342 q 286 167 228 228 q 450 106 344 106 q 576 119 521 106 q 692 158 632 132 l 692 36 q 578 -1 635 11 q 440 -14 521 -14 q 249 28 332 -14 q 120 157 167 71 q 74 369 74 243 q 115 582 74 494 q 233 716 157 669 q 411 763 310 763 m 413 649 q 285 597 332 649 q 228 451 238 546 l 581 451 q 562 554 581 511 q 506 623 543 597 q 413 649 469 649 m 631 1050 q 589 1003 615 1031 q 532 945 563 975 q 471 888 501 915 q 414 842 440 861 l 317 842 l 317 858 q 364 921 338 885 q 415 995 390 957 q 457 1064 440 1033 l 631 1064 l 631 1050 z "},"ê":{"ha":797,"x_min":74,"x_max":728,"o":"m 411 763 q 581 722 510 763 q 690 604 653 681 q 728 424 728 528 l 728 342 l 225 342 q 286 167 228 228 q 450 106 344 106 q 576 119 521 106 q 692 158 632 132 l 692 36 q 578 -1 635 11 q 440 -14 521 -14 q 249 28 332 -14 q 120 157 167 71 q 74 369 74 243 q 115 582 74 494 q 233 716 157 669 q 411 763 310 763 m 413 649 q 285 597 332 649 q 228 451 238 546 l 581 451 q 562 554 581 511 q 506 623 543 597 q 413 649 469 649 m 476 1064 q 526 995 494 1033 q 590 920 557 957 q 650 858 624 883 l 650 842 l 549 842 q 475 895 513 864 q 400 963 438 926 q 326 896 363 926 q 254 842 290 865 l 154 842 l 154 858 q 213 921 181 885 q 276 995 246 957 q 326 1064 307 1033 l 476 1064 z "},"ë":{"ha":797,"x_min":74,"x_max":728,"o":"m 411 763 q 581 722 510 763 q 690 604 653 681 q 728 424 728 528 l 728 342 l 225 342 q 286 167 228 228 q 450 106 344 106 q 576 119 521 106 q 692 158 632 132 l 692 36 q 578 -1 635 11 q 440 -14 521 -14 q 249 28 332 -14 q 120 157 167 71 q 74 369 74 243 q 115 582 74 494 q 233 716 157 669 q 411 763 310 763 m 413 649 q 285 597 332 649 q 228 451 238 546 l 581 451 q 562 554 581 511 q 506 623 543 597 q 413 649 469 649 m 193 949 q 215 1006 193 988 q 267 1024 236 1024 q 319 1006 297 1024 q 342 949 342 988 q 319 891 342 910 q 267 872 297 872 q 215 891 236 872 q 193 949 193 910 m 465 949 q 487 1006 465 988 q 539 1024 508 1024 q 592 1006 569 1024 q 614 949 614 988 q 592 891 614 910 q 539 872 569 872 q 487 891 508 872 q 465 949 465 910 z "},"ì":{"ha":375,"x_min":-3,"x_max":311,"o":"m 261 0 l 114 0 l 114 749 l 261 749 l 261 0 m 169 1064 q 210 995 186 1033 q 262 921 235 957 q 311 858 289 885 l 311 842 l 211 842 q 156 888 188 861 q 94 945 125 915 q 38 1003 64 975 q -3 1050 13 1031 l -3 1064 l 169 1064 z "},"í":{"ha":375,"x_min":103,"x_max":415,"o":"m 261 0 l 114 0 l 114 749 l 261 749 l 261 0 m 417 1050 q 375 1003 401 1031 q 318 945 349 975 q 257 888 288 915 q 200 842 226 861 l 103 842 l 103 858 q 150 921 124 885 q 201 995 176 957 q 243 1064 226 1033 l 417 1064 l 417 1050 z "},"î":{"ha":375,"x_min":-60,"x_max":436,"o":"m 261 0 l 114 0 l 114 749 l 261 749 l 261 0 m 263 1064 q 312 995 281 1033 q 376 920 343 957 q 436 858 410 883 l 436 842 l 335 842 q 261 895 299 864 q 186 963 224 926 q 113 896 149 926 q 40 842 76 865 l -60 842 l -60 858 q -1 921 -33 885 q 63 995 32 957 q 113 1064 93 1033 l 263 1064 z "},"ï":{"ha":375,"x_min":-22,"x_max":399,"o":"m 261 0 l 114 0 l 114 749 l 261 749 l 261 0 m -22 949 q -1 1006 -22 988 q 51 1024 21 1024 q 104 1006 82 1024 q 126 949 126 988 q 104 891 126 910 q 51 872 82 872 q -1 891 21 872 q -22 949 -22 910 m 250 949 q 272 1006 250 988 q 324 1024 293 1024 q 376 1006 354 1024 q 399 949 399 988 q 376 891 399 910 q 324 872 354 872 q 272 891 293 872 q 250 949 250 910 z "},"ð":{"ha":849,"x_min":74,"x_max":776,"o":"m 304 1064 q 395 1017 350 1042 q 481 965 440 993 l 638 1058 l 694 974 l 564 897 q 675 760 628 838 q 749 590 722 683 q 776 383 776 496 q 733 164 776 253 q 611 31 690 75 q 422 -14 532 -14 q 242 27 321 -14 q 118 144 163 68 q 74 326 74 221 q 115 507 74 432 q 228 622 156 582 q 400 663 301 663 q 487 654 447 663 q 556 629 526 646 q 607 586 586 613 l 613 589 q 549 722 590 661 q 454 832 507 782 l 283 732 l 226 817 l 371 901 q 312 938 343 919 q 250 972 281 957 l 304 1064 m 425 547 q 310 522 354 547 q 244 447 265 496 q 224 324 224 397 q 244 208 224 258 q 310 131 265 158 q 425 103 356 103 q 578 167 531 103 q 626 353 626 231 q 614 427 626 392 q 576 490 601 463 q 514 532 551 517 q 425 547 476 547 z "},"ñ":{"ha":871,"x_min":114,"x_max":763,"o":"m 493 763 q 694 698 625 763 q 763 488 763 633 l 763 0 l 617 0 l 617 467 q 579 597 617 554 q 463 640 542 640 q 305 573 349 640 q 261 378 261 506 l 261 0 l 114 0 l 114 749 l 231 749 l 251 647 l 258 647 q 320 712 283 686 q 401 750 357 738 q 493 763 446 763 m 176 842 q 194 921 181 886 q 228 979 207 956 q 276 1015 249 1003 q 339 1028 304 1028 q 397 1017 368 1028 q 451 990 425 1006 q 501 963 476 975 q 549 951 526 951 q 596 971 578 951 q 622 1029 614 990 l 701 1029 q 650 892 693 942 q 540 843 607 843 q 484 854 511 843 q 430 881 457 865 q 378 908 403 897 q 331 919 354 919 q 283 900 300 919 q 256 842 265 881 l 176 842 z "},"ò":{"ha":849,"x_min":74,"x_max":776,"o":"m 776 376 q 751 210 776 282 q 681 88 726 138 q 569 12 635 38 q 422 -14 503 -14 q 283 12 347 -14 q 172 88 219 38 q 99 210 125 138 q 74 376 74 282 q 116 586 74 500 q 238 717 158 672 q 426 763 317 763 q 608 717 529 763 q 731 586 686 672 q 776 376 776 500 m 225 376 q 246 231 225 292 q 311 137 267 169 q 425 104 356 104 q 538 137 494 104 q 603 231 582 169 q 624 376 624 292 q 602 520 624 461 q 537 611 581 579 q 424 643 493 643 q 272 572 319 643 q 225 376 225 501 m 407 1064 q 448 995 424 1033 q 499 921 472 957 q 549 858 526 885 l 549 842 l 449 842 q 394 888 425 861 q 332 945 363 915 q 276 1003 301 975 q 235 1050 250 1031 l 235 1064 l 407 1064 z "},"ó":{"ha":849,"x_min":74,"x_max":776,"o":"m 776 376 q 751 210 776 282 q 681 88 726 138 q 569 12 635 38 q 422 -14 503 -14 q 283 12 347 -14 q 172 88 219 38 q 99 210 125 138 q 74 376 74 282 q 116 586 74 500 q 238 717 158 672 q 426 763 317 763 q 608 717 529 763 q 731 586 686 672 q 776 376 776 500 m 225 376 q 246 231 225 292 q 311 137 267 169 q 425 104 356 104 q 538 137 494 104 q 603 231 582 169 q 624 376 624 292 q 602 520 624 461 q 537 611 581 579 q 424 643 493 643 q 272 572 319 643 q 225 376 225 501 m 654 1050 q 613 1003 639 1031 q 556 945 586 975 q 494 888 525 915 q 438 842 464 861 l 340 842 l 340 858 q 388 921 361 885 q 439 995 414 957 q 481 1064 464 1033 l 654 1064 l 654 1050 z "},"ô":{"ha":849,"x_min":74,"x_max":776,"o":"m 776 376 q 751 210 776 282 q 681 88 726 138 q 569 12 635 38 q 422 -14 503 -14 q 283 12 347 -14 q 172 88 219 38 q 99 210 125 138 q 74 376 74 282 q 116 586 74 500 q 238 717 158 672 q 426 763 317 763 q 608 717 529 763 q 731 586 686 672 q 776 376 776 500 m 225 376 q 246 231 225 292 q 311 137 267 169 q 425 104 356 104 q 538 137 494 104 q 603 231 582 169 q 624 376 624 292 q 602 520 624 461 q 537 611 581 579 q 424 643 493 643 q 272 572 319 643 q 225 376 225 501 m 500 1064 q 549 995 518 1033 q 614 920 581 957 q 674 858 647 883 l 674 842 l 572 842 q 499 895 536 864 q 424 963 461 926 q 350 896 386 926 q 278 842 314 865 l 178 842 l 178 858 q 237 921 204 885 q 300 995 269 957 q 350 1064 331 1033 l 500 1064 z "},"õ":{"ha":849,"x_min":74,"x_max":776,"o":"m 776 376 q 751 210 776 282 q 681 88 726 138 q 569 12 635 38 q 422 -14 503 -14 q 283 12 347 -14 q 172 88 219 38 q 99 210 125 138 q 74 376 74 282 q 116 586 74 500 q 238 717 158 672 q 426 763 317 763 q 608 717 529 763 q 731 586 686 672 q 776 376 776 500 m 225 376 q 246 231 225 292 q 311 137 267 169 q 425 104 356 104 q 538 137 494 104 q 603 231 582 169 q 624 376 624 292 q 602 520 624 461 q 537 611 581 579 q 424 643 493 643 q 272 572 319 643 q 225 376 225 501 m 165 842 q 183 921 169 886 q 217 979 196 956 q 265 1015 238 1003 q 328 1028 293 1028 q 385 1017 357 1028 q 440 990 414 1006 q 490 963 465 975 q 538 951 515 951 q 585 971 567 951 q 611 1029 603 990 l 690 1029 q 639 892 682 942 q 529 843 596 843 q 473 854 500 843 q 419 881 446 865 q 367 908 392 897 q 319 919 343 919 q 272 900 289 919 q 244 842 254 881 l 165 842 z "},"ö":{"ha":849,"x_min":74,"x_max":776,"o":"m 776 376 q 751 210 776 282 q 681 88 726 138 q 569 12 635 38 q 422 -14 503 -14 q 283 12 347 -14 q 172 88 219 38 q 99 210 125 138 q 74 376 74 282 q 116 586 74 500 q 238 717 158 672 q 426 763 317 763 q 608 717 529 763 q 731 586 686 672 q 776 376 776 500 m 225 376 q 246 231 225 292 q 311 137 267 169 q 425 104 356 104 q 538 137 494 104 q 603 231 582 169 q 624 376 624 292 q 602 520 624 461 q 537 611 581 579 q 424 643 493 643 q 272 572 319 643 q 225 376 225 501 m 215 949 q 237 1006 215 988 q 289 1024 258 1024 q 342 1006 319 1024 q 364 949 364 988 q 342 891 364 910 q 289 872 319 872 q 237 891 258 872 q 215 949 215 910 m 488 949 q 509 1006 488 988 q 561 1024 531 1024 q 614 1006 592 1024 q 636 949 636 988 q 614 891 636 910 q 561 872 592 872 q 509 891 531 872 q 488 949 488 910 z "},"÷":{"ha":794,"x_min":67,"x_max":726,"o":"m 67 433 l 67 546 l 726 546 l 726 433 l 67 433 m 396 163 q 338 184 363 163 q 313 253 313 206 q 338 322 313 303 q 396 342 363 342 q 453 322 429 342 q 478 253 478 303 q 453 184 478 206 q 396 163 429 163 m 396 636 q 338 658 363 636 q 313 726 313 679 q 338 796 313 776 q 396 815 363 815 q 453 796 429 815 q 478 726 478 776 q 453 658 478 679 q 396 636 429 636 z "},"ø":{"ha":846,"x_min":72,"x_max":775,"o":"m 775 375 q 732 164 775 251 q 610 31 689 76 q 421 -14 531 -14 q 329 -3 372 -14 q 247 28 286 8 l 196 -47 l 108 11 l 165 93 q 97 214 121 143 q 72 375 72 285 q 167 662 72 561 q 425 763 261 763 q 519 751 475 763 q 603 717 564 739 l 653 788 l 740 729 l 685 651 q 751 532 726 601 q 775 375 775 463 m 224 375 q 230 289 224 329 q 251 217 236 249 l 529 613 q 482 633 510 625 q 422 640 454 640 q 271 571 318 640 q 224 375 224 501 m 624 375 q 617 457 624 419 q 599 525 610 494 l 321 132 q 368 113 342 119 q 424 107 394 107 q 538 139 493 107 q 603 231 582 171 q 624 375 624 292 z "},"ù":{"ha":871,"x_min":106,"x_max":758,"o":"m 758 749 l 758 0 l 640 0 l 619 99 l 613 99 q 551 35 589 60 q 469 -2 514 10 q 376 -14 425 -14 q 230 15 290 -14 q 138 103 169 43 q 106 258 106 164 l 106 749 l 256 749 l 256 281 q 292 151 256 194 q 407 107 329 107 q 529 138 485 107 q 592 227 574 168 q 610 371 610 286 l 610 749 l 758 749 m 418 1064 q 459 995 435 1033 q 510 921 483 957 q 560 858 538 885 l 560 842 l 460 842 q 405 888 436 861 q 343 945 374 915 q 287 1003 313 975 q 246 1050 261 1031 l 246 1064 l 418 1064 z "},"ú":{"ha":871,"x_min":106,"x_max":758,"o":"m 758 749 l 758 0 l 640 0 l 619 99 l 613 99 q 551 35 589 60 q 469 -2 514 10 q 376 -14 425 -14 q 230 15 290 -14 q 138 103 169 43 q 106 258 106 164 l 106 749 l 256 749 l 256 281 q 292 151 256 194 q 407 107 329 107 q 529 138 485 107 q 592 227 574 168 q 610 371 610 286 l 610 749 l 758 749 m 664 1050 q 622 1003 649 1031 q 565 945 596 975 q 504 888 535 915 q 447 842 474 861 l 350 842 l 350 858 q 397 921 371 885 q 449 995 424 957 q 490 1064 474 1033 l 664 1064 l 664 1050 z "},"û":{"ha":871,"x_min":106,"x_max":758,"o":"m 758 749 l 758 0 l 640 0 l 619 99 l 613 99 q 551 35 589 60 q 469 -2 514 10 q 376 -14 425 -14 q 230 15 290 -14 q 138 103 169 43 q 106 258 106 164 l 106 749 l 256 749 l 256 281 q 292 151 256 194 q 407 107 329 107 q 529 138 485 107 q 592 227 574 168 q 610 371 610 286 l 610 749 l 758 749 m 510 1064 q 559 995 528 1033 q 624 920 590 957 q 683 858 657 883 l 683 842 l 582 842 q 508 895 546 864 q 433 963 471 926 q 360 896 396 926 q 288 842 324 865 l 188 842 l 188 858 q 247 921 214 885 q 310 995 279 957 q 360 1064 340 1033 l 510 1064 z "},"ü":{"ha":871,"x_min":106,"x_max":758,"o":"m 758 749 l 758 0 l 640 0 l 619 99 l 613 99 q 551 35 589 60 q 469 -2 514 10 q 376 -14 425 -14 q 230 15 290 -14 q 138 103 169 43 q 106 258 106 164 l 106 749 l 256 749 l 256 281 q 292 151 256 194 q 407 107 329 107 q 529 138 485 107 q 592 227 574 168 q 610 371 610 286 l 610 749 l 758 749 m 226 949 q 248 1006 226 988 q 300 1024 269 1024 q 353 1006 331 1024 q 375 949 375 988 q 353 891 375 910 q 300 872 331 872 q 248 891 269 872 q 226 949 226 910 m 499 949 q 520 1006 499 988 q 572 1024 542 1024 q 625 1006 603 1024 q 647 949 647 988 q 625 891 647 910 q 572 872 603 872 q 520 891 542 872 q 499 949 499 910 z "},"ý":{"ha":733,"x_min":1,"x_max":733,"o":"m 1 749 l 158 749 l 314 322 q 335 258 325 289 q 354 198 346 228 q 367 140 363 168 l 372 140 q 396 224 381 174 q 428 324 411 274 l 576 749 l 733 749 l 415 -93 q 350 -221 388 -167 q 259 -304 313 -275 q 128 -333 206 -333 q 69 -330 94 -333 q 25 -322 43 -326 l 25 -206 q 62 -211 40 -208 q 107 -214 83 -214 q 181 -197 150 -214 q 233 -151 211 -181 q 269 -82 254 -121 l 301 0 l 1 749 m 596 1050 q 554 1003 581 1031 q 497 945 528 975 q 436 888 467 915 q 379 842 406 861 l 282 842 l 282 858 q 329 921 303 885 q 381 995 356 957 q 422 1064 406 1033 l 596 1064 l 596 1050 z "},"þ":{"ha":861,"x_min":114,"x_max":788,"o":"m 788 376 q 750 161 788 249 q 644 30 713 74 q 486 -14 576 -14 q 388 0 431 -14 q 314 38 344 14 q 261 90 283 63 l 253 90 q 256 59 254 81 q 260 15 258 38 q 261 -24 261 -8 l 261 -333 l 114 -333 l 114 1056 l 261 1056 l 261 758 q 259 700 261 732 q 256 649 257 668 l 263 649 q 315 706 283 681 q 388 747 346 732 q 489 763 431 763 q 705 665 622 763 q 788 376 788 567 m 636 378 q 592 574 636 508 q 453 640 549 640 q 307 581 350 640 q 261 401 264 521 l 261 376 q 303 178 261 247 q 456 108 344 108 q 558 140 518 108 q 617 231 597 171 q 636 378 636 292 z "},"ÿ":{"ha":733,"x_min":1,"x_max":733,"o":"m 1 749 l 158 749 l 314 322 q 335 258 325 289 q 354 198 346 228 q 367 140 363 168 l 372 140 q 396 224 381 174 q 428 324 411 274 l 576 749 l 733 749 l 415 -93 q 350 -221 388 -167 q 259 -304 313 -275 q 128 -333 206 -333 q 69 -330 94 -333 q 25 -322 43 -326 l 25 -206 q 62 -211 40 -208 q 107 -214 83 -214 q 181 -197 150 -214 q 233 -151 211 -181 q 269 -82 254 -121 l 301 0 l 1 749 m 157 949 q 178 1006 157 988 q 231 1024 200 1024 q 283 1006 261 1024 q 306 949 306 988 q 283 891 306 910 q 231 872 261 872 q 178 891 200 872 q 157 949 157 910 m 429 949 q 451 1006 429 988 q 503 1024 472 1024 q 556 1006 533 1024 q 578 949 578 988 q 556 891 578 910 q 503 872 533 872 q 451 891 472 872 q 429 949 429 910 z "},"Ā":{"ha":910,"x_min":0,"x_max":908,"o":"m 750 0 l 643 285 l 263 285 l 157 0 l 0 0 l 376 996 l 532 996 l 908 0 l 750 0 m 503 692 q 488 738 499 706 q 468 806 478 771 q 453 861 458 840 q 438 799 446 832 q 421 739 429 767 q 407 692 413 711 l 307 415 l 601 415 l 503 692 m 665 1194 l 665 1085 l 239 1085 l 239 1194 l 665 1194 z "},"ā":{"ha":794,"x_min":61,"x_max":686,"o":"m 413 761 q 618 699 550 761 q 686 507 686 638 l 686 0 l 581 0 l 551 104 l 546 104 q 480 38 514 64 q 402 -1 446 11 q 296 -14 358 -14 q 176 10 229 -14 q 92 85 122 35 q 61 213 61 135 q 149 385 61 325 q 414 451 236 446 l 540 456 l 540 494 q 503 614 540 581 q 397 647 465 647 q 288 630 342 647 q 188 590 235 613 l 143 697 q 264 743 194 725 q 413 761 333 761 m 439 356 q 263 315 313 351 q 214 214 214 279 q 249 128 214 156 q 339 101 283 101 q 483 149 425 101 q 540 294 540 197 l 540 360 l 439 356 m 611 951 l 611 842 l 185 842 l 185 951 l 611 951 z "},"Ă":{"ha":910,"x_min":0,"x_max":908,"o":"m 750 0 l 643 285 l 263 285 l 157 0 l 0 0 l 376 996 l 532 996 l 908 0 l 750 0 m 503 692 q 488 738 499 706 q 468 806 478 771 q 453 861 458 840 q 438 799 446 832 q 421 739 429 767 q 407 692 413 711 l 307 415 l 601 415 l 503 692 m 689 1283 q 655 1180 685 1225 q 574 1110 625 1135 q 454 1085 524 1085 q 289 1139 346 1085 q 226 1283 232 1193 l 314 1283 q 336 1227 318 1246 q 385 1203 354 1208 q 457 1197 415 1197 q 522 1203 492 1197 q 574 1228 553 1210 q 600 1283 596 1247 l 689 1283 z "},"ă":{"ha":794,"x_min":61,"x_max":686,"o":"m 413 761 q 618 699 550 761 q 686 507 686 638 l 686 0 l 581 0 l 551 104 l 546 104 q 480 38 514 64 q 402 -1 446 11 q 296 -14 358 -14 q 176 10 229 -14 q 92 85 122 35 q 61 213 61 135 q 149 385 61 325 q 414 451 236 446 l 540 456 l 540 494 q 503 614 540 581 q 397 647 465 647 q 288 630 342 647 q 188 590 235 613 l 143 697 q 264 743 194 725 q 413 761 333 761 m 439 356 q 263 315 313 351 q 214 214 214 279 q 249 128 214 156 q 339 101 283 101 q 483 149 425 101 q 540 294 540 197 l 540 360 l 439 356 m 633 1040 q 599 937 629 982 q 519 867 569 892 q 399 842 468 842 q 233 896 290 842 q 171 1040 176 950 l 258 1040 q 281 984 263 1003 q 329 960 299 965 q 401 954 360 954 q 467 960 436 954 q 519 985 497 967 q 544 1040 540 1004 l 633 1040 z "},"Ą":{"ha":910,"x_min":0,"x_max":908,"o":"m 750 0 l 643 285 l 263 285 l 157 0 l 0 0 l 376 996 l 532 996 l 908 0 l 750 0 m 503 692 q 488 738 499 706 q 468 806 478 771 q 453 861 458 840 q 438 799 446 832 q 421 739 429 767 q 407 692 413 711 l 307 415 l 601 415 l 503 692 m 774 -157 q 790 -201 774 -186 q 835 -215 807 -215 q 875 -212 857 -215 q 904 -207 893 -208 l 904 -297 q 863 -307 885 -303 q 813 -311 842 -311 q 699 -275 738 -311 q 661 -175 661 -239 q 680 -100 661 -136 q 730 -32 699 -64 q 794 24 761 0 l 868 0 q 797 -80 821 -44 q 774 -157 774 -115 z "},"ą":{"ha":794,"x_min":61,"x_max":715,"o":"m 413 761 q 618 699 550 761 q 686 507 686 638 l 686 0 l 581 0 l 551 104 l 546 104 q 480 38 514 64 q 402 -1 446 11 q 296 -14 358 -14 q 176 10 229 -14 q 92 85 122 35 q 61 213 61 135 q 149 385 61 325 q 414 451 236 446 l 540 456 l 540 494 q 503 614 540 581 q 397 647 465 647 q 288 630 342 647 q 188 590 235 613 l 143 697 q 264 743 194 725 q 413 761 333 761 m 439 356 q 263 315 313 351 q 214 214 214 279 q 249 128 214 156 q 339 101 283 101 q 483 149 425 101 q 540 294 540 197 l 540 360 l 439 356 m 585 -157 q 601 -201 585 -186 q 646 -215 618 -215 q 686 -212 668 -215 q 715 -207 704 -208 l 715 -297 q 674 -307 696 -303 q 624 -311 653 -311 q 510 -275 549 -311 q 472 -175 472 -239 q 491 -100 472 -136 q 541 -32 510 -64 q 606 24 572 0 l 679 0 q 608 -80 632 -44 q 585 -157 585 -115 z "},"Ć":{"ha":882,"x_min":82,"x_max":839,"o":"m 558 876 q 426 851 485 876 q 325 775 367 825 q 262 654 283 725 q 240 494 240 583 q 276 292 240 378 q 382 161 311 207 q 560 115 453 115 q 684 128 625 115 q 800 158 743 140 l 800 29 q 681 -3 742 7 q 539 -14 621 -14 q 285 49 386 -14 q 133 226 183 111 q 82 496 82 342 q 113 702 82 608 q 205 864 144 796 q 355 969 265 932 q 560 1006 444 1006 q 707 990 635 1006 q 839 946 779 975 l 783 821 q 680 860 736 843 q 558 876 624 876 m 753 1293 q 711 1246 738 1274 q 654 1188 685 1218 q 593 1131 624 1158 q 536 1085 563 1104 l 439 1085 l 439 1101 q 486 1164 460 1128 q 538 1238 513 1200 q 579 1307 563 1276 l 753 1307 l 753 1293 z "},"ć":{"ha":682,"x_min":74,"x_max":638,"o":"m 421 -14 q 241 26 319 -14 q 118 152 163 67 q 74 371 74 238 q 120 595 74 508 q 248 722 167 682 q 432 763 329 763 q 546 750 492 763 q 638 719 600 738 l 593 600 q 513 626 557 615 q 429 638 469 638 q 315 608 361 638 q 247 519 269 578 q 225 372 225 460 q 248 228 225 286 q 315 140 271 169 q 424 111 358 111 q 533 124 485 111 q 622 158 582 138 l 622 32 q 535 -2 583 10 q 421 -14 488 -14 m 625 1050 q 583 1003 610 1031 q 526 945 557 975 q 465 888 496 915 q 408 842 435 861 l 311 842 l 311 858 q 358 921 332 885 q 410 995 385 957 q 451 1064 435 1033 l 625 1064 l 625 1050 z "},"Ĉ":{"ha":882,"x_min":82,"x_max":839,"o":"m 558 876 q 426 851 485 876 q 325 775 367 825 q 262 654 283 725 q 240 494 240 583 q 276 292 240 378 q 382 161 311 207 q 560 115 453 115 q 684 128 625 115 q 800 158 743 140 l 800 29 q 681 -3 742 7 q 539 -14 621 -14 q 285 49 386 -14 q 133 226 183 111 q 82 496 82 342 q 113 702 82 608 q 205 864 144 796 q 355 969 265 932 q 560 1006 444 1006 q 707 990 635 1006 q 839 946 779 975 l 783 821 q 680 860 736 843 q 558 876 624 876 m 599 1307 q 648 1238 617 1276 q 713 1163 679 1200 q 772 1101 746 1126 l 772 1085 l 671 1085 q 597 1138 635 1107 q 522 1206 560 1169 q 449 1139 485 1169 q 376 1085 413 1108 l 276 1085 l 276 1101 q 335 1164 303 1128 q 399 1238 368 1200 q 449 1307 429 1276 l 599 1307 z "},"ĉ":{"ha":682,"x_min":74,"x_max":644,"o":"m 421 -14 q 241 26 319 -14 q 118 152 163 67 q 74 371 74 238 q 120 595 74 508 q 248 722 167 682 q 432 763 329 763 q 546 750 492 763 q 638 719 600 738 l 593 600 q 513 626 557 615 q 429 638 469 638 q 315 608 361 638 q 247 519 269 578 q 225 372 225 460 q 248 228 225 286 q 315 140 271 169 q 424 111 358 111 q 533 124 485 111 q 622 158 582 138 l 622 32 q 535 -2 583 10 q 421 -14 488 -14 m 471 1064 q 520 995 489 1033 q 585 920 551 957 q 644 858 618 883 l 644 842 l 543 842 q 469 895 507 864 q 394 963 432 926 q 321 896 357 926 q 249 842 285 865 l 149 842 l 149 858 q 208 921 175 885 q 271 995 240 957 q 321 1064 301 1033 l 471 1064 z "},"Ċ":{"ha":882,"x_min":82,"x_max":839,"o":"m 558 876 q 426 851 485 876 q 325 775 367 825 q 262 654 283 725 q 240 494 240 583 q 276 292 240 378 q 382 161 311 207 q 560 115 453 115 q 684 128 625 115 q 800 158 743 140 l 800 29 q 681 -3 742 7 q 539 -14 621 -14 q 285 49 386 -14 q 133 226 183 111 q 82 496 82 342 q 113 702 82 608 q 205 864 144 796 q 355 969 265 932 q 560 1006 444 1006 q 707 990 635 1006 q 839 946 779 975 l 783 821 q 680 860 736 843 q 558 876 624 876 m 525 1276 q 583 1257 558 1276 q 608 1192 608 1238 q 583 1127 608 1147 q 525 1107 558 1107 q 465 1127 489 1107 q 440 1192 440 1147 q 465 1257 440 1238 q 525 1276 489 1276 z "},"ċ":{"ha":682,"x_min":74,"x_max":638,"o":"m 421 -14 q 241 26 319 -14 q 118 152 163 67 q 74 371 74 238 q 120 595 74 508 q 248 722 167 682 q 432 763 329 763 q 546 750 492 763 q 638 719 600 738 l 593 600 q 513 626 557 615 q 429 638 469 638 q 315 608 361 638 q 247 519 269 578 q 225 372 225 460 q 248 228 225 286 q 315 140 271 169 q 424 111 358 111 q 533 124 485 111 q 622 158 582 138 l 622 32 q 535 -2 583 10 q 421 -14 488 -14 m 399 1033 q 457 1014 432 1033 q 482 949 482 994 q 457 884 482 904 q 399 864 432 864 q 338 884 363 864 q 314 949 314 904 q 338 1014 314 994 q 399 1033 363 1033 z "},"Č":{"ha":882,"x_min":82,"x_max":839,"o":"m 558 876 q 426 851 485 876 q 325 775 367 825 q 262 654 283 725 q 240 494 240 583 q 276 292 240 378 q 382 161 311 207 q 560 115 453 115 q 684 128 625 115 q 800 158 743 140 l 800 29 q 681 -3 742 7 q 539 -14 621 -14 q 285 49 386 -14 q 133 226 183 111 q 82 496 82 342 q 113 702 82 608 q 205 864 144 796 q 355 969 265 932 q 560 1006 444 1006 q 707 990 635 1006 q 839 946 779 975 l 783 821 q 680 860 736 843 q 558 876 624 876 m 449 1085 q 399 1153 429 1117 q 335 1226 368 1190 q 276 1289 301 1263 l 276 1307 l 376 1307 q 452 1251 413 1283 q 526 1182 492 1219 q 603 1251 564 1219 q 679 1307 643 1283 l 781 1307 l 781 1289 q 722 1226 756 1263 q 656 1153 688 1190 q 607 1085 625 1117 l 449 1085 z "},"č":{"ha":682,"x_min":74,"x_max":654,"o":"m 421 -14 q 241 26 319 -14 q 118 152 163 67 q 74 371 74 238 q 120 595 74 508 q 248 722 167 682 q 432 763 329 763 q 546 750 492 763 q 638 719 600 738 l 593 600 q 513 626 557 615 q 429 638 469 638 q 315 608 361 638 q 247 519 269 578 q 225 372 225 460 q 248 228 225 286 q 315 140 271 169 q 424 111 358 111 q 533 124 485 111 q 622 158 582 138 l 622 32 q 535 -2 583 10 q 421 -14 488 -14 m 321 842 q 271 910 301 874 q 207 983 240 947 q 149 1046 174 1019 l 149 1064 l 249 1064 q 324 1008 285 1040 q 399 939 364 976 q 476 1008 436 976 q 551 1064 515 1040 l 653 1064 l 653 1046 q 594 983 628 1019 q 528 910 560 947 q 479 842 497 874 l 321 842 z "},"Ď":{"ha":1015,"x_min":129,"x_max":933,"o":"m 933 507 q 871 227 933 340 q 692 57 808 114 q 414 0 576 0 l 129 0 l 129 992 l 442 992 q 704 936 594 992 q 874 774 814 881 q 933 507 933 667 m 775 503 q 735 707 775 626 q 617 826 694 788 q 428 865 539 865 l 281 865 l 281 128 l 401 128 q 682 222 589 128 q 775 503 775 315 m 428 1085 q 378 1153 408 1117 q 314 1226 347 1190 q 256 1289 281 1263 l 256 1307 l 356 1307 q 431 1251 392 1283 q 506 1182 471 1219 q 583 1251 543 1219 q 658 1307 622 1283 l 760 1307 l 760 1289 q 701 1226 735 1263 q 635 1153 667 1190 q 586 1085 604 1117 l 428 1085 z "},"ď":{"ha":861,"x_min":74,"x_max":990,"o":"m 990 1043 q 966 980 982 1017 q 929 904 950 943 q 886 833 908 865 l 804 833 l 804 850 q 817 897 811 871 q 830 951 824 922 q 841 1006 836 979 q 849 1056 846 1033 l 990 1056 l 990 1043 m 372 -14 q 156 83 238 -14 q 74 372 74 181 q 156 664 74 565 q 375 763 239 763 q 475 748 433 763 q 548 708 517 733 q 601 653 579 683 l 608 653 q 603 710 607 672 q 600 775 600 749 l 600 1056 l 749 1056 l 749 0 l 631 0 l 606 100 l 600 100 q 547 42 578 68 q 473 1 515 17 q 372 -14 431 -14 m 408 107 q 560 167 517 107 q 604 349 604 228 l 604 371 q 563 571 604 501 q 407 640 521 640 q 271 568 317 640 q 225 369 225 496 q 271 175 225 243 q 408 107 317 107 z "},"Đ":{"ha":1015,"x_min":38,"x_max":933,"o":"m 442 992 q 703 936 593 992 q 873 774 813 881 q 933 507 933 667 q 871 227 933 340 q 692 57 808 114 q 413 0 576 0 l 138 0 l 138 426 l 38 426 l 38 554 l 138 554 l 138 992 l 442 992 m 428 865 l 289 865 l 289 554 l 517 554 l 517 426 l 289 426 l 289 128 l 401 128 q 683 222 590 128 q 775 503 775 315 q 734 707 775 626 q 616 826 693 788 q 428 865 539 865 z "},"đ":{"ha":868,"x_min":74,"x_max":853,"o":"m 371 -14 q 155 82 236 -14 q 74 364 74 178 q 157 653 74 558 q 375 747 240 747 q 475 733 432 747 q 549 693 518 718 q 603 638 581 668 l 610 638 q 603 693 607 654 q 600 761 600 732 l 600 832 l 329 832 l 329 936 l 600 936 l 600 1056 l 747 1056 l 747 936 l 853 936 l 853 832 l 747 832 l 747 0 l 626 0 l 601 100 l 594 100 q 542 42 574 68 q 469 1 511 17 q 371 -14 428 -14 m 411 107 q 561 165 518 107 q 604 342 604 224 l 604 364 q 562 559 604 493 q 408 625 519 625 q 276 556 321 625 q 231 363 231 488 q 275 175 231 243 q 411 107 319 107 z "},"Ē":{"ha":774,"x_min":132,"x_max":690,"o":"m 690 0 l 132 0 l 132 992 l 690 992 l 690 864 l 282 864 l 282 581 l 665 581 l 665 454 l 282 454 l 282 129 l 690 129 l 690 0 m 635 1194 l 635 1085 l 208 1085 l 208 1194 l 635 1194 z "},"ē":{"ha":797,"x_min":74,"x_max":728,"o":"m 411 763 q 581 722 510 763 q 690 604 653 681 q 728 424 728 528 l 728 342 l 225 342 q 286 167 228 228 q 450 106 344 106 q 576 119 521 106 q 692 158 632 132 l 692 36 q 578 -1 635 11 q 440 -14 521 -14 q 249 28 332 -14 q 120 157 167 71 q 74 369 74 243 q 115 582 74 494 q 233 716 157 669 q 411 763 310 763 m 413 649 q 285 597 332 649 q 228 451 238 546 l 581 451 q 562 554 581 511 q 506 623 543 597 q 413 649 469 649 m 614 951 l 614 842 l 188 842 l 188 951 l 614 951 z "},"Ĕ":{"ha":774,"x_min":132,"x_max":690,"o":"m 690 0 l 132 0 l 132 992 l 690 992 l 690 864 l 282 864 l 282 581 l 665 581 l 665 454 l 282 454 l 282 129 l 690 129 l 690 0 m 657 1283 q 623 1180 653 1225 q 542 1110 593 1135 q 422 1085 492 1085 q 257 1139 314 1085 q 194 1283 200 1193 l 282 1283 q 304 1227 286 1246 q 353 1203 322 1208 q 425 1197 383 1197 q 490 1203 460 1197 q 542 1228 521 1210 q 568 1283 564 1247 l 657 1283 z "},"ĕ":{"ha":797,"x_min":74,"x_max":728,"o":"m 411 763 q 581 722 510 763 q 690 604 653 681 q 728 424 728 528 l 728 342 l 225 342 q 286 167 228 228 q 450 106 344 106 q 576 119 521 106 q 692 158 632 132 l 692 36 q 578 -1 635 11 q 440 -14 521 -14 q 249 28 332 -14 q 120 157 167 71 q 74 369 74 243 q 115 582 74 494 q 233 716 157 669 q 411 763 310 763 m 413 649 q 285 597 332 649 q 228 451 238 546 l 581 451 q 562 554 581 511 q 506 623 543 597 q 413 649 469 649 m 638 1040 q 603 937 633 982 q 523 867 574 892 q 403 842 472 842 q 238 896 294 842 q 175 1040 181 950 l 263 1040 q 285 984 267 1003 q 333 960 303 965 q 406 954 364 954 q 471 960 440 954 q 523 985 501 967 q 549 1040 544 1004 l 638 1040 z "},"Ė":{"ha":774,"x_min":132,"x_max":690,"o":"m 690 0 l 132 0 l 132 992 l 690 992 l 690 864 l 282 864 l 282 581 l 665 581 l 665 454 l 282 454 l 282 129 l 690 129 l 690 0 m 424 1276 q 482 1257 457 1276 q 507 1192 507 1238 q 482 1127 507 1147 q 424 1107 457 1107 q 363 1127 388 1107 q 339 1192 339 1147 q 363 1257 339 1238 q 424 1276 388 1276 z "},"ė":{"ha":797,"x_min":74,"x_max":728,"o":"m 411 763 q 581 722 510 763 q 690 604 653 681 q 728 424 728 528 l 728 342 l 225 342 q 286 167 228 228 q 450 106 344 106 q 576 119 521 106 q 692 158 632 132 l 692 36 q 578 -1 635 11 q 440 -14 521 -14 q 249 28 332 -14 q 120 157 167 71 q 74 369 74 243 q 115 582 74 494 q 233 716 157 669 q 411 763 310 763 m 413 649 q 285 597 332 649 q 228 451 238 546 l 581 451 q 562 554 581 511 q 506 623 543 597 q 413 649 469 649 m 403 1033 q 461 1014 436 1033 q 486 949 486 994 q 461 884 486 904 q 403 864 436 864 q 342 884 367 864 q 318 949 318 904 q 342 1014 318 994 q 403 1033 367 1033 z "},"Ę":{"ha":774,"x_min":132,"x_max":690,"o":"m 690 0 l 132 0 l 132 992 l 690 992 l 690 864 l 282 864 l 282 581 l 665 581 l 665 454 l 282 454 l 282 129 l 690 129 l 690 0 m 556 -157 q 572 -201 556 -186 q 617 -215 589 -215 q 657 -212 639 -215 q 686 -207 675 -208 l 686 -297 q 645 -307 667 -303 q 594 -311 624 -311 q 481 -275 519 -311 q 443 -175 443 -239 q 462 -100 443 -136 q 512 -32 481 -64 q 576 24 543 0 l 650 0 q 579 -80 603 -44 q 556 -157 556 -115 z "},"ę":{"ha":794,"x_min":74,"x_max":728,"o":"m 550 -160 q 566 -204 550 -189 q 610 -219 582 -219 q 651 -216 633 -219 q 681 -210 668 -212 l 681 -300 q 639 -310 660 -306 q 589 -314 618 -314 q 476 -276 514 -314 q 438 -176 438 -239 q 458 -99 438 -136 q 509 -30 478 -61 q 572 22 540 1 l 690 36 q 604 -43 635 -10 q 562 -104 574 -76 q 550 -160 550 -132 m 411 763 q 581 722 510 763 q 690 604 651 681 q 728 424 728 528 l 728 342 l 225 342 q 286 167 228 228 q 450 106 344 106 q 577 119 521 106 q 692 158 633 132 l 692 36 q 577 -1 635 11 q 440 -14 519 -14 q 249 29 332 -14 q 120 158 167 72 q 74 368 74 243 q 115 582 74 494 q 233 716 157 669 q 411 763 310 763 m 413 649 q 285 597 332 649 q 229 451 238 546 l 581 451 q 562 554 581 510 q 506 624 543 599 q 413 649 469 649 z "},"Ě":{"ha":774,"x_min":132,"x_max":690,"o":"m 690 0 l 132 0 l 132 992 l 690 992 l 690 864 l 282 864 l 282 581 l 665 581 l 665 454 l 282 454 l 282 129 l 690 129 l 690 0 m 344 1085 q 294 1153 325 1117 q 231 1226 264 1190 q 172 1289 197 1263 l 172 1307 l 272 1307 q 348 1251 308 1283 q 422 1182 388 1219 q 499 1251 460 1219 q 575 1307 539 1283 l 676 1307 l 676 1289 q 617 1226 651 1263 q 552 1153 583 1190 q 503 1085 521 1117 l 344 1085 z "},"ě":{"ha":797,"x_min":74,"x_max":728,"o":"m 411 763 q 581 722 510 763 q 690 604 653 681 q 728 424 728 528 l 728 342 l 225 342 q 286 167 228 228 q 450 106 344 106 q 576 119 521 106 q 692 158 632 132 l 692 36 q 578 -1 635 11 q 440 -14 521 -14 q 249 28 332 -14 q 120 157 167 71 q 74 369 74 243 q 115 582 74 494 q 233 716 157 669 q 411 763 310 763 m 413 649 q 285 597 332 649 q 228 451 238 546 l 581 451 q 562 554 581 511 q 506 623 543 597 q 413 649 469 649 m 326 842 q 276 910 307 874 q 213 983 246 947 q 154 1046 179 1019 l 154 1064 l 254 1064 q 330 1008 290 1040 q 404 939 369 976 q 481 1008 442 976 q 557 1064 521 1040 l 658 1064 l 658 1046 q 599 983 633 1019 q 534 910 565 947 q 485 842 503 874 l 326 842 z "},"Ĝ":{"ha":1010,"x_min":83,"x_max":904,"o":"m 546 533 l 904 533 l 904 39 q 742 -1 825 13 q 554 -14 660 -14 q 298 47 403 -14 q 138 222 193 108 q 83 496 83 336 q 144 765 83 651 q 320 942 206 879 q 599 1006 435 1006 q 756 990 681 1006 q 894 946 831 974 l 840 821 q 726 860 789 844 q 593 876 663 876 q 403 830 483 876 q 281 698 324 783 q 239 494 239 613 q 274 297 239 383 q 383 163 308 211 q 579 114 458 114 q 679 120 638 114 q 756 135 721 126 l 756 404 l 546 404 l 546 533 m 633 1307 q 683 1238 651 1276 q 747 1163 714 1200 q 807 1101 781 1126 l 807 1085 l 706 1085 q 632 1138 669 1107 q 557 1206 594 1169 q 483 1139 519 1169 q 411 1085 447 1108 l 311 1085 l 311 1101 q 370 1164 338 1128 q 433 1238 403 1200 q 483 1307 464 1276 l 633 1307 z "},"ĝ":{"ha":861,"x_min":74,"x_max":747,"o":"m 374 763 q 506 734 449 763 q 603 651 564 706 l 610 651 l 626 749 l 747 749 l 747 -11 q 710 -188 747 -117 q 596 -297 672 -260 q 401 -333 519 -333 q 250 -322 318 -333 q 126 -286 182 -311 l 126 -154 q 252 -198 183 -183 q 404 -212 321 -212 q 549 -161 497 -212 q 601 -21 601 -110 l 601 6 q 603 53 601 22 q 606 99 604 83 l 600 99 q 508 15 564 43 q 375 -14 451 -14 q 153 88 233 -14 q 74 374 74 189 q 154 658 74 554 q 374 763 235 763 m 406 642 q 307 610 347 642 q 246 519 267 579 q 225 371 225 458 q 272 173 225 240 q 408 106 318 106 q 498 119 461 106 q 559 163 535 133 q 594 237 583 192 q 606 344 606 282 l 606 374 q 585 527 606 468 q 520 614 565 586 q 406 642 475 642 m 492 1064 q 541 995 510 1033 q 606 920 572 957 q 665 858 639 883 l 665 842 l 564 842 q 490 895 528 864 q 415 963 453 926 q 342 896 378 926 q 269 842 306 865 l 169 842 l 169 858 q 228 921 196 885 q 292 995 261 957 q 342 1064 322 1033 l 492 1064 z "},"Ğ":{"ha":1010,"x_min":83,"x_max":904,"o":"m 546 533 l 904 533 l 904 39 q 742 -1 825 13 q 554 -14 660 -14 q 298 47 403 -14 q 138 222 193 108 q 83 496 83 336 q 144 765 83 651 q 320 942 206 879 q 599 1006 435 1006 q 756 990 681 1006 q 894 946 831 974 l 840 821 q 726 860 789 844 q 593 876 663 876 q 403 830 483 876 q 281 698 324 783 q 239 494 239 613 q 274 297 239 383 q 383 163 308 211 q 579 114 458 114 q 679 120 638 114 q 756 135 721 126 l 756 404 l 546 404 l 546 533 m 794 1283 q 760 1180 790 1225 q 680 1110 731 1135 q 560 1085 629 1085 q 394 1139 451 1085 q 332 1283 338 1193 l 419 1283 q 442 1227 424 1246 q 490 1203 460 1208 q 563 1197 521 1197 q 628 1203 597 1197 q 680 1228 658 1210 q 706 1283 701 1247 l 794 1283 z "},"ğ":{"ha":861,"x_min":74,"x_max":747,"o":"m 374 763 q 506 734 449 763 q 603 651 564 706 l 610 651 l 626 749 l 747 749 l 747 -11 q 710 -188 747 -117 q 596 -297 672 -260 q 401 -333 519 -333 q 250 -322 318 -333 q 126 -286 182 -311 l 126 -154 q 252 -198 183 -183 q 404 -212 321 -212 q 549 -161 497 -212 q 601 -21 601 -110 l 601 6 q 603 53 601 22 q 606 99 604 83 l 600 99 q 508 15 564 43 q 375 -14 451 -14 q 153 88 233 -14 q 74 374 74 189 q 154 658 74 554 q 374 763 235 763 m 406 642 q 307 610 347 642 q 246 519 267 579 q 225 371 225 458 q 272 173 225 240 q 408 106 318 106 q 498 119 461 106 q 559 163 535 133 q 594 237 583 192 q 606 344 606 282 l 606 374 q 585 527 606 468 q 520 614 565 586 q 406 642 475 642 m 653 1040 q 619 937 649 982 q 538 867 589 892 q 418 842 488 842 q 253 896 310 842 q 190 1040 196 950 l 278 1040 q 300 984 282 1003 q 349 960 318 965 q 421 954 379 954 q 486 960 456 954 q 538 985 517 967 q 564 1040 560 1004 l 653 1040 z "},"Ġ":{"ha":1010,"x_min":83,"x_max":904,"o":"m 546 533 l 904 533 l 904 39 q 742 -1 825 13 q 554 -14 660 -14 q 298 47 403 -14 q 138 222 193 108 q 83 496 83 336 q 144 765 83 651 q 320 942 206 879 q 599 1006 435 1006 q 756 990 681 1006 q 894 946 831 974 l 840 821 q 726 860 789 844 q 593 876 663 876 q 403 830 483 876 q 281 698 324 783 q 239 494 239 613 q 274 297 239 383 q 383 163 308 211 q 579 114 458 114 q 679 120 638 114 q 756 135 721 126 l 756 404 l 546 404 l 546 533 m 563 1276 q 621 1257 596 1276 q 646 1192 646 1238 q 621 1127 646 1147 q 563 1107 596 1107 q 502 1127 526 1107 q 478 1192 478 1147 q 502 1257 478 1238 q 563 1276 526 1276 z "},"ġ":{"ha":861,"x_min":74,"x_max":747,"o":"m 374 763 q 506 734 449 763 q 603 651 564 706 l 610 651 l 626 749 l 747 749 l 747 -11 q 710 -188 747 -117 q 596 -297 672 -260 q 401 -333 519 -333 q 250 -322 318 -333 q 126 -286 182 -311 l 126 -154 q 252 -198 183 -183 q 404 -212 321 -212 q 549 -161 497 -212 q 601 -21 601 -110 l 601 6 q 603 53 601 22 q 606 99 604 83 l 600 99 q 508 15 564 43 q 375 -14 451 -14 q 153 88 233 -14 q 74 374 74 189 q 154 658 74 554 q 374 763 235 763 m 406 642 q 307 610 347 642 q 246 519 267 579 q 225 371 225 458 q 272 173 225 240 q 408 106 318 106 q 498 119 461 106 q 559 163 535 133 q 594 237 583 192 q 606 344 606 282 l 606 374 q 585 527 606 468 q 520 614 565 586 q 406 642 475 642 m 418 1033 q 476 1014 451 1033 q 501 949 501 994 q 476 884 501 904 q 418 864 451 864 q 358 884 382 864 q 333 949 333 904 q 358 1014 333 994 q 418 1033 382 1033 z "},"Ģ":{"ha":1010,"x_min":83,"x_max":904,"o":"m 546 533 l 904 533 l 904 39 q 742 -1 825 13 q 554 -14 660 -14 q 298 47 403 -14 q 138 222 193 108 q 83 496 83 336 q 144 765 83 651 q 320 942 206 879 q 599 1006 435 1006 q 756 990 681 1006 q 894 946 831 974 l 840 821 q 726 860 789 844 q 593 876 663 876 q 403 830 483 876 q 281 698 324 783 q 239 494 239 613 q 274 297 239 383 q 383 163 308 211 q 579 114 458 114 q 679 120 638 114 q 756 135 721 126 l 756 404 l 546 404 l 546 533 m 651 -97 q 627 -162 644 -125 q 588 -237 610 -200 q 539 -307 565 -275 l 457 -307 l 457 -290 q 478 -228 467 -265 q 498 -153 489 -192 q 508 -85 507 -114 l 651 -85 l 651 -97 z "},"ģ":{"ha":861,"x_min":74,"x_max":749,"o":"m 521 1047 q 499 985 510 1022 q 480 910 489 949 q 467 842 471 872 l 325 842 l 325 854 q 351 917 333 881 q 390 993 368 954 q 436 1064 413 1032 l 521 1064 l 521 1047 m 374 763 q 506 734 449 763 q 603 651 564 706 l 610 651 l 626 749 l 749 749 l 749 -11 q 710 -189 749 -117 q 596 -297 672 -261 q 401 -333 519 -333 q 250 -322 318 -333 q 126 -286 182 -311 l 126 -154 q 252 -197 183 -182 q 404 -212 321 -212 q 549 -161 497 -212 q 601 -21 601 -110 l 601 6 q 603 53 601 22 q 606 99 604 83 l 600 99 q 507 15 563 43 q 375 -14 451 -14 q 153 88 233 -14 q 74 372 74 189 q 154 658 74 554 q 374 763 235 763 m 406 642 q 307 610 347 642 q 246 519 267 579 q 225 371 225 458 q 272 173 225 240 q 408 106 318 106 q 498 119 461 106 q 559 163 535 133 q 594 237 583 192 q 606 344 606 282 l 606 374 q 585 526 606 468 q 520 613 565 585 q 406 642 475 642 z "},"Ĥ":{"ha":1039,"x_min":132,"x_max":906,"o":"m 906 0 l 756 0 l 756 453 l 282 453 l 282 0 l 132 0 l 132 992 l 282 992 l 282 581 l 756 581 l 756 992 l 906 992 l 906 0 m 593 1307 q 642 1238 611 1276 q 707 1163 674 1200 q 767 1101 740 1126 l 767 1085 l 665 1085 q 592 1138 629 1107 q 517 1206 554 1169 q 443 1139 479 1169 q 371 1085 407 1108 l 271 1085 l 271 1101 q 330 1164 297 1128 q 393 1238 363 1200 q 443 1307 424 1276 l 593 1307 z "},"ĥ":{"ha":871,"x_min":-58,"x_max":763,"o":"m 261 775 q 259 704 261 738 q 254 647 257 671 l 263 647 q 322 711 286 686 q 401 749 357 736 q 490 761 444 761 q 640 733 579 761 q 731 644 700 704 q 763 488 763 585 l 763 0 l 617 0 l 617 467 q 579 597 617 554 q 463 640 542 640 q 342 610 386 640 q 280 520 299 579 q 261 376 261 461 l 261 0 l 114 0 l 114 1056 l 261 1056 l 261 775 m 264 1371 q 313 1302 282 1340 q 378 1227 344 1264 q 438 1165 411 1190 l 438 1149 l 336 1149 q 263 1202 300 1171 q 188 1269 225 1233 q 114 1203 150 1233 q 42 1149 78 1172 l -58 1149 l -58 1165 q 1 1228 -32 1192 q 64 1302 33 1264 q 114 1371 94 1340 l 264 1371 z "},"Ħ":{"ha":1039,"x_min":0,"x_max":1039,"o":"m 132 0 l 132 726 l 0 726 l 0 836 l 132 836 l 132 992 l 282 992 l 282 836 l 756 836 l 756 992 l 907 992 l 907 836 l 1039 836 l 1039 726 l 907 726 l 907 0 l 756 0 l 756 451 l 282 451 l 282 0 l 132 0 m 282 582 l 756 582 l 756 726 l 282 726 l 282 582 z "},"ħ":{"ha":875,"x_min":10,"x_max":764,"o":"m 263 1056 l 263 935 l 533 935 l 533 831 l 263 831 l 263 742 q 260 673 263 707 q 254 617 257 639 l 264 617 q 324 681 289 656 q 402 718 358 706 q 493 731 446 731 q 642 702 582 731 q 733 613 701 674 q 764 456 764 551 l 764 0 l 618 0 l 618 435 q 581 566 618 522 q 464 610 544 610 q 344 579 388 610 q 281 490 300 549 q 263 346 263 432 l 263 0 l 115 0 l 115 831 l 10 831 l 10 935 l 115 935 l 115 1056 l 263 1056 z "},"Ĩ":{"ha":492,"x_min":-26,"x_max":499,"o":"m 438 0 l 53 0 l 53 86 l 171 121 l 171 869 l 53 906 l 53 992 l 438 992 l 438 906 l 321 869 l 321 121 l 438 86 l 438 0 m -26 1085 q -9 1164 -22 1129 q 25 1222 4 1199 q 74 1258 46 1246 q 136 1271 101 1271 q 194 1260 165 1271 q 248 1233 222 1249 q 299 1206 274 1218 q 346 1194 324 1194 q 393 1214 375 1194 q 419 1272 411 1233 l 499 1272 q 447 1135 490 1185 q 338 1086 404 1086 q 281 1097 308 1086 q 227 1124 254 1108 q 176 1151 200 1140 q 128 1163 151 1163 q 80 1143 97 1163 q 53 1085 63 1124 l -26 1085 z "},"ĩ":{"ha":375,"x_min":-72,"x_max":453,"o":"m 261 0 l 114 0 l 114 749 l 261 749 l 261 0 m -72 842 q -55 921 -68 886 q -21 979 -42 956 q 28 1015 0 1003 q 90 1028 56 1028 q 148 1017 119 1028 q 202 990 176 1006 q 253 963 228 975 q 300 951 278 951 q 347 971 329 951 q 374 1029 365 990 l 453 1029 q 401 892 444 942 q 292 843 358 843 q 235 854 263 843 q 181 881 208 865 q 130 908 154 897 q 82 919 106 919 q 34 900 51 919 q 7 842 17 881 l -72 842 z "},"Ī":{"ha":492,"x_min":32,"x_max":460,"o":"m 438 0 l 53 0 l 53 86 l 171 121 l 171 869 l 53 906 l 53 992 l 438 992 l 438 906 l 321 869 l 321 121 l 438 86 l 438 0 m 458 1194 l 458 1085 l 32 1085 l 32 1194 l 458 1194 z "},"ī":{"ha":375,"x_min":-26,"x_max":401,"o":"m 261 0 l 114 0 l 114 749 l 261 749 l 261 0 m 400 951 l 400 842 l -26 842 l -26 951 l 400 951 z "},"Ĭ":{"ha":492,"x_min":18,"x_max":481,"o":"m 438 0 l 53 0 l 53 86 l 171 121 l 171 869 l 53 906 l 53 992 l 438 992 l 438 906 l 321 869 l 321 121 l 438 86 l 438 0 m 481 1283 q 447 1180 476 1225 q 366 1110 417 1135 q 246 1085 315 1085 q 81 1139 138 1085 q 18 1283 24 1193 l 106 1283 q 128 1227 110 1246 q 176 1203 146 1208 q 249 1197 207 1197 q 314 1203 283 1197 q 366 1228 344 1210 q 392 1283 388 1247 l 481 1283 z "},"ĭ":{"ha":375,"x_min":-39,"x_max":422,"o":"m 261 0 l 114 0 l 114 749 l 261 749 l 261 0 m 424 1040 q 390 937 419 982 q 309 867 360 892 q 189 842 258 842 q 24 896 81 842 q -39 1040 -33 950 l 49 1040 q 71 984 53 1003 q 119 960 89 965 q 192 954 150 954 q 257 960 226 954 q 309 985 288 967 q 335 1040 331 1004 l 424 1040 z "},"Į":{"ha":492,"x_min":53,"x_max":438,"o":"m 438 0 l 53 0 l 53 86 l 171 121 l 171 869 l 53 906 l 53 992 l 438 992 l 438 906 l 321 869 l 321 121 l 438 86 l 438 0 m 304 -157 q 321 -201 304 -186 q 365 -215 338 -215 q 406 -212 388 -215 q 435 -207 424 -208 l 435 -297 q 394 -307 415 -303 q 343 -311 372 -311 q 230 -275 268 -311 q 192 -175 192 -239 q 210 -100 192 -136 q 260 -32 229 -64 q 325 24 292 0 l 399 0 q 328 -80 351 -44 q 304 -157 304 -115 z "},"į":{"ha":375,"x_min":43,"x_max":286,"o":"m 261 749 l 261 0 l 114 0 l 114 749 l 261 749 m 189 1033 q 247 1014 222 1033 q 272 949 272 994 q 247 884 272 904 q 189 864 222 864 q 128 884 153 864 q 104 949 104 904 q 128 1014 104 994 q 189 1033 153 1033 m 156 -157 q 172 -201 156 -186 q 217 -215 189 -215 q 257 -212 239 -215 q 286 -207 275 -208 l 286 -297 q 245 -307 267 -303 q 194 -311 224 -311 q 81 -275 119 -311 q 43 -175 43 -239 q 62 -100 43 -136 q 112 -32 81 -64 q 176 24 143 0 l 250 0 q 179 -80 203 -44 q 156 -157 156 -115 z "},"İ":{"ha":492,"x_min":53,"x_max":438,"o":"m 438 0 l 53 0 l 53 86 l 171 121 l 171 869 l 53 906 l 53 992 l 438 992 l 438 906 l 321 869 l 321 121 l 438 86 l 438 0 m 249 1276 q 307 1257 282 1276 q 332 1192 332 1238 q 307 1127 332 1147 q 249 1107 282 1107 q 188 1127 213 1107 q 164 1192 164 1147 q 188 1257 164 1238 q 249 1276 213 1276 z "},"Ĳ":{"ha":894,"x_min":53,"x_max":774,"o":"m 438 0 l 53 0 l 53 86 l 171 121 l 171 869 l 53 906 l 53 992 l 438 992 l 438 906 l 321 869 l 321 121 l 438 86 l 438 0 m 497 -272 q 436 -267 463 -272 q 389 -254 410 -262 l 389 -129 q 436 -139 411 -135 q 489 -143 461 -143 q 555 -129 524 -143 q 604 -79 586 -115 q 622 22 622 -43 l 622 992 l 772 992 l 772 29 q 738 -142 772 -75 q 642 -241 704 -210 q 497 -272 581 -272 z "},"ĳ":{"ha":756,"x_min":104,"x_max":650,"o":"m 261 749 l 261 0 l 114 0 l 114 749 l 261 749 m 189 1033 q 247 1014 222 1033 q 272 949 272 994 q 247 884 272 904 q 189 864 222 864 q 128 884 153 864 q 104 949 104 904 q 128 1014 104 994 q 189 1033 153 1033 m 415 -333 q 353 -328 382 -333 q 303 -317 324 -324 l 303 -199 q 345 -208 324 -204 q 392 -212 367 -212 q 463 -188 435 -212 q 492 -96 492 -164 l 492 749 l 639 749 l 639 -103 q 616 -224 639 -172 q 544 -305 593 -276 q 415 -333 496 -333 m 482 949 q 506 1014 482 994 q 567 1033 531 1033 q 625 1014 600 1033 q 650 949 650 994 q 625 884 650 904 q 567 864 600 864 q 506 884 531 864 q 482 949 482 904 z "},"Ĵ":{"ha":403,"x_min":-107,"x_max":449,"o":"m 1 -272 q -60 -267 -33 -272 q -107 -254 -86 -262 l -107 -129 q -60 -139 -85 -135 q -7 -143 -35 -143 q 59 -129 28 -143 q 108 -79 90 -115 q 126 22 126 -43 l 126 992 l 276 992 l 276 29 q 242 -142 276 -75 q 147 -241 208 -210 q 1 -272 85 -272 m 275 1307 q 324 1238 293 1276 q 389 1163 356 1200 q 449 1101 422 1126 l 449 1085 l 347 1085 q 274 1138 311 1107 q 199 1206 236 1169 q 125 1139 161 1169 q 53 1085 89 1108 l -47 1085 l -47 1101 q 12 1164 -21 1128 q 75 1238 44 1200 q 125 1307 106 1276 l 275 1307 z "},"ĵ":{"ha":375,"x_min":-75,"x_max":435,"o":"m 38 -333 q -25 -328 4 -333 q -75 -317 -54 -324 l -75 -199 q -33 -208 -54 -204 q 14 -212 -11 -212 q 85 -188 57 -212 q 114 -96 114 -164 l 114 749 l 261 749 l 261 -103 q 238 -224 261 -172 q 167 -305 215 -276 q 38 -333 118 -333 m 263 1064 q 312 995 281 1033 q 376 920 343 957 q 436 858 410 883 l 436 842 l 335 842 q 261 895 299 864 q 186 963 224 926 q 113 896 149 926 q 40 842 76 865 l -60 842 l -60 858 q -1 921 -33 885 q 63 995 32 957 q 113 1064 93 1033 l 263 1064 z "},"Ķ":{"ha":876,"x_min":132,"x_max":878,"o":"m 878 0 l 704 0 l 379 457 l 282 376 l 282 0 l 132 0 l 132 992 l 282 992 l 282 513 q 354 597 318 556 q 426 681 390 639 l 694 992 l 867 992 l 488 558 l 878 0 m 564 -97 q 540 -162 557 -125 q 500 -237 522 -200 q 451 -307 478 -275 l 369 -307 l 369 -290 q 390 -228 379 -265 q 410 -153 401 -192 q 421 -85 419 -114 l 564 -85 l 564 -97 z "},"ķ":{"ha":776,"x_min":115,"x_max":768,"o":"m 261 528 q 259 461 261 499 q 254 392 257 424 l 258 392 q 285 426 269 406 q 318 467 301 446 q 349 503 335 488 l 578 749 l 749 749 l 447 428 l 768 0 l 594 0 l 347 335 l 261 263 l 261 0 l 115 0 l 115 1056 l 261 1056 l 261 528 m 488 -97 q 463 -162 481 -125 q 424 -237 446 -200 q 375 -307 401 -275 l 293 -307 l 293 -290 q 314 -228 303 -265 q 334 -153 325 -192 q 344 -85 343 -114 l 488 -85 l 488 -97 z "},"ĸ":{"ha":776,"x_min":115,"x_max":768,"o":"m 747 749 l 460 414 l 768 0 l 596 0 l 361 322 l 267 251 l 267 0 l 115 0 l 115 749 l 267 749 l 267 554 q 265 453 267 503 q 260 372 263 403 l 263 372 q 297 415 279 393 q 329 456 314 436 l 578 749 l 747 749 z "},"Ĺ":{"ha":742,"x_min":117,"x_max":704,"o":"m 129 0 l 129 992 l 281 992 l 281 131 l 704 131 l 704 0 l 129 0 m 431 1293 q 389 1246 415 1274 q 332 1188 363 1218 q 271 1131 301 1158 q 214 1085 240 1104 l 117 1085 l 117 1101 q 164 1164 138 1128 q 215 1238 190 1200 q 257 1307 240 1276 l 431 1307 l 431 1293 z "},"ĺ":{"ha":375,"x_min":103,"x_max":415,"o":"m 261 0 l 114 0 l 114 1056 l 261 1056 l 261 0 m 417 1357 q 375 1310 401 1338 q 318 1252 349 1282 q 257 1195 288 1222 q 200 1149 226 1168 l 103 1149 l 103 1165 q 150 1228 124 1192 q 201 1302 176 1264 q 243 1371 226 1340 l 417 1371 l 417 1357 z "},"Ļ":{"ha":742,"x_min":129,"x_max":704,"o":"m 129 0 l 129 992 l 281 992 l 281 131 l 704 131 l 704 0 l 129 0 m 517 -97 q 492 -162 510 -125 q 453 -237 475 -200 q 404 -307 431 -275 l 322 -307 l 322 -290 q 343 -228 332 -265 q 363 -153 354 -192 q 374 -85 372 -114 l 517 -85 l 517 -97 z "},"ļ":{"ha":375,"x_min":90,"x_max":285,"o":"m 261 0 l 114 0 l 114 1056 l 261 1056 l 261 0 m 285 -97 q 260 -162 278 -125 q 221 -237 243 -200 q 172 -307 199 -275 l 90 -307 l 90 -290 q 111 -228 100 -265 q 131 -153 122 -192 q 142 -85 140 -114 l 285 -85 l 285 -97 z "},"Ľ":{"ha":742,"x_min":129,"x_max":715,"o":"m 715 979 q 691 916 707 953 q 654 840 675 879 q 613 769 633 801 l 529 769 l 529 786 q 542 833 536 807 q 555 887 549 858 q 566 942 561 915 q 574 992 571 969 l 715 992 l 715 979 m 129 0 l 129 992 l 281 992 l 281 131 l 704 131 l 704 0 l 129 0 z "},"ľ":{"ha":375,"x_min":113,"x_max":510,"o":"m 510 1043 q 485 980 501 1017 q 448 904 468 943 q 406 833 428 865 l 324 833 l 324 850 q 336 897 329 871 q 349 951 343 922 q 360 1006 356 979 q 368 1056 365 1033 l 510 1056 l 510 1043 m 261 0 l 113 0 l 113 1056 l 261 1056 l 261 0 z "},"Ŀ":{"ha":742,"x_min":129,"x_max":704,"o":"m 129 0 l 129 992 l 281 992 l 281 131 l 704 131 l 704 0 l 129 0 m 549 590 q 607 571 582 590 q 632 506 632 551 q 607 441 632 461 q 549 421 582 421 q 488 441 513 421 q 464 506 464 461 q 488 571 464 551 q 549 590 513 590 z "},"ŀ":{"ha":414,"x_min":114,"x_max":478,"o":"m 261 0 l 114 0 l 114 1056 l 261 1056 l 261 0 m 394 611 q 453 592 428 611 q 478 526 478 572 q 453 462 478 482 q 394 442 428 442 q 334 462 358 442 q 310 526 310 482 q 334 592 310 572 q 394 611 358 611 z "},"Ł":{"ha":744,"x_min":13,"x_max":706,"o":"m 132 0 l 132 340 l 69 304 l 13 403 l 132 474 l 132 992 l 282 992 l 282 564 l 444 660 l 503 560 l 282 429 l 282 129 l 706 129 l 706 0 l 132 0 z "},"ł":{"ha":378,"x_min":-14,"x_max":392,"o":"m 108 0 l 108 375 l 44 335 l -14 432 l 108 510 l 108 1056 l 256 1056 l 256 603 l 332 654 l 392 557 l 256 468 l 256 0 l 108 0 z "},"Ń":{"ha":1074,"x_min":132,"x_max":946,"o":"m 946 0 l 764 0 l 263 801 l 257 801 q 262 721 260 765 q 266 628 264 676 q 268 528 268 579 l 268 0 l 132 0 l 132 992 l 313 992 l 813 194 l 817 194 q 814 268 815 224 q 810 363 813 313 q 807 458 808 414 l 807 992 l 946 992 l 946 0 m 765 1293 q 724 1246 750 1274 q 667 1188 697 1218 q 606 1131 636 1158 q 549 1085 575 1104 l 451 1085 l 451 1101 q 499 1164 472 1128 q 550 1238 525 1200 q 592 1307 575 1276 l 765 1307 l 765 1293 z "},"ń":{"ha":871,"x_min":114,"x_max":763,"o":"m 493 763 q 694 698 625 763 q 763 488 763 633 l 763 0 l 617 0 l 617 467 q 579 597 617 554 q 463 640 542 640 q 305 573 349 640 q 261 378 261 506 l 261 0 l 114 0 l 114 749 l 231 749 l 251 647 l 258 647 q 320 712 283 686 q 401 750 357 738 q 493 763 446 763 m 664 1050 q 622 1003 649 1031 q 565 945 596 975 q 504 888 535 915 q 447 842 474 861 l 350 842 l 350 858 q 397 921 371 885 q 449 995 424 957 q 490 1064 474 1033 l 664 1064 l 664 1050 z "},"Ņ":{"ha":1074,"x_min":132,"x_max":946,"o":"m 946 0 l 764 0 l 263 801 l 257 801 q 262 721 260 765 q 266 628 264 676 q 268 528 268 579 l 268 0 l 132 0 l 132 992 l 313 992 l 813 194 l 817 194 q 814 268 815 224 q 810 363 813 313 q 807 458 808 414 l 807 992 l 946 992 l 946 0 m 635 -97 q 610 -162 628 -125 q 571 -237 593 -200 q 522 -307 549 -275 l 440 -307 l 440 -290 q 461 -228 450 -265 q 481 -153 472 -192 q 492 -85 490 -114 l 635 -85 l 635 -97 z "},"ņ":{"ha":871,"x_min":114,"x_max":763,"o":"m 493 763 q 694 698 625 763 q 763 488 763 633 l 763 0 l 617 0 l 617 467 q 579 597 617 554 q 463 640 542 640 q 305 573 349 640 q 261 378 261 506 l 261 0 l 114 0 l 114 749 l 231 749 l 251 647 l 258 647 q 320 712 283 686 q 401 750 357 738 q 493 763 446 763 m 533 -97 q 509 -162 526 -125 q 469 -237 492 -200 q 421 -307 447 -275 l 339 -307 l 339 -290 q 360 -228 349 -265 q 380 -153 371 -192 q 390 -85 389 -114 l 533 -85 l 533 -97 z "},"Ň":{"ha":1074,"x_min":132,"x_max":946,"o":"m 946 0 l 764 0 l 263 801 l 257 801 q 262 721 260 765 q 266 628 264 676 q 268 528 268 579 l 268 0 l 132 0 l 132 992 l 313 992 l 813 194 l 817 194 q 814 268 815 224 q 810 363 813 313 q 807 458 808 414 l 807 992 l 946 992 l 946 0 m 461 1085 q 411 1153 442 1117 q 347 1226 381 1190 q 289 1289 314 1263 l 289 1307 l 389 1307 q 465 1251 425 1283 q 539 1182 504 1219 q 616 1251 576 1219 q 692 1307 656 1283 l 793 1307 l 793 1289 q 734 1226 768 1263 q 669 1153 700 1190 q 619 1085 638 1117 l 461 1085 z "},"ň":{"ha":871,"x_min":114,"x_max":763,"o":"m 493 763 q 694 698 625 763 q 763 488 763 633 l 763 0 l 617 0 l 617 467 q 579 597 617 554 q 463 640 542 640 q 305 573 349 640 q 261 378 261 506 l 261 0 l 114 0 l 114 749 l 231 749 l 251 647 l 258 647 q 320 712 283 686 q 401 750 357 738 q 493 763 446 763 m 360 842 q 310 910 340 874 q 246 983 279 947 q 188 1046 213 1019 l 188 1064 l 288 1064 q 363 1008 324 1040 q 438 939 403 976 q 515 1008 475 976 q 590 1064 554 1040 l 692 1064 l 692 1046 q 633 983 667 1019 q 567 910 599 947 q 518 842 536 874 l 360 842 z "},"ŉ":{"ha":992,"x_min":0,"x_max":883,"o":"m 613 763 q 813 698 744 763 q 882 488 882 633 l 882 0 l 736 0 l 736 467 q 699 597 736 554 q 582 640 661 640 q 424 573 468 640 q 381 378 381 506 l 381 0 l 233 0 l 233 749 l 350 749 l 371 647 l 378 647 q 440 712 403 686 q 521 750 476 738 q 613 763 565 763 m 226 976 q 194 871 214 928 q 153 758 175 814 q 107 651 131 701 l 0 651 q 20 736 10 692 q 40 826 31 781 q 56 913 49 871 q 69 992 64 956 l 217 992 l 226 976 z "},"Ŋ":{"ha":1078,"x_min":132,"x_max":946,"o":"m 668 -272 q 603 -267 631 -272 q 554 -254 575 -262 l 554 -132 q 604 -142 578 -137 q 663 -146 631 -146 q 735 -133 703 -146 q 788 -87 768 -119 q 810 1 808 -54 l 263 801 l 257 801 q 262 722 260 772 q 266 618 264 672 q 268 517 268 564 l 268 0 l 132 0 l 132 992 l 313 992 l 813 251 l 817 251 q 813 331 815 285 q 808 430 810 378 q 807 528 807 482 l 807 992 l 946 992 l 946 6 q 911 -151 946 -89 q 815 -242 876 -212 q 668 -272 753 -272 z "},"ŋ":{"ha":871,"x_min":114,"x_max":764,"o":"m 550 -333 q 490 -328 517 -333 q 443 -317 463 -324 l 443 -199 q 483 -208 464 -204 q 526 -212 501 -212 q 590 -188 564 -212 q 617 -96 617 -164 l 617 472 q 579 599 617 557 q 464 640 542 640 q 343 610 388 640 q 280 522 299 581 q 261 378 261 464 l 261 0 l 114 0 l 114 749 l 231 749 l 253 649 l 261 649 q 322 713 286 688 q 401 750 357 738 q 493 763 446 763 q 642 734 582 763 q 733 645 703 706 q 764 489 764 585 l 764 -103 q 742 -224 764 -172 q 672 -305 719 -276 q 550 -333 625 -333 z "},"Ō":{"ha":1089,"x_min":82,"x_max":1006,"o":"m 1006 497 q 977 288 1006 382 q 891 126 949 194 q 747 22 833 58 q 544 -14 660 -14 q 340 23 426 -14 q 195 127 253 60 q 110 289 138 194 q 82 499 82 383 q 133 765 82 651 q 286 943 183 879 q 546 1007 389 1007 q 801 944 699 1007 q 954 766 903 881 q 1006 497 1006 651 m 242 497 q 274 293 242 379 q 373 161 306 207 q 544 115 440 115 q 717 161 650 115 q 815 293 783 207 q 847 497 847 379 q 776 776 847 675 q 546 878 704 878 q 373 832 440 878 q 274 701 306 786 q 242 497 242 617 m 757 1194 l 757 1085 l 331 1085 l 331 1194 l 757 1194 z "},"ō":{"ha":849,"x_min":74,"x_max":776,"o":"m 776 376 q 751 210 776 282 q 681 88 726 138 q 569 12 635 38 q 422 -14 503 -14 q 283 12 347 -14 q 172 88 219 38 q 99 210 125 138 q 74 376 74 282 q 116 586 74 500 q 238 717 158 672 q 426 763 317 763 q 608 717 529 763 q 731 586 686 672 q 776 376 776 500 m 225 376 q 246 231 225 292 q 311 137 267 169 q 425 104 356 104 q 538 137 494 104 q 603 231 582 169 q 624 376 624 292 q 602 520 624 461 q 537 611 581 579 q 424 643 493 643 q 272 572 319 643 q 225 376 225 501 m 638 951 l 638 842 l 211 842 l 211 951 l 638 951 z "},"Ŏ":{"ha":1089,"x_min":82,"x_max":1006,"o":"m 1006 497 q 977 288 1006 382 q 891 126 949 194 q 747 22 833 58 q 544 -14 660 -14 q 340 23 426 -14 q 195 127 253 60 q 110 289 138 194 q 82 499 82 383 q 133 765 82 651 q 286 943 183 879 q 546 1007 389 1007 q 801 944 699 1007 q 954 766 903 881 q 1006 497 1006 651 m 242 497 q 274 293 242 379 q 373 161 306 207 q 544 115 440 115 q 717 161 650 115 q 815 293 783 207 q 847 497 847 379 q 776 776 847 675 q 546 878 704 878 q 373 832 440 878 q 274 701 306 786 q 242 497 242 617 m 781 1283 q 747 1180 776 1225 q 666 1110 717 1135 q 546 1085 615 1085 q 381 1139 438 1085 q 318 1283 324 1193 l 406 1283 q 428 1227 410 1246 q 476 1203 446 1208 q 549 1197 507 1197 q 614 1203 583 1197 q 666 1228 644 1210 q 692 1283 688 1247 l 781 1283 z "},"ŏ":{"ha":849,"x_min":74,"x_max":776,"o":"m 776 376 q 751 210 776 282 q 681 88 726 138 q 569 12 635 38 q 422 -14 503 -14 q 283 12 347 -14 q 172 88 219 38 q 99 210 125 138 q 74 376 74 282 q 116 586 74 500 q 238 717 158 672 q 426 763 317 763 q 608 717 529 763 q 731 586 686 672 q 776 376 776 500 m 225 376 q 246 231 225 292 q 311 137 267 169 q 425 104 356 104 q 538 137 494 104 q 603 231 582 169 q 624 376 624 292 q 602 520 624 461 q 537 611 581 579 q 424 643 493 643 q 272 572 319 643 q 225 376 225 501 m 660 1040 q 626 937 656 982 q 545 867 596 892 q 425 842 494 842 q 260 896 317 842 q 197 1040 203 950 l 285 1040 q 307 984 289 1003 q 356 960 325 965 q 428 954 386 954 q 493 960 463 954 q 545 985 524 967 q 571 1040 567 1004 l 660 1040 z "},"Ő":{"ha":1089,"x_min":82,"x_max":1006,"o":"m 1006 497 q 977 288 1006 382 q 891 126 949 194 q 747 22 833 58 q 544 -14 660 -14 q 340 23 426 -14 q 195 127 253 60 q 110 289 138 194 q 82 499 82 383 q 133 765 82 651 q 286 943 183 879 q 546 1007 389 1007 q 801 944 699 1007 q 954 766 903 881 q 1006 497 1006 651 m 242 497 q 274 293 242 379 q 373 161 306 207 q 544 115 440 115 q 717 161 650 115 q 815 293 783 207 q 847 497 847 379 q 776 776 847 675 q 546 878 704 878 q 373 832 440 878 q 274 701 306 786 q 242 497 242 617 m 807 1293 q 773 1247 796 1275 q 721 1189 750 1219 q 663 1131 692 1158 q 610 1085 633 1104 l 528 1085 l 528 1101 q 570 1164 547 1128 q 615 1238 593 1200 q 653 1307 638 1276 l 807 1307 l 807 1293 m 554 1293 q 521 1247 543 1275 q 469 1189 499 1219 q 411 1131 440 1158 q 358 1085 382 1104 l 276 1085 l 276 1101 q 319 1164 296 1128 q 363 1238 342 1200 q 400 1307 385 1276 l 554 1307 l 554 1293 z "},"ő":{"ha":849,"x_min":74,"x_max":776,"o":"m 776 376 q 751 210 776 282 q 681 88 726 138 q 569 12 635 38 q 422 -14 503 -14 q 283 12 347 -14 q 172 88 219 38 q 99 210 125 138 q 74 376 74 282 q 116 586 74 500 q 238 717 158 672 q 426 763 317 763 q 608 717 529 763 q 731 586 686 672 q 776 376 776 500 m 225 376 q 246 231 225 292 q 311 137 267 169 q 425 104 356 104 q 538 137 494 104 q 603 231 582 169 q 624 376 624 292 q 602 520 624 461 q 537 611 581 579 q 424 643 493 643 q 272 572 319 643 q 225 376 225 501 m 686 1050 q 652 1004 675 1032 q 600 946 629 976 q 542 888 571 915 q 489 842 513 861 l 407 842 l 407 858 q 449 921 426 885 q 494 995 472 957 q 532 1064 517 1033 l 686 1064 l 686 1050 m 433 1050 q 400 1004 422 1032 q 349 946 378 976 q 290 888 319 915 q 238 842 261 861 l 156 842 l 156 858 q 198 921 175 885 q 242 995 221 957 q 279 1064 264 1033 l 433 1064 l 433 1050 z "},"Œ":{"ha":1307,"x_min":83,"x_max":1225,"o":"m 533 1007 q 606 1003 569 1007 q 672 992 642 999 l 1225 992 l 1225 864 l 831 864 l 831 581 l 1199 581 l 1199 454 l 831 454 l 831 129 l 1225 129 l 1225 0 l 678 0 q 610 -10 647 -6 q 538 -14 574 -14 q 283 50 385 -14 q 133 229 182 114 q 83 499 83 344 q 133 767 83 653 q 282 944 182 881 q 533 1007 382 1007 m 542 878 q 406 852 464 878 q 313 776 349 826 q 258 656 276 726 q 239 497 239 586 q 272 292 239 378 q 371 160 304 207 q 540 114 438 114 q 617 121 579 114 q 682 139 654 128 l 682 854 q 617 872 654 867 q 542 878 581 878 z "},"œ":{"ha":1326,"x_min":71,"x_max":1258,"o":"m 943 761 q 1112 720 1042 761 q 1220 603 1182 679 q 1258 424 1258 528 l 1258 343 l 761 343 q 819 164 764 222 q 978 106 875 106 q 1108 119 1051 106 q 1222 158 1164 132 l 1222 36 q 1109 -1 1165 11 q 974 -14 1053 -14 q 810 21 882 -14 q 690 126 738 56 q 576 22 646 57 q 417 -14 506 -14 q 239 31 317 -14 q 116 164 161 76 q 71 375 71 251 q 113 585 71 499 q 233 716 154 671 q 419 761 311 761 q 573 726 504 761 q 685 622 642 692 q 753 699 714 668 q 840 746 792 731 q 943 761 888 761 m 415 640 q 269 574 314 640 q 224 375 224 508 q 244 228 224 288 q 307 138 264 168 q 418 107 350 107 q 527 137 485 107 q 590 226 569 167 q 611 372 611 285 q 590 522 611 463 q 526 610 569 581 q 415 640 483 640 m 943 647 q 819 598 865 647 q 764 451 772 549 l 1110 451 q 1092 554 1110 510 q 1038 623 1075 599 q 943 647 1001 647 z "},"Ŕ":{"ha":878,"x_min":129,"x_max":864,"o":"m 413 992 q 619 960 538 992 q 742 865 701 928 q 782 708 782 803 q 754 580 782 632 q 683 495 726 528 q 589 442 639 463 l 864 0 l 689 0 l 454 401 l 281 401 l 281 0 l 129 0 l 129 992 l 413 992 m 406 867 l 281 867 l 281 524 l 411 524 q 574 568 521 524 q 626 701 626 613 q 603 796 626 760 q 531 849 579 832 q 406 867 482 867 m 668 1293 q 626 1246 653 1274 q 569 1188 600 1218 q 508 1131 539 1158 q 451 1085 478 1104 l 354 1085 l 354 1101 q 401 1164 375 1128 q 453 1238 428 1200 q 494 1307 478 1276 l 668 1307 l 668 1293 z "},"ŕ":{"ha":588,"x_min":114,"x_max":568,"o":"m 482 763 q 527 760 503 763 q 568 754 551 758 l 551 617 q 513 624 533 621 q 468 626 492 626 q 392 610 429 626 q 325 565 354 594 q 278 493 296 536 q 261 393 261 450 l 261 0 l 114 0 l 114 749 l 231 749 l 250 615 l 257 615 q 313 690 279 656 q 389 743 346 724 q 482 763 432 763 m 565 1050 q 524 1003 550 1031 q 467 945 497 975 q 406 888 436 915 q 349 842 375 861 l 251 842 l 251 858 q 299 921 272 885 q 350 995 325 957 q 392 1064 375 1033 l 565 1064 l 565 1050 z "},"Ŗ":{"ha":878,"x_min":129,"x_max":864,"o":"m 413 992 q 619 960 538 992 q 742 865 701 928 q 782 708 782 803 q 754 580 782 632 q 683 495 726 528 q 589 442 639 463 l 864 0 l 689 0 l 454 401 l 281 401 l 281 0 l 129 0 l 129 992 l 413 992 m 406 867 l 281 867 l 281 524 l 411 524 q 574 568 521 524 q 626 701 626 613 q 603 796 626 760 q 531 849 579 832 q 406 867 482 867 m 560 -97 q 535 -162 553 -125 q 496 -237 518 -200 q 447 -307 474 -275 l 365 -307 l 365 -290 q 386 -228 375 -265 q 406 -153 397 -192 q 417 -85 415 -114 l 560 -85 l 560 -97 z "},"ŗ":{"ha":588,"x_min":88,"x_max":568,"o":"m 482 763 q 527 760 503 763 q 568 754 551 758 l 551 617 q 513 624 533 621 q 468 626 492 626 q 392 610 429 626 q 325 565 354 594 q 278 493 296 536 q 261 393 261 450 l 261 0 l 114 0 l 114 749 l 231 749 l 250 615 l 257 615 q 313 690 279 656 q 389 743 346 724 q 482 763 432 763 m 282 -97 q 258 -162 275 -125 q 218 -237 240 -200 q 169 -307 196 -275 l 88 -307 l 88 -290 q 108 -228 97 -265 q 128 -153 119 -192 q 139 -85 138 -114 l 282 -85 l 282 -97 z "},"Ř":{"ha":878,"x_min":129,"x_max":864,"o":"m 413 992 q 619 960 538 992 q 742 865 701 928 q 782 708 782 803 q 754 580 782 632 q 683 495 726 528 q 589 442 639 463 l 864 0 l 689 0 l 454 401 l 281 401 l 281 0 l 129 0 l 129 992 l 413 992 m 406 867 l 281 867 l 281 524 l 411 524 q 574 568 521 524 q 626 701 626 613 q 603 796 626 760 q 531 849 579 832 q 406 867 482 867 m 364 1085 q 314 1153 344 1117 q 250 1226 283 1190 q 192 1289 217 1263 l 192 1307 l 292 1307 q 367 1251 328 1283 q 442 1182 407 1219 q 519 1251 479 1219 q 594 1307 558 1283 l 696 1307 l 696 1289 q 637 1226 671 1263 q 572 1153 603 1190 q 522 1085 540 1117 l 364 1085 z "},"ř":{"ha":588,"x_min":89,"x_max":593,"o":"m 482 763 q 527 760 503 763 q 568 754 551 758 l 551 617 q 513 624 533 621 q 468 626 492 626 q 392 610 429 626 q 325 565 354 594 q 278 493 296 536 q 261 393 261 450 l 261 0 l 114 0 l 114 749 l 231 749 l 250 615 l 257 615 q 313 690 279 656 q 389 743 346 724 q 482 763 432 763 m 261 842 q 211 910 242 874 q 147 983 181 947 q 89 1046 114 1019 l 89 1064 l 189 1064 q 265 1008 225 1040 q 339 939 304 976 q 416 1008 376 976 q 492 1064 456 1040 l 593 1064 l 593 1046 q 534 983 568 1019 q 469 910 500 947 q 419 842 438 874 l 261 842 z "},"Ś":{"ha":764,"x_min":69,"x_max":701,"o":"m 701 268 q 658 117 701 179 q 535 20 615 54 q 343 -14 454 -14 q 239 -8 289 -14 q 146 10 189 -1 q 69 38 103 21 l 69 179 q 200 134 125 154 q 353 114 275 114 q 464 132 419 114 q 531 182 508 150 q 553 257 553 214 q 530 334 553 303 q 459 392 507 365 q 331 450 411 419 q 230 497 275 471 q 151 557 185 522 q 99 638 117 592 q 81 744 81 683 q 122 885 81 826 q 235 974 163 943 q 403 1006 307 1006 q 552 990 483 1006 q 683 946 621 974 l 636 822 q 521 861 579 846 q 399 876 463 876 q 306 860 343 876 q 249 814 268 843 q 231 746 231 785 q 251 669 231 700 q 318 613 272 639 q 439 557 364 588 q 581 488 522 525 q 671 398 640 450 q 701 268 701 346 m 614 1293 q 572 1246 599 1274 q 515 1188 546 1218 q 454 1131 485 1158 q 397 1085 424 1104 l 300 1085 l 300 1101 q 347 1164 321 1128 q 399 1238 374 1200 q 440 1307 424 1276 l 614 1307 l 614 1293 z "},"ś":{"ha":675,"x_min":68,"x_max":614,"o":"m 614 211 q 578 89 614 139 q 475 13 543 39 q 311 -14 407 -14 q 175 -2 233 -14 q 69 32 117 10 l 69 163 q 185 119 119 138 q 311 101 250 101 q 434 128 396 101 q 472 199 472 154 q 457 245 472 225 q 403 286 442 265 q 292 335 364 307 q 172 391 221 363 q 95 459 122 419 q 68 560 68 499 q 147 710 68 658 q 354 763 226 763 q 484 749 424 763 q 600 710 544 735 l 553 600 q 451 634 504 619 q 347 649 399 649 q 245 627 281 649 q 210 568 210 606 q 226 522 210 542 q 284 483 243 501 q 394 436 325 464 q 514 381 465 410 q 588 313 563 353 q 614 211 614 272 m 565 1050 q 524 1003 550 1031 q 467 945 497 975 q 406 888 436 915 q 349 842 375 861 l 251 842 l 251 858 q 299 921 272 885 q 350 995 325 957 q 392 1064 375 1033 l 565 1064 l 565 1050 z "},"Ŝ":{"ha":764,"x_min":69,"x_max":701,"o":"m 701 268 q 658 117 701 179 q 535 20 615 54 q 343 -14 454 -14 q 239 -8 289 -14 q 146 10 189 -1 q 69 38 103 21 l 69 179 q 200 134 125 154 q 353 114 275 114 q 464 132 419 114 q 531 182 508 150 q 553 257 553 214 q 530 334 553 303 q 459 392 507 365 q 331 450 411 419 q 230 497 275 471 q 151 557 185 522 q 99 638 117 592 q 81 744 81 683 q 122 885 81 826 q 235 974 163 943 q 403 1006 307 1006 q 552 990 483 1006 q 683 946 621 974 l 636 822 q 521 861 579 846 q 399 876 463 876 q 306 860 343 876 q 249 814 268 843 q 231 746 231 785 q 251 669 231 700 q 318 613 272 639 q 439 557 364 588 q 581 488 522 525 q 671 398 640 450 q 701 268 701 346 m 468 1307 q 517 1238 486 1276 q 582 1163 549 1200 q 642 1101 615 1126 l 642 1085 l 540 1085 q 467 1138 504 1107 q 392 1206 429 1169 q 318 1139 354 1169 q 246 1085 282 1108 l 146 1085 l 146 1101 q 205 1164 172 1128 q 268 1238 238 1200 q 318 1307 299 1276 l 468 1307 z "},"ŝ":{"ha":675,"x_min":68,"x_max":614,"o":"m 614 211 q 578 89 614 139 q 475 13 543 39 q 311 -14 407 -14 q 175 -2 233 -14 q 69 32 117 10 l 69 163 q 185 119 119 138 q 311 101 250 101 q 434 128 396 101 q 472 199 472 154 q 457 245 472 225 q 403 286 442 265 q 292 335 364 307 q 172 391 221 363 q 95 459 122 419 q 68 560 68 499 q 147 710 68 658 q 354 763 226 763 q 484 749 424 763 q 600 710 544 735 l 553 600 q 451 634 504 619 q 347 649 399 649 q 245 627 281 649 q 210 568 210 606 q 226 522 210 542 q 284 483 243 501 q 394 436 325 464 q 514 381 465 410 q 588 313 563 353 q 614 211 614 272 m 411 1064 q 460 995 429 1033 q 525 920 492 957 q 585 858 558 883 l 585 842 l 483 842 q 410 895 447 864 q 335 963 372 926 q 261 896 297 926 q 189 842 225 865 l 89 842 l 89 858 q 148 921 115 885 q 211 995 181 957 q 261 1064 242 1033 l 411 1064 z "},"Ş":{"ha":764,"x_min":69,"x_max":701,"o":"m 701 268 q 658 117 701 179 q 535 20 615 54 q 343 -14 454 -14 q 239 -8 289 -14 q 146 10 189 -1 q 69 38 103 21 l 69 179 q 200 134 125 154 q 353 114 275 114 q 464 132 419 114 q 531 182 508 150 q 553 257 553 214 q 530 334 553 303 q 459 392 507 365 q 331 450 411 419 q 230 497 275 471 q 151 557 185 522 q 99 638 117 592 q 81 744 81 683 q 122 885 81 826 q 235 974 163 943 q 403 1006 307 1006 q 552 990 483 1006 q 683 946 621 974 l 636 822 q 521 861 579 846 q 399 876 463 876 q 306 860 343 876 q 249 814 268 843 q 231 746 231 785 q 251 669 231 700 q 318 613 272 639 q 439 557 364 588 q 581 488 522 525 q 671 398 640 450 q 701 268 701 346 m 504 -189 q 453 -295 504 -257 q 303 -333 403 -333 q 254 -331 276 -333 q 218 -324 232 -328 l 218 -237 q 254 -243 233 -240 q 296 -246 275 -246 q 365 -233 342 -246 q 389 -189 389 -221 q 355 -138 389 -154 q 268 -115 321 -122 l 325 0 l 414 0 l 382 -68 q 443 -90 415 -75 q 488 -128 471 -104 q 504 -189 504 -151 z "},"ş":{"ha":675,"x_min":68,"x_max":614,"o":"m 614 211 q 578 89 614 139 q 475 13 543 39 q 311 -14 407 -14 q 175 -2 233 -14 q 69 32 117 10 l 69 163 q 185 119 119 138 q 311 101 250 101 q 434 128 396 101 q 472 199 472 154 q 457 245 472 225 q 403 286 442 265 q 292 335 364 307 q 172 391 221 363 q 95 459 122 419 q 68 560 68 499 q 147 710 68 658 q 354 763 226 763 q 484 749 424 763 q 600 710 544 735 l 553 600 q 451 634 504 619 q 347 649 399 649 q 245 627 281 649 q 210 568 210 606 q 226 522 210 542 q 284 483 243 501 q 394 436 325 464 q 514 381 465 410 q 588 313 563 353 q 614 211 614 272 m 479 -189 q 428 -295 479 -257 q 278 -333 378 -333 q 229 -331 251 -333 q 193 -324 207 -328 l 193 -237 q 229 -243 208 -240 q 271 -246 250 -246 q 340 -233 317 -246 q 364 -189 364 -221 q 330 -138 364 -154 q 243 -115 296 -122 l 300 0 l 389 0 l 357 -68 q 418 -90 390 -75 q 463 -128 446 -104 q 479 -189 479 -151 z "},"Š":{"ha":764,"x_min":69,"x_max":701,"o":"m 701 268 q 658 117 701 179 q 535 20 615 54 q 343 -14 454 -14 q 239 -8 289 -14 q 146 10 189 -1 q 69 38 103 21 l 69 179 q 200 134 125 154 q 353 114 275 114 q 464 132 419 114 q 531 182 508 150 q 553 257 553 214 q 530 334 553 303 q 459 392 507 365 q 331 450 411 419 q 230 497 275 471 q 151 557 185 522 q 99 638 117 592 q 81 744 81 683 q 122 885 81 826 q 235 974 163 943 q 403 1006 307 1006 q 552 990 483 1006 q 683 946 621 974 l 636 822 q 521 861 579 846 q 399 876 463 876 q 306 860 343 876 q 249 814 268 843 q 231 746 231 785 q 251 669 231 700 q 318 613 272 639 q 439 557 364 588 q 581 488 522 525 q 671 398 640 450 q 701 268 701 346 m 318 1085 q 268 1153 299 1117 q 204 1226 238 1190 q 146 1289 171 1263 l 146 1307 l 246 1307 q 322 1251 282 1283 q 396 1182 361 1219 q 473 1251 433 1219 q 549 1307 513 1283 l 650 1307 l 650 1289 q 591 1226 625 1263 q 526 1153 557 1190 q 476 1085 494 1117 l 318 1085 z "},"š":{"ha":675,"x_min":68,"x_max":614,"o":"m 614 211 q 578 89 614 139 q 475 13 543 39 q 311 -14 407 -14 q 175 -2 233 -14 q 69 32 117 10 l 69 163 q 185 119 119 138 q 311 101 250 101 q 434 128 396 101 q 472 199 472 154 q 457 245 472 225 q 403 286 442 265 q 292 335 364 307 q 172 391 221 363 q 95 459 122 419 q 68 560 68 499 q 147 710 68 658 q 354 763 226 763 q 484 749 424 763 q 600 710 544 735 l 553 600 q 451 634 504 619 q 347 649 399 649 q 245 627 281 649 q 210 568 210 606 q 226 522 210 542 q 284 483 243 501 q 394 436 325 464 q 514 381 465 410 q 588 313 563 353 q 614 211 614 272 m 261 842 q 211 910 242 874 q 147 983 181 947 q 89 1046 114 1019 l 89 1064 l 189 1064 q 265 1008 225 1040 q 339 939 304 976 q 416 1008 376 976 q 492 1064 456 1040 l 593 1064 l 593 1046 q 534 983 568 1019 q 469 910 500 947 q 419 842 438 874 l 261 842 z "},"Ț":{"ha":781,"x_min":18,"x_max":763,"o":"m 465 0 l 315 0 l 315 863 l 18 863 l 18 992 l 763 992 l 763 863 l 465 863 l 465 0 m 489 -97 q 465 -162 482 -125 q 425 -237 447 -200 q 376 -307 403 -275 l 294 -307 l 294 -290 q 315 -228 304 -265 q 335 -153 326 -192 q 346 -85 344 -114 l 489 -85 l 489 -97 z "},"ț":{"ha":532,"x_min":25,"x_max":497,"o":"m 385 106 q 444 111 414 106 q 497 124 475 117 l 497 13 q 433 -6 474 1 q 353 -14 393 -14 q 241 7 292 -14 q 160 79 190 28 q 129 222 129 131 l 129 636 l 25 636 l 25 703 l 135 758 l 186 917 l 276 917 l 276 749 l 490 749 l 490 636 l 276 636 l 276 225 q 306 135 276 164 q 385 106 336 106 m 407 -97 q 383 -162 400 -125 q 343 -237 365 -200 q 294 -307 321 -275 l 213 -307 l 213 -290 q 233 -228 222 -265 q 253 -153 244 -192 q 264 -85 263 -114 l 407 -85 l 407 -97 z "},"Ť":{"ha":781,"x_min":18,"x_max":763,"o":"m 465 0 l 315 0 l 315 863 l 18 863 l 18 992 l 763 992 l 763 863 l 465 863 l 465 0 m 315 1085 q 265 1153 296 1117 q 201 1226 235 1190 q 143 1289 168 1263 l 143 1307 l 243 1307 q 319 1251 279 1283 q 393 1182 358 1219 q 470 1251 431 1219 q 546 1307 510 1283 l 647 1307 l 647 1289 q 588 1226 622 1263 q 523 1153 554 1190 q 474 1085 492 1117 l 315 1085 z "},"ť":{"ha":532,"x_min":25,"x_max":694,"o":"m 694 1043 q 669 980 686 1017 q 632 904 653 943 q 590 833 611 865 l 507 833 l 507 850 q 521 897 514 871 q 533 951 528 922 q 544 1006 539 979 q 551 1056 549 1033 l 694 1056 l 694 1043 m 385 106 q 444 111 414 106 q 497 124 475 117 l 497 13 q 433 -6 474 1 q 353 -14 393 -14 q 241 7 292 -14 q 160 79 190 28 q 129 222 129 131 l 129 636 l 25 636 l 25 703 l 135 758 l 186 917 l 276 917 l 276 749 l 490 749 l 490 636 l 276 636 l 276 225 q 306 135 276 164 q 385 106 336 106 z "},"Ŧ":{"ha":781,"x_min":18,"x_max":763,"o":"m 314 0 l 314 438 l 119 438 l 119 561 l 314 561 l 314 861 l 18 861 l 18 992 l 763 992 l 763 861 l 465 861 l 465 561 l 658 561 l 658 438 l 465 438 l 465 0 l 314 0 z "},"ŧ":{"ha":532,"x_min":25,"x_max":497,"o":"m 36 374 l 36 478 l 472 478 l 472 374 l 36 374 m 385 106 q 444 111 414 106 q 497 124 475 117 l 497 13 q 433 -6 474 1 q 353 -14 393 -14 q 241 7 292 -14 q 160 79 190 28 q 129 222 129 131 l 129 636 l 25 636 l 25 703 l 135 758 l 186 917 l 276 917 l 276 749 l 490 749 l 490 636 l 276 636 l 276 225 q 306 135 276 164 q 385 106 336 106 z "},"Ũ":{"ha":1025,"x_min":124,"x_max":901,"o":"m 901 350 q 859 165 901 247 q 729 34 817 82 q 508 -14 642 -14 q 222 87 319 -14 q 124 353 124 188 l 124 992 l 274 992 l 274 360 q 333 176 274 238 q 515 114 393 114 q 651 144 599 114 q 728 230 704 175 q 753 361 753 285 l 753 992 l 901 992 l 901 350 m 240 1085 q 258 1164 244 1129 q 292 1222 271 1199 q 340 1258 313 1246 q 403 1271 368 1271 q 460 1260 432 1271 q 515 1233 489 1249 q 565 1206 540 1218 q 613 1194 590 1194 q 660 1214 642 1194 q 686 1272 678 1233 l 765 1272 q 714 1135 757 1185 q 604 1086 671 1086 q 548 1097 575 1086 q 494 1124 521 1108 q 442 1151 467 1140 q 394 1163 418 1163 q 347 1143 364 1163 q 319 1085 329 1124 l 240 1085 z "},"ũ":{"ha":871,"x_min":106,"x_max":758,"o":"m 758 749 l 758 0 l 640 0 l 619 99 l 613 99 q 551 35 589 60 q 469 -2 514 10 q 376 -14 425 -14 q 230 15 290 -14 q 138 103 169 43 q 106 258 106 164 l 106 749 l 256 749 l 256 281 q 292 151 256 194 q 407 107 329 107 q 529 138 485 107 q 592 227 574 168 q 610 371 610 286 l 610 749 l 758 749 m 176 842 q 194 921 181 886 q 228 979 207 956 q 276 1015 249 1003 q 339 1028 304 1028 q 397 1017 368 1028 q 451 990 425 1006 q 501 963 476 975 q 549 951 526 951 q 596 971 578 951 q 622 1029 614 990 l 701 1029 q 650 892 693 942 q 540 843 607 843 q 484 854 511 843 q 430 881 457 865 q 378 908 403 897 q 331 919 354 919 q 283 900 300 919 q 256 842 265 881 l 176 842 z "},"Ū":{"ha":1025,"x_min":124,"x_max":901,"o":"m 901 350 q 859 165 901 247 q 729 34 817 82 q 508 -14 642 -14 q 222 87 319 -14 q 124 353 124 188 l 124 992 l 274 992 l 274 360 q 333 176 274 238 q 515 114 393 114 q 651 144 599 114 q 728 230 704 175 q 753 361 753 285 l 753 992 l 901 992 l 901 350 m 725 1194 l 725 1085 l 299 1085 l 299 1194 l 725 1194 z "},"ū":{"ha":871,"x_min":106,"x_max":758,"o":"m 758 749 l 758 0 l 640 0 l 619 99 l 613 99 q 551 35 589 60 q 469 -2 514 10 q 376 -14 425 -14 q 230 15 290 -14 q 138 103 169 43 q 106 258 106 164 l 106 749 l 256 749 l 256 281 q 292 151 256 194 q 407 107 329 107 q 529 138 485 107 q 592 227 574 168 q 610 371 610 286 l 610 749 l 758 749 m 649 951 l 649 842 l 222 842 l 222 951 l 649 951 z "},"Ŭ":{"ha":1025,"x_min":124,"x_max":901,"o":"m 901 350 q 859 165 901 247 q 729 34 817 82 q 508 -14 642 -14 q 222 87 319 -14 q 124 353 124 188 l 124 992 l 274 992 l 274 360 q 333 176 274 238 q 515 114 393 114 q 651 144 599 114 q 728 230 704 175 q 753 361 753 285 l 753 992 l 901 992 l 901 350 m 747 1283 q 713 1180 743 1225 q 633 1110 683 1135 q 513 1085 582 1085 q 347 1139 404 1085 q 285 1283 290 1193 l 372 1283 q 394 1227 376 1246 q 443 1203 413 1208 q 515 1197 474 1197 q 581 1203 550 1197 q 633 1228 611 1210 q 658 1283 654 1247 l 747 1283 z "},"ŭ":{"ha":871,"x_min":106,"x_max":758,"o":"m 758 749 l 758 0 l 640 0 l 619 99 l 613 99 q 551 35 589 60 q 469 -2 514 10 q 376 -14 425 -14 q 230 15 290 -14 q 138 103 169 43 q 106 258 106 164 l 106 749 l 256 749 l 256 281 q 292 151 256 194 q 407 107 329 107 q 529 138 485 107 q 592 227 574 168 q 610 371 610 286 l 610 749 l 758 749 m 671 1040 q 637 937 667 982 q 556 867 607 892 q 436 842 506 842 q 271 896 328 842 q 208 1040 214 950 l 296 1040 q 318 984 300 1003 q 367 960 336 965 q 439 954 397 954 q 504 960 474 954 q 556 985 535 967 q 582 1040 578 1004 l 671 1040 z "},"Ů":{"ha":1025,"x_min":124,"x_max":901,"o":"m 901 350 q 859 165 901 247 q 729 34 817 82 q 508 -14 642 -14 q 222 87 319 -14 q 124 353 124 188 l 124 992 l 274 992 l 274 360 q 333 176 274 238 q 515 114 393 114 q 651 144 599 114 q 728 230 704 175 q 753 361 753 285 l 753 992 l 901 992 l 901 350 m 507 1085 q 393 1124 436 1085 q 350 1236 350 1164 q 393 1347 350 1307 q 507 1386 436 1386 q 620 1347 574 1386 q 667 1238 667 1307 q 621 1124 667 1164 q 507 1085 575 1085 m 507 1161 q 560 1181 539 1161 q 581 1236 581 1201 q 559 1290 581 1269 q 507 1310 538 1310 q 453 1290 475 1310 q 432 1236 432 1269 q 451 1181 432 1201 q 507 1161 471 1161 z "},"ů":{"ha":871,"x_min":106,"x_max":758,"o":"m 758 749 l 758 0 l 640 0 l 619 99 l 613 99 q 551 35 589 60 q 469 -2 514 10 q 376 -14 425 -14 q 230 15 290 -14 q 138 103 169 43 q 106 258 106 164 l 106 749 l 256 749 l 256 281 q 292 151 256 194 q 407 107 329 107 q 529 138 485 107 q 592 227 574 168 q 610 371 610 286 l 610 749 l 758 749 m 435 842 q 321 881 364 842 q 278 993 278 921 q 321 1103 278 1064 q 435 1143 364 1143 q 548 1103 501 1143 q 594 994 594 1064 q 549 881 594 921 q 435 842 503 842 m 435 918 q 488 938 467 918 q 508 993 508 958 q 487 1047 508 1026 q 435 1067 465 1067 q 381 1047 403 1067 q 360 993 360 1026 q 379 938 360 958 q 435 918 399 918 z "},"Ű":{"ha":1025,"x_min":124,"x_max":901,"o":"m 901 350 q 859 165 901 247 q 729 34 817 82 q 508 -14 642 -14 q 222 87 319 -14 q 124 353 124 188 l 124 992 l 274 992 l 274 360 q 333 176 274 238 q 515 114 393 114 q 651 144 599 114 q 728 230 704 175 q 753 361 753 285 l 753 992 l 901 992 l 901 350 m 775 1293 q 741 1247 764 1275 q 689 1189 718 1219 q 631 1131 660 1158 q 578 1085 601 1104 l 496 1085 l 496 1101 q 538 1164 515 1128 q 583 1238 561 1200 q 621 1307 606 1276 l 775 1307 l 775 1293 m 522 1293 q 489 1247 511 1275 q 438 1189 467 1219 q 379 1131 408 1158 q 326 1085 350 1104 l 244 1085 l 244 1101 q 287 1164 264 1128 q 331 1238 310 1200 q 368 1307 353 1276 l 522 1307 l 522 1293 z "},"ű":{"ha":871,"x_min":106,"x_max":758,"o":"m 758 749 l 758 0 l 640 0 l 619 99 l 613 99 q 551 35 589 60 q 469 -2 514 10 q 376 -14 425 -14 q 230 15 290 -14 q 138 103 169 43 q 106 258 106 164 l 106 749 l 256 749 l 256 281 q 292 151 256 194 q 407 107 329 107 q 529 138 485 107 q 592 227 574 168 q 610 371 610 286 l 610 749 l 758 749 m 697 1050 q 663 1004 686 1032 q 611 946 640 976 q 553 888 582 915 q 500 842 524 861 l 418 842 l 418 858 q 460 921 438 885 q 506 995 483 957 q 543 1064 528 1033 l 697 1064 l 697 1050 m 444 1050 q 411 1004 433 1032 q 360 946 389 976 q 301 888 331 915 q 249 842 272 861 l 167 842 l 167 858 q 209 921 186 885 q 253 995 232 957 q 290 1064 275 1033 l 444 1064 l 444 1050 z "},"Ų":{"ha":1025,"x_min":124,"x_max":901,"o":"m 656 -146 q 672 -202 656 -185 q 715 -219 689 -219 q 756 -216 739 -219 q 785 -210 774 -212 l 785 -300 q 744 -310 765 -306 q 693 -314 722 -314 q 580 -275 618 -314 q 542 -164 542 -236 q 564 -76 542 -119 q 619 1 586 -33 q 683 57 651 36 l 783 74 q 711 -11 740 26 q 669 -81 682 -49 q 656 -146 656 -114 m 901 350 q 859 165 901 247 q 729 34 817 82 q 508 -14 642 -14 q 222 87 319 -14 q 124 353 124 188 l 124 992 l 274 992 l 274 360 q 333 176 274 238 q 515 114 393 114 q 651 144 599 114 q 728 230 704 175 q 753 361 753 285 l 753 992 l 901 992 l 901 350 z "},"ų":{"ha":871,"x_min":106,"x_max":765,"o":"m 758 749 l 758 0 l 640 0 l 619 99 l 613 99 q 551 35 589 60 q 469 -2 514 10 q 376 -14 425 -14 q 230 15 290 -14 q 138 103 169 43 q 106 258 106 164 l 106 749 l 256 749 l 256 281 q 292 151 256 194 q 407 107 329 107 q 529 138 485 107 q 592 227 574 168 q 610 371 610 286 l 610 749 l 758 749 m 635 -157 q 651 -201 635 -186 q 696 -215 668 -215 q 736 -212 718 -215 q 765 -207 754 -208 l 765 -297 q 724 -307 746 -303 q 674 -311 703 -311 q 560 -275 599 -311 q 522 -175 522 -239 q 541 -100 522 -136 q 591 -32 560 -64 q 656 24 622 0 l 729 0 q 658 -80 682 -44 q 635 -157 635 -115 z "},"Ŵ":{"ha":1307,"x_min":11,"x_max":1294,"o":"m 1294 992 l 1033 0 l 874 0 l 699 613 q 683 668 690 638 q 668 728 675 699 q 656 782 661 758 q 649 818 651 806 q 643 782 647 806 q 632 728 639 758 q 618 667 625 699 q 603 608 611 636 l 431 0 l 271 0 l 11 992 l 165 992 l 311 406 q 325 343 318 375 q 338 279 332 311 q 349 217 344 247 q 358 163 354 188 q 367 219 363 189 q 379 283 372 250 q 394 347 386 315 q 410 406 401 379 l 575 992 l 725 992 l 896 403 q 912 343 904 375 q 926 278 919 311 q 938 216 933 246 q 947 163 943 186 q 959 238 951 197 q 976 323 967 279 q 996 406 986 367 l 1142 992 l 1294 992 m 726 1307 q 776 1238 744 1276 q 840 1163 807 1200 q 900 1101 874 1126 l 900 1085 l 799 1085 q 725 1138 763 1107 q 650 1206 688 1169 q 576 1139 613 1169 q 504 1085 540 1108 l 404 1085 l 404 1101 q 463 1164 431 1128 q 526 1238 496 1200 q 576 1307 557 1276 l 726 1307 z "},"ŵ":{"ha":1122,"x_min":15,"x_max":1106,"o":"m 621 375 q 605 436 614 403 q 588 503 596 469 q 572 567 579 538 q 561 613 565 596 l 556 613 q 547 567 553 596 q 532 503 540 538 q 515 435 524 469 q 497 374 507 401 l 386 1 l 222 1 l 15 750 l 165 750 l 263 371 q 283 289 274 332 q 299 206 292 246 q 310 140 307 167 l 315 140 q 324 185 318 158 q 335 242 329 213 q 348 300 342 272 q 361 346 354 328 l 481 750 l 642 750 l 758 346 q 776 280 767 318 q 794 205 786 242 q 804 142 801 168 l 810 142 q 819 203 813 165 q 837 286 826 242 q 857 371 847 331 l 957 750 l 1106 750 l 896 1 l 728 1 l 621 375 m 636 1064 q 685 995 654 1033 q 750 920 717 957 q 810 858 783 883 l 810 842 l 708 842 q 635 895 672 864 q 560 963 597 926 q 486 896 522 926 q 414 842 450 865 l 314 842 l 314 858 q 373 921 340 885 q 436 995 406 957 q 486 1064 467 1033 l 636 1064 z "},"Ŷ":{"ha":811,"x_min":0,"x_max":811,"o":"m 406 525 l 647 992 l 811 992 l 481 385 l 481 0 l 329 0 l 329 379 l 0 992 l 164 992 l 406 525 m 479 1307 q 528 1238 497 1276 q 593 1163 560 1200 q 653 1101 626 1126 l 653 1085 l 551 1085 q 478 1138 515 1107 q 403 1206 440 1169 q 329 1139 365 1169 q 257 1085 293 1108 l 157 1085 l 157 1101 q 216 1164 183 1128 q 279 1238 249 1200 q 329 1307 310 1276 l 479 1307 z "},"ŷ":{"ha":733,"x_min":1,"x_max":733,"o":"m 1 749 l 158 749 l 314 322 q 335 258 325 289 q 354 198 346 228 q 367 140 363 168 l 372 140 q 396 224 381 174 q 428 324 411 274 l 576 749 l 733 749 l 415 -93 q 350 -221 388 -167 q 259 -304 313 -275 q 128 -333 206 -333 q 69 -330 94 -333 q 25 -322 43 -326 l 25 -206 q 62 -211 40 -208 q 107 -214 83 -214 q 181 -197 150 -214 q 233 -151 211 -181 q 269 -82 254 -121 l 301 0 l 1 749 m 442 1064 q 491 995 460 1033 q 556 920 522 957 q 615 858 589 883 l 615 842 l 514 842 q 440 895 478 864 q 365 963 403 926 q 292 896 328 926 q 219 842 256 865 l 119 842 l 119 858 q 178 921 146 885 q 242 995 211 957 q 292 1064 272 1033 l 442 1064 z "},"Ÿ":{"ha":811,"x_min":0,"x_max":811,"o":"m 406 525 l 647 992 l 811 992 l 481 385 l 481 0 l 329 0 l 329 379 l 0 992 l 164 992 l 406 525 m 196 1192 q 217 1249 196 1231 q 269 1267 239 1267 q 322 1249 300 1267 q 344 1192 344 1231 q 322 1134 344 1153 q 269 1115 300 1115 q 217 1134 239 1115 q 196 1192 196 1153 m 468 1192 q 490 1249 468 1231 q 542 1267 511 1267 q 594 1249 572 1267 q 617 1192 617 1231 q 594 1134 617 1153 q 542 1115 572 1115 q 490 1134 511 1115 q 468 1192 468 1153 z "},"Ź":{"ha":797,"x_min":47,"x_max":749,"o":"m 749 0 l 47 0 l 47 107 l 556 863 l 63 863 l 63 992 l 736 992 l 736 885 l 228 129 l 749 129 l 749 0 m 624 1293 q 582 1246 608 1274 q 525 1188 556 1218 q 464 1131 494 1158 q 407 1085 433 1104 l 310 1085 l 310 1101 q 357 1164 331 1128 q 408 1238 383 1200 q 450 1307 433 1276 l 624 1307 l 624 1293 z "},"ź":{"ha":663,"x_min":50,"x_max":611,"o":"m 611 0 l 50 0 l 50 93 l 436 635 l 74 635 l 74 749 l 600 749 l 600 644 l 222 114 l 611 114 l 611 0 m 560 1050 q 518 1003 544 1031 q 461 945 492 975 q 400 888 431 915 q 343 842 369 861 l 246 842 l 246 858 q 293 921 267 885 q 344 995 319 957 q 386 1064 369 1033 l 560 1064 l 560 1050 z "},"Ż":{"ha":797,"x_min":47,"x_max":749,"o":"m 749 0 l 47 0 l 47 107 l 556 863 l 63 863 l 63 992 l 736 992 l 736 885 l 228 129 l 749 129 l 749 0 m 407 1276 q 465 1257 440 1276 q 490 1192 490 1238 q 465 1127 490 1147 q 407 1107 440 1107 q 347 1127 371 1107 q 322 1192 322 1147 q 347 1257 322 1238 q 407 1276 371 1276 z "},"ż":{"ha":663,"x_min":50,"x_max":611,"o":"m 611 0 l 50 0 l 50 93 l 436 635 l 74 635 l 74 749 l 600 749 l 600 644 l 222 114 l 611 114 l 611 0 m 332 1033 q 390 1014 365 1033 q 415 949 415 994 q 390 884 415 904 q 332 864 365 864 q 272 884 296 864 q 247 949 247 904 q 272 1014 247 994 q 332 1033 296 1033 z "},"Ž":{"ha":797,"x_min":47,"x_max":749,"o":"m 749 0 l 47 0 l 47 107 l 556 863 l 63 863 l 63 992 l 736 992 l 736 885 l 228 129 l 749 129 l 749 0 m 328 1085 q 278 1153 308 1117 q 214 1226 247 1190 q 156 1289 181 1263 l 156 1307 l 256 1307 q 331 1251 292 1283 q 406 1182 371 1219 q 483 1251 443 1219 q 558 1307 522 1283 l 660 1307 l 660 1289 q 601 1226 635 1263 q 535 1153 567 1190 q 486 1085 504 1117 l 328 1085 z "},"ž":{"ha":663,"x_min":50,"x_max":611,"o":"m 611 0 l 50 0 l 50 93 l 436 635 l 74 635 l 74 749 l 600 749 l 600 644 l 222 114 l 611 114 l 611 0 m 256 842 q 206 910 236 874 q 142 983 175 947 q 83 1046 108 1019 l 83 1064 l 183 1064 q 259 1008 219 1040 q 333 939 299 976 q 410 1008 371 976 q 486 1064 450 1040 l 588 1064 l 588 1046 q 528 983 563 1019 q 463 910 494 947 q 414 842 432 874 l 256 842 z "},"ſ":{"ha":476,"x_min":115,"x_max":521,"o":"m 374 943 q 291 910 319 943 q 263 803 263 876 l 263 0 l 115 0 l 115 806 q 147 957 115 901 q 235 1038 178 1013 q 367 1063 292 1063 q 455 1054 417 1063 q 521 1035 493 1046 l 483 922 q 433 936 461 929 q 374 943 404 943 z "},"ƒ":{"ha":617,"x_min":-10,"x_max":678,"o":"m 204 -336 q 47 -283 104 -336 q -10 -140 -10 -229 q -6 -99 -10 -119 q 3 -62 -3 -79 l 125 -94 q 120 -114 122 -103 q 118 -136 118 -125 q 140 -198 118 -176 q 192 -219 161 -219 q 249 -193 228 -219 q 271 -106 271 -167 l 271 636 l 144 636 l 144 706 l 271 751 l 271 799 q 300 952 271 894 q 385 1036 329 1010 q 519 1063 442 1063 q 610 1054 569 1063 q 678 1036 650 1046 l 640 924 q 588 937 617 931 q 528 943 560 943 q 445 907 472 943 q 418 797 418 871 l 418 749 l 603 749 l 603 636 l 418 636 l 418 -97 q 393 -227 418 -174 q 321 -308 368 -281 q 204 -336 274 -336 z "},"Ǻ":{"ha":910,"x_min":0,"x_max":910,"o":"m 353 864 q 311 909 326 881 q 296 975 296 938 q 340 1088 296 1047 q 453 1128 383 1128 q 567 1088 519 1128 q 614 976 614 1049 q 599 910 614 939 q 557 864 583 882 l 910 0 l 751 0 l 649 253 l 256 253 l 158 0 l 0 0 l 353 864 m 301 383 l 610 383 l 506 644 q 489 690 499 663 q 471 745 479 717 q 454 800 463 774 q 428 716 443 761 q 404 642 414 671 l 301 383 m 453 901 q 506 921 485 901 q 526 975 526 940 q 506 1031 526 1011 q 453 1050 485 1050 q 399 1031 421 1050 q 378 975 378 1011 q 397 922 378 942 q 453 901 417 901 m 378 1176 q 419 1224 397 1197 q 461 1278 440 1250 q 496 1331 482 1307 l 669 1331 l 669 1319 q 636 1283 658 1304 q 586 1240 614 1263 q 530 1197 558 1218 q 478 1163 501 1176 l 378 1163 l 378 1176 z "},"ǻ":{"ha":794,"x_min":61,"x_max":686,"o":"m 413 761 q 618 699 550 761 q 686 507 686 638 l 686 0 l 581 0 l 551 104 l 546 104 q 480 38 514 64 q 402 -1 446 11 q 296 -14 358 -14 q 176 10 229 -14 q 92 85 122 35 q 61 213 61 136 q 148 386 61 326 q 414 451 235 446 l 540 456 l 540 494 q 503 614 540 581 q 397 647 465 647 q 288 630 342 647 q 188 590 235 613 l 143 697 q 264 743 194 725 q 413 761 333 761 m 439 356 q 263 315 313 351 q 214 213 214 278 q 249 128 214 154 q 339 101 283 101 q 483 149 425 101 q 540 294 540 197 l 540 360 l 439 356 m 404 1063 q 351 1043 372 1063 q 331 989 331 1024 q 349 935 331 954 q 404 915 368 915 q 458 935 438 915 q 478 989 478 954 q 457 1043 478 1024 q 404 1063 436 1063 m 404 1139 q 486 1122 450 1139 q 543 1071 522 1104 q 564 990 564 1038 q 519 878 564 918 q 404 838 474 838 q 291 878 333 838 q 249 989 249 918 q 291 1099 249 1060 q 404 1139 333 1139 m 633 1324 q 581 1283 619 1308 q 497 1232 542 1257 q 421 1190 453 1207 l 318 1190 l 318 1201 q 359 1242 338 1219 q 401 1288 381 1264 q 436 1332 422 1313 l 633 1332 l 633 1324 z "},"Ǽ":{"ha":1253,"x_min":-1,"x_max":1169,"o":"m 1169 0 l 631 0 l 631 286 l 288 286 l 153 0 l -1 0 l 463 992 l 1169 992 l 1169 864 l 781 864 l 781 581 l 1144 581 l 1144 454 l 781 454 l 781 129 l 1169 129 l 1169 0 m 344 417 l 631 417 l 631 861 l 549 861 l 344 417 m 908 1293 q 867 1246 893 1274 q 810 1188 840 1218 q 749 1131 779 1158 q 692 1085 718 1104 l 594 1085 l 594 1101 q 642 1164 615 1128 q 693 1238 668 1200 q 735 1307 718 1276 l 908 1307 l 908 1293 z "},"ǽ":{"ha":1222,"x_min":63,"x_max":1154,"o":"m 853 763 q 1013 722 944 763 q 1117 605 1081 681 q 1154 426 1154 529 l 1154 343 l 674 343 q 730 165 676 224 q 881 106 783 106 q 1006 119 950 106 q 1118 158 1063 132 l 1118 36 q 1006 -1 1063 11 q 875 -14 950 -14 q 758 3 813 -14 q 662 53 704 19 q 589 138 619 88 q 516 56 556 90 q 425 4 476 22 q 300 -14 374 -14 q 180 10 233 -14 q 94 85 126 35 q 63 213 63 136 q 99 341 63 289 q 211 421 136 393 q 397 451 286 449 l 524 456 l 524 506 q 485 615 524 583 q 381 647 447 647 q 274 631 326 647 q 174 592 221 615 l 128 697 q 250 744 179 726 q 392 763 321 763 q 532 735 475 763 q 621 651 589 708 q 718 733 660 704 q 853 763 776 763 m 426 357 q 260 315 307 351 q 214 211 214 278 q 247 126 214 153 q 333 100 279 100 q 429 122 386 100 q 497 186 472 143 q 522 294 522 229 l 522 360 l 426 357 m 851 649 q 728 599 774 649 q 676 451 683 549 l 1006 451 q 989 554 1006 510 q 938 624 972 599 q 851 649 904 649 m 839 1050 q 797 1003 824 1031 q 740 945 771 975 q 679 888 710 915 q 622 842 649 861 l 525 842 l 525 858 q 572 921 546 885 q 624 995 599 957 q 665 1064 649 1033 l 839 1064 l 839 1050 z "},"Ǿ":{"ha":1089,"x_min":82,"x_max":1006,"o":"m 1006 497 q 977 288 1006 382 q 891 126 949 194 q 747 22 833 58 q 544 -14 660 -14 q 408 1 471 -14 q 297 44 346 17 l 232 -49 l 139 13 l 208 111 q 113 278 144 179 q 82 499 82 376 q 133 765 82 651 q 286 943 183 879 q 546 1007 389 1007 q 678 992 617 1007 q 789 949 739 976 l 851 1039 l 943 978 l 875 882 q 973 717 940 815 q 1006 497 1006 619 m 847 497 q 788 753 847 660 l 375 160 q 450 127 407 139 q 544 115 493 115 q 717 161 650 115 q 815 293 783 207 q 847 497 847 379 m 242 497 q 256 355 242 419 q 299 243 269 290 l 711 835 q 638 867 679 856 q 546 878 596 878 q 373 832 440 878 q 274 701 306 786 q 242 497 242 617 m 776 1293 q 735 1246 761 1274 q 678 1188 708 1218 q 617 1131 647 1158 q 560 1085 586 1104 l 463 1085 l 463 1101 q 510 1164 483 1128 q 561 1238 536 1200 q 603 1307 586 1276 l 776 1307 l 776 1293 z "},"ǿ":{"ha":846,"x_min":72,"x_max":775,"o":"m 775 375 q 732 164 775 251 q 610 31 689 76 q 421 -14 531 -14 q 329 -3 372 -14 q 247 28 286 8 l 196 -47 l 108 11 l 165 93 q 97 214 121 143 q 72 375 72 285 q 167 662 72 561 q 425 763 261 763 q 519 751 475 763 q 603 717 564 739 l 653 788 l 740 729 l 685 651 q 751 532 726 601 q 775 375 775 463 m 224 375 q 230 289 224 329 q 251 217 236 249 l 529 613 q 482 633 510 625 q 422 640 454 640 q 271 571 318 640 q 224 375 224 501 m 624 375 q 617 457 624 419 q 599 525 610 494 l 321 132 q 368 113 342 119 q 424 107 394 107 q 538 139 493 107 q 603 231 582 171 q 624 375 624 292 m 643 1050 q 601 1003 628 1031 q 544 945 575 975 q 483 888 514 915 q 426 842 453 861 l 329 842 l 329 858 q 376 921 350 885 q 428 995 403 957 q 469 1064 453 1033 l 643 1064 l 643 1050 z "},"Ș":{"ha":764,"x_min":69,"x_max":701,"o":"m 701 268 q 658 117 701 179 q 535 20 615 54 q 343 -14 454 -14 q 239 -8 289 -14 q 146 10 189 -1 q 69 38 103 21 l 69 179 q 200 134 125 154 q 353 114 275 114 q 464 132 419 114 q 531 182 508 150 q 553 257 553 214 q 530 334 553 303 q 459 392 507 365 q 331 450 411 419 q 230 497 275 471 q 151 557 185 522 q 99 638 117 592 q 81 744 81 683 q 122 885 81 826 q 235 974 163 943 q 403 1006 307 1006 q 552 990 483 1006 q 683 946 621 974 l 636 822 q 521 861 579 846 q 399 876 463 876 q 306 860 343 876 q 249 814 268 843 q 231 746 231 785 q 251 669 231 700 q 318 613 272 639 q 439 557 364 588 q 581 488 522 525 q 671 398 640 450 q 701 268 701 346 m 460 -97 q 435 -162 453 -125 q 396 -237 418 -200 q 347 -307 374 -275 l 265 -307 l 265 -290 q 286 -228 275 -265 q 306 -153 297 -192 q 317 -85 315 -114 l 460 -85 l 460 -97 z "},"ș":{"ha":675,"x_min":68,"x_max":614,"o":"m 614 211 q 578 89 614 139 q 475 13 543 39 q 311 -14 407 -14 q 175 -2 233 -14 q 69 32 117 10 l 69 163 q 185 119 119 138 q 311 101 250 101 q 434 128 396 101 q 472 199 472 154 q 457 245 472 225 q 403 286 442 265 q 292 335 364 307 q 172 391 221 363 q 95 459 122 419 q 68 560 68 499 q 147 710 68 658 q 354 763 226 763 q 484 749 424 763 q 600 710 544 735 l 553 600 q 451 634 504 619 q 347 649 399 649 q 245 627 281 649 q 210 568 210 606 q 226 522 210 542 q 284 483 243 501 q 394 436 325 464 q 514 381 465 410 q 588 313 563 353 q 614 211 614 272 m 433 -97 q 409 -162 426 -125 q 369 -237 392 -200 q 321 -307 347 -275 l 239 -307 l 239 -290 q 260 -228 249 -265 q 280 -153 271 -192 q 290 -85 289 -114 l 433 -85 l 433 -97 z "},"ˆ":{"ha":607,"x_min":56,"x_max":551,"o":"m 378 1064 q 427 995 396 1033 q 492 920 458 957 q 551 858 525 883 l 551 842 l 450 842 q 376 895 414 864 q 301 963 339 926 q 228 896 264 926 q 156 842 192 865 l 56 842 l 56 858 q 115 921 82 885 q 178 995 147 957 q 228 1064 208 1033 l 378 1064 z "},"ˇ":{"ha":615,"x_min":56,"x_max":560,"o":"m 228 842 q 178 910 208 874 q 114 983 147 947 q 56 1046 81 1019 l 56 1064 l 156 1064 q 231 1008 192 1040 q 306 939 271 976 q 383 1008 343 976 q 458 1064 422 1040 l 560 1064 l 560 1046 q 501 983 535 1019 q 435 910 467 947 q 386 842 404 874 l 228 842 z "},"ˉ":{"ha":538,"x_min":56,"x_max":482,"o":"m 482 951 l 482 842 l 56 842 l 56 951 l 482 951 z "},"˘":{"ha":574,"x_min":56,"x_max":518,"o":"m 518 1040 q 484 937 514 982 q 403 867 454 892 q 283 842 353 842 q 118 896 175 842 q 56 1040 61 950 l 143 1040 q 165 984 147 1003 q 214 960 183 965 q 286 954 244 954 q 351 960 321 954 q 403 985 382 967 q 429 1040 425 1004 l 518 1040 z "},"˙":{"ha":279,"x_min":56,"x_max":224,"o":"m 140 1033 q 199 1014 174 1033 q 224 949 224 994 q 199 884 224 904 q 140 864 174 864 q 80 884 104 864 q 56 949 56 904 q 80 1014 56 994 q 140 1033 104 1033 z "},"˚":{"ha":428,"x_min":56,"x_max":372,"o":"m 213 842 q 99 881 142 842 q 56 993 56 921 q 99 1103 56 1064 q 213 1143 142 1143 q 326 1103 279 1143 q 372 994 372 1064 q 326 881 372 921 q 213 842 281 842 m 213 918 q 265 938 244 918 q 286 993 286 958 q 265 1047 286 1026 q 213 1067 243 1067 q 159 1047 181 1067 q 138 993 138 1026 q 157 938 138 958 q 213 918 176 918 z "},"˛":{"ha":354,"x_min":56,"x_max":299,"o":"m 168 -157 q 185 -201 168 -186 q 229 -215 201 -215 q 269 -212 251 -215 q 299 -207 288 -208 l 299 -297 q 258 -307 279 -303 q 207 -311 236 -311 q 94 -275 132 -311 q 56 -175 56 -239 q 74 -100 56 -136 q 124 -32 93 -64 q 189 24 156 0 l 263 0 q 192 -80 215 -44 q 168 -157 168 -115 z "},"˜":{"ha":636,"x_min":56,"x_max":581,"o":"m 56 842 q 73 921 60 886 q 107 979 86 956 q 156 1015 128 1003 q 218 1028 183 1028 q 276 1017 247 1028 q 330 990 304 1006 q 381 963 356 975 q 428 951 406 951 q 475 971 457 951 q 501 1029 493 990 l 581 1029 q 529 892 572 942 q 419 843 486 843 q 363 854 390 843 q 309 881 336 865 q 258 908 282 897 q 210 919 233 919 q 162 900 179 919 q 135 842 144 881 l 56 842 z "},"˝":{"ha":642,"x_min":56,"x_max":586,"o":"m 586 1050 q 552 1004 575 1032 q 500 946 529 976 q 442 888 471 915 q 389 842 413 861 l 307 842 l 307 858 q 349 921 326 885 q 394 995 372 957 q 432 1064 417 1033 l 586 1064 l 586 1050 m 333 1050 q 300 1004 322 1032 q 249 946 278 976 q 190 888 219 915 q 138 842 161 861 l 56 842 l 56 858 q 98 921 75 885 q 142 995 121 957 q 179 1064 164 1033 l 333 1064 l 333 1050 z "},"΄":{"ha":349,"x_min":56,"x_max":293,"o":"m 56 842 l 56 858 l 122 1078 l 293 1078 l 293 1064 l 151 842 l 56 842 z "},"΅":{"ha":958,"x_min":201,"x_max":756,"o":"m 382 842 l 382 858 l 433 1078 l 606 1078 l 606 1064 l 481 842 l 382 842 m 275 872 q 224 891 246 872 q 201 947 201 910 q 224 1005 201 988 q 275 1022 246 1022 q 328 1005 306 1022 q 350 949 350 988 q 328 891 350 910 q 275 872 306 872 m 682 872 q 630 891 651 872 q 608 947 608 910 q 630 1005 608 988 q 681 1022 651 1022 q 733 1005 711 1022 q 756 949 756 988 q 733 891 756 910 q 682 872 711 872 z "},"Ά":{"ha":1019,"x_min":14,"x_max":1018,"o":"m 860 0 l 753 285 l 372 285 l 267 0 l 110 0 l 486 996 l 642 996 l 1018 0 l 860 0 m 613 692 q 598 738 608 706 q 578 806 588 771 q 563 861 568 840 q 547 799 556 832 q 531 739 539 767 q 517 692 522 711 l 417 415 l 711 415 l 613 692 m 14 756 l 14 772 l 81 992 l 251 992 l 251 978 l 110 756 l 14 756 z "},"·":{"ha":378,"x_min":93,"x_max":285,"o":"m 93 667 q 121 744 93 722 q 188 767 149 767 q 256 744 228 767 q 285 667 285 722 q 256 589 285 613 q 188 565 228 565 q 121 589 149 565 q 93 667 93 613 z "},"Έ":{"ha":1026,"x_min":14,"x_max":943,"o":"m 943 0 l 385 0 l 385 992 l 943 992 l 943 864 l 535 864 l 535 581 l 918 581 l 918 454 l 535 454 l 535 129 l 943 129 l 943 0 m 14 756 l 14 772 l 81 992 l 251 992 l 251 978 l 110 756 l 14 756 z "},"Ή":{"ha":1292,"x_min":14,"x_max":1158,"o":"m 1158 0 l 1008 0 l 1008 453 l 535 453 l 535 0 l 385 0 l 385 992 l 535 992 l 535 581 l 1008 581 l 1008 992 l 1158 992 l 1158 0 m 14 756 l 14 772 l 81 992 l 251 992 l 251 978 l 110 756 l 14 756 z "},"Ί":{"ha":775,"x_min":14,"x_max":717,"o":"m 717 0 l 332 0 l 332 86 l 450 121 l 450 869 l 332 906 l 332 992 l 717 992 l 717 906 l 600 869 l 600 121 l 717 86 l 717 0 m 14 756 l 14 772 l 81 992 l 251 992 l 251 978 l 110 756 l 14 756 z "},"Ό":{"ha":1274,"x_min":14,"x_max":1189,"o":"m 1189 497 q 1160 288 1189 382 q 1074 126 1132 194 q 930 22 1017 58 q 728 -14 843 -14 q 523 23 610 -14 q 378 127 436 60 q 293 289 321 194 q 265 499 265 383 q 316 765 265 651 q 469 943 367 879 q 729 1007 572 1007 q 984 944 882 1007 q 1138 766 1086 881 q 1189 497 1189 651 m 425 497 q 457 293 425 379 q 556 161 489 207 q 728 115 624 115 q 900 161 833 115 q 999 293 967 207 q 1031 497 1031 379 q 959 776 1031 675 q 729 878 888 878 q 556 832 624 878 q 457 701 489 786 q 425 497 425 617 m 14 756 l 14 772 l 81 992 l 251 992 l 251 978 l 110 756 l 14 756 z "},"Ύ":{"ha":1131,"x_min":14,"x_max":1131,"o":"m 726 525 l 968 992 l 1132 992 l 801 385 l 801 0 l 650 0 l 650 379 l 321 992 l 485 992 l 726 525 m 14 756 l 14 772 l 81 992 l 251 992 l 251 978 l 110 756 l 14 756 z "},"Ώ":{"ha":1207,"x_min":14,"x_max":1169,"o":"m 233 0 l 233 129 l 449 129 q 347 226 394 168 q 271 363 300 285 q 242 538 242 442 q 296 779 242 674 q 453 946 350 885 q 701 1007 556 1007 q 951 947 849 1007 q 1108 781 1053 886 q 1163 539 1163 675 q 1133 363 1163 442 q 1058 226 1104 285 q 956 129 1011 168 l 1171 129 l 1171 0 l 788 0 l 788 126 q 916 244 868 183 q 985 376 964 306 q 1006 532 1006 446 q 972 711 1006 633 q 871 833 938 789 q 701 878 804 878 q 533 833 600 878 q 433 711 465 789 q 400 531 400 633 q 420 376 400 447 q 488 244 440 306 q 615 126 535 183 l 615 0 l 233 0 m 14 756 l 14 772 l 81 992 l 251 992 l 251 978 l 110 756 l 14 756 z "},"ΐ":{"ha":489,"x_min":-25,"x_max":529,"o":"m 339 -14 q 210 15 260 -14 q 136 95 160 43 q 113 217 113 147 l 113 749 l 260 749 l 260 224 q 289 131 260 156 q 361 107 318 107 q 411 111 389 107 q 454 121 433 115 l 454 3 q 405 -9 435 -4 q 339 -14 375 -14 m 156 842 l 156 858 l 207 1078 l 379 1078 l 379 1064 l 254 842 l 156 842 m 49 872 q -3 891 19 872 q -25 947 -25 910 q -3 1005 -25 988 q 49 1022 19 1022 q 101 1005 79 1022 q 124 949 124 988 q 101 891 124 910 q 49 872 79 872 m 456 872 q 403 891 425 872 q 382 947 382 910 q 403 1005 382 988 q 454 1022 425 1022 q 507 1005 485 1022 q 529 949 529 988 q 507 891 529 910 q 456 872 485 872 z "},"Α":{"ha":910,"x_min":0,"x_max":908,"o":"m 750 0 l 643 285 l 263 285 l 157 0 l 0 0 l 376 996 l 532 996 l 908 0 l 750 0 m 503 692 q 488 738 499 706 q 468 806 478 771 q 453 861 458 840 q 438 799 446 832 q 421 739 429 767 q 407 692 413 711 l 307 415 l 601 415 l 503 692 z "},"Β":{"ha":908,"x_min":129,"x_max":836,"o":"m 424 992 q 710 935 615 992 q 804 746 804 879 q 783 641 804 686 q 720 567 761 596 q 622 526 679 538 l 622 519 q 729 484 681 510 q 807 410 778 458 q 836 283 836 361 q 793 130 836 193 q 672 33 750 67 q 485 0 594 0 l 129 0 l 129 992 l 424 992 m 446 576 q 606 615 563 576 q 649 728 649 654 q 597 835 649 801 q 428 868 544 868 l 281 868 l 281 576 l 446 576 m 281 457 l 281 124 l 461 124 q 629 172 582 124 q 676 296 676 219 q 656 379 676 343 q 585 436 635 415 q 453 457 536 457 l 281 457 z "},"Γ":{"ha":706,"x_min":132,"x_max":663,"o":"m 132 0 l 132 992 l 663 992 l 663 864 l 281 864 l 281 0 l 132 0 z "},"Δ":{"ha":900,"x_min":14,"x_max":886,"o":"m 14 0 l 14 82 l 372 996 l 528 996 l 886 82 l 886 0 l 14 0 m 186 132 l 713 132 l 504 696 q 489 742 500 711 q 467 806 478 774 q 450 860 456 839 q 433 799 443 832 q 413 740 422 767 q 397 696 403 713 l 186 132 z "},"Ε":{"ha":774,"x_min":132,"x_max":690,"o":"m 690 0 l 132 0 l 132 992 l 690 992 l 690 864 l 282 864 l 282 581 l 665 581 l 665 454 l 282 454 l 282 129 l 690 129 l 690 0 z "},"Ζ":{"ha":797,"x_min":47,"x_max":749,"o":"m 749 0 l 47 0 l 47 107 l 556 863 l 63 863 l 63 992 l 736 992 l 736 885 l 228 129 l 749 129 l 749 0 z "},"Η":{"ha":1039,"x_min":132,"x_max":906,"o":"m 906 0 l 756 0 l 756 453 l 282 453 l 282 0 l 132 0 l 132 992 l 282 992 l 282 581 l 756 581 l 756 992 l 906 992 l 906 0 z "},"Θ":{"ha":1089,"x_min":82,"x_max":1006,"o":"m 347 442 l 347 567 l 742 567 l 742 442 l 347 442 m 1006 497 q 977 288 1006 382 q 891 126 949 194 q 747 22 833 58 q 544 -14 660 -14 q 340 23 426 -14 q 195 127 253 60 q 110 289 138 194 q 82 499 82 383 q 133 765 82 651 q 286 943 183 879 q 546 1007 389 1007 q 801 944 699 1007 q 954 766 903 881 q 1006 497 1006 651 m 242 497 q 274 293 242 379 q 373 161 306 207 q 544 115 440 115 q 717 161 650 115 q 815 293 783 207 q 847 497 847 379 q 776 776 847 675 q 546 878 704 878 q 373 832 440 878 q 274 701 306 786 q 242 497 242 617 z "},"Ι":{"ha":492,"x_min":53,"x_max":438,"o":"m 438 0 l 53 0 l 53 86 l 171 121 l 171 869 l 53 906 l 53 992 l 438 992 l 438 906 l 321 869 l 321 121 l 438 86 l 438 0 z "},"Κ":{"ha":876,"x_min":132,"x_max":878,"o":"m 878 0 l 704 0 l 379 457 l 282 376 l 282 0 l 132 0 l 132 992 l 282 992 l 282 513 q 354 597 318 556 q 426 681 390 639 l 694 992 l 867 992 l 488 558 l 878 0 z "},"Λ":{"ha":869,"x_min":0,"x_max":869,"o":"m 0 0 l 357 996 l 513 996 l 869 0 l 710 0 l 483 692 q 468 738 478 706 q 449 806 458 771 q 433 861 439 840 q 418 799 426 832 q 402 739 410 767 q 388 692 394 711 l 157 0 l 0 0 z "},"Μ":{"ha":1275,"x_min":132,"x_max":1143,"o":"m 564 0 l 264 843 l 258 843 q 263 768 260 815 q 267 667 265 721 q 268 560 268 613 l 268 0 l 132 0 l 132 992 l 346 992 l 631 196 l 636 196 l 929 992 l 1143 992 l 1143 0 l 997 0 l 997 568 q 999 669 997 617 q 1003 767 1001 721 q 1007 842 1006 813 l 1001 842 l 693 0 l 564 0 z "},"Ν":{"ha":1074,"x_min":132,"x_max":946,"o":"m 946 0 l 764 0 l 263 801 l 257 801 q 262 721 260 765 q 266 628 264 676 q 268 528 268 579 l 268 0 l 132 0 l 132 992 l 313 992 l 813 194 l 817 194 q 814 268 815 224 q 810 363 813 313 q 807 458 808 414 l 807 992 l 946 992 l 946 0 z "},"Ξ":{"ha":868,"x_min":83,"x_max":785,"o":"m 83 0 l 83 131 l 785 131 l 785 0 l 83 0 m 167 453 l 167 583 l 701 583 l 701 453 l 167 453 m 111 861 l 111 992 l 757 992 l 757 861 l 111 861 z "},"Ο":{"ha":1089,"x_min":82,"x_max":1006,"o":"m 1006 497 q 977 288 1006 382 q 891 126 949 194 q 747 22 833 58 q 544 -14 660 -14 q 340 23 426 -14 q 195 127 253 60 q 110 289 138 194 q 82 499 82 383 q 133 765 82 651 q 286 943 183 879 q 546 1007 389 1007 q 801 944 699 1007 q 954 766 903 881 q 1006 497 1006 651 m 242 497 q 274 293 242 379 q 373 161 306 207 q 544 115 440 115 q 717 161 650 115 q 815 293 783 207 q 847 497 847 379 q 776 776 847 675 q 546 878 704 878 q 373 832 440 878 q 274 701 306 786 q 242 497 242 617 z "},"Π":{"ha":1025,"x_min":132,"x_max":892,"o":"m 132 0 l 132 992 l 892 992 l 892 0 l 743 0 l 743 863 l 282 863 l 282 0 l 132 0 z "},"Ρ":{"ha":847,"x_min":129,"x_max":779,"o":"m 407 992 q 690 915 600 992 q 779 696 779 838 q 760 576 779 633 q 694 474 740 519 q 573 402 649 428 q 388 376 497 376 l 281 376 l 281 0 l 129 0 l 129 992 l 407 992 m 397 865 l 281 865 l 281 503 l 372 503 q 513 522 456 503 q 597 581 569 540 q 625 690 625 622 q 570 821 625 776 q 397 865 515 865 z "},"Σ":{"ha":797,"x_min":47,"x_max":749,"o":"m 47 0 l 47 121 l 368 514 l 61 872 l 61 992 l 733 992 l 733 863 l 386 863 q 315 863 356 863 q 247 865 275 864 l 521 546 l 521 504 l 214 128 q 312 129 265 128 q 411 131 358 131 l 749 131 l 749 0 l 47 0 z "},"Τ":{"ha":781,"x_min":18,"x_max":763,"o":"m 465 0 l 315 0 l 315 863 l 18 863 l 18 992 l 763 992 l 763 863 l 465 863 l 465 0 z "},"Υ":{"ha":811,"x_min":0,"x_max":811,"o":"m 406 525 l 647 992 l 811 992 l 481 385 l 481 0 l 329 0 l 329 379 l 0 992 l 164 992 l 406 525 z "},"Φ":{"ha":1196,"x_min":68,"x_max":1128,"o":"m 524 -3 l 524 125 q 299 163 388 128 q 160 254 210 197 q 89 379 110 311 q 68 514 68 447 q 90 654 68 586 q 165 776 113 722 q 305 863 217 831 q 524 897 393 896 l 524 994 l 672 994 l 672 897 q 890 864 803 896 q 1030 779 978 832 q 1105 658 1082 726 q 1128 514 1128 589 q 1106 377 1128 446 q 1033 253 1085 308 q 893 163 982 197 q 672 125 804 128 l 672 -3 l 524 -3 m 524 246 l 524 774 q 339 738 406 772 q 246 645 272 703 q 219 515 219 588 q 249 379 219 439 q 344 284 278 319 q 524 246 411 249 m 672 246 q 853 285 786 249 q 948 381 919 321 q 976 515 976 442 q 949 645 976 588 q 856 738 922 703 q 672 774 790 772 l 672 246 z "},"Χ":{"ha":849,"x_min":6,"x_max":843,"o":"m 843 0 l 671 0 l 421 408 l 168 0 l 6 0 l 335 515 l 25 992 l 193 992 l 425 618 l 656 992 l 819 992 l 511 514 l 843 0 z "},"Ψ":{"ha":1164,"x_min":124,"x_max":1040,"o":"m 511 0 l 511 258 q 341 289 414 261 q 220 369 268 317 q 148 497 172 421 q 124 671 124 572 l 124 992 l 271 992 l 271 667 q 301 497 271 558 q 385 409 331 435 q 511 383 439 383 l 511 992 l 653 992 l 653 383 q 776 409 722 383 q 861 496 831 435 q 892 665 892 557 l 892 992 l 1040 992 l 1040 671 q 997 448 1040 539 q 867 310 953 357 q 653 258 781 263 l 653 0 l 511 0 z "},"Ω":{"ha":1013,"x_min":38,"x_max":975,"o":"m 38 0 l 38 129 l 253 129 q 151 226 199 168 q 75 363 104 285 q 46 538 46 442 q 100 779 46 674 q 257 946 154 885 q 506 1007 360 1007 q 755 947 653 1007 q 912 781 857 886 q 967 539 967 675 q 938 363 967 442 q 862 226 908 285 q 760 129 815 168 l 975 129 l 975 0 l 592 0 l 592 126 q 720 244 672 183 q 789 376 768 306 q 810 532 810 446 q 776 711 810 633 q 675 833 742 789 q 506 878 608 878 q 337 833 404 878 q 237 711 269 789 q 204 531 204 633 q 224 376 204 447 q 292 244 244 306 q 419 126 339 183 l 419 0 l 38 0 z "},"Ϊ":{"ha":492,"x_min":36,"x_max":457,"o":"m 438 0 l 53 0 l 53 86 l 171 121 l 171 869 l 53 906 l 53 992 l 438 992 l 438 906 l 321 869 l 321 121 l 438 86 l 438 0 m 36 1192 q 58 1249 36 1231 q 110 1267 79 1267 q 163 1249 140 1267 q 185 1192 185 1231 q 163 1134 185 1153 q 110 1115 140 1115 q 58 1134 79 1115 q 36 1192 36 1153 m 308 1192 q 330 1249 308 1231 q 382 1267 351 1267 q 435 1249 413 1267 q 457 1192 457 1231 q 435 1134 457 1153 q 382 1115 413 1115 q 330 1134 351 1115 q 308 1192 308 1153 z "},"Ϋ":{"ha":811,"x_min":0,"x_max":811,"o":"m 406 525 l 647 992 l 811 992 l 481 385 l 481 0 l 329 0 l 329 379 l 0 992 l 164 992 l 406 525 m 196 1192 q 217 1249 196 1231 q 269 1267 239 1267 q 322 1249 300 1267 q 344 1192 344 1231 q 322 1134 344 1153 q 269 1115 300 1115 q 217 1134 239 1115 q 196 1192 196 1153 m 468 1192 q 490 1249 468 1231 q 542 1267 511 1267 q 594 1249 572 1267 q 617 1192 617 1231 q 594 1134 617 1153 q 542 1115 572 1115 q 490 1134 511 1115 q 468 1192 468 1153 z "},"ά":{"ha":879,"x_min":74,"x_max":846,"o":"m 371 -14 q 217 30 283 -14 q 112 159 150 74 q 74 371 74 244 q 155 663 74 563 q 376 763 236 763 q 473 748 431 763 q 548 708 515 733 q 603 649 581 682 l 608 649 l 626 749 l 747 749 l 747 185 q 764 123 747 140 q 804 106 781 106 q 828 108 815 106 q 846 113 840 111 l 846 4 q 825 -4 839 0 q 794 -11 811 -8 q 763 -14 778 -14 q 670 11 707 -14 q 615 100 633 36 l 604 100 q 549 41 582 67 q 471 1 515 15 q 371 -14 426 -14 m 410 106 q 524 133 481 106 q 585 217 567 160 q 604 363 604 274 l 604 372 q 562 573 604 503 q 410 643 519 643 q 270 573 315 643 q 225 369 225 503 q 272 172 225 239 q 410 106 319 106 m 375 842 l 375 858 l 442 1078 l 613 1078 l 613 1064 l 471 842 l 375 842 z "},"έ":{"ha":668,"x_min":58,"x_max":622,"o":"m 376 -14 q 135 48 213 -14 q 58 204 58 110 q 105 328 58 288 q 218 386 151 369 l 218 393 q 122 453 157 413 q 86 560 86 494 q 119 669 86 624 q 215 738 151 714 q 369 763 278 763 q 512 747 446 763 q 622 706 578 732 l 578 592 q 480 632 529 618 q 374 646 431 646 q 263 619 296 646 q 229 547 229 593 q 274 467 229 490 q 383 443 318 443 l 483 443 l 483 333 l 383 333 q 287 319 325 333 q 229 280 249 306 q 210 215 210 254 q 255 133 210 160 q 383 106 300 106 q 506 117 453 106 q 606 156 558 129 l 606 32 q 504 -3 561 7 q 376 -14 447 -14 m 332 842 l 332 858 l 399 1078 l 569 1078 l 569 1064 l 428 842 l 332 842 z "},"ή":{"ha":858,"x_min":114,"x_max":750,"o":"m 604 -333 l 604 469 q 568 597 604 554 q 456 640 532 640 q 341 610 383 640 q 280 521 299 579 q 261 378 261 463 l 261 0 l 114 0 l 114 749 l 231 749 l 251 649 l 260 649 q 319 713 285 688 q 397 750 354 738 q 488 763 440 763 q 630 734 571 763 q 719 644 689 706 q 750 488 750 583 l 750 -333 l 604 -333 m 318 842 l 318 858 l 385 1078 l 556 1078 l 556 1064 l 414 842 l 318 842 z "},"ί":{"ha":489,"x_min":113,"x_max":454,"o":"m 339 -14 q 210 15 260 -14 q 136 95 160 43 q 113 217 113 147 l 113 749 l 260 749 l 260 224 q 289 131 260 156 q 361 107 318 107 q 411 111 389 107 q 454 121 433 115 l 454 3 q 405 -9 435 -4 q 339 -14 375 -14 m 157 842 l 157 858 l 224 1078 l 394 1078 l 394 1064 l 253 842 l 157 842 z "},"ΰ":{"ha":847,"x_min":108,"x_max":754,"o":"m 404 -14 q 251 11 310 -14 q 162 81 193 36 q 119 189 131 126 q 108 326 108 251 l 108 749 l 256 749 l 256 326 q 268 203 256 251 q 315 130 281 154 q 413 106 350 106 q 519 138 475 106 q 584 238 563 169 q 606 413 606 306 q 594 585 606 508 q 561 749 583 663 l 710 749 q 735 640 725 693 q 749 531 744 588 q 754 407 754 475 q 664 89 754 192 q 404 -14 574 -14 m 365 842 l 365 858 l 417 1078 l 589 1078 l 589 1064 l 464 842 l 365 842 m 258 872 q 207 891 229 872 q 185 947 185 910 q 207 1005 185 988 q 258 1022 229 1022 q 311 1005 289 1022 q 333 949 333 988 q 311 891 333 910 q 258 872 289 872 m 665 872 q 613 891 635 872 q 592 947 592 910 q 613 1005 592 988 q 664 1022 635 1022 q 717 1005 694 1022 q 739 949 739 988 q 717 891 739 910 q 665 872 694 872 z "},"α":{"ha":879,"x_min":74,"x_max":846,"o":"m 371 -14 q 217 30 283 -14 q 112 159 150 74 q 74 371 74 244 q 155 663 74 563 q 376 763 236 763 q 473 748 431 763 q 548 708 515 733 q 603 649 581 682 l 608 649 l 626 749 l 747 749 l 747 185 q 764 123 747 140 q 804 106 781 106 q 828 108 815 106 q 846 113 840 111 l 846 4 q 825 -4 839 0 q 794 -11 811 -8 q 763 -14 778 -14 q 670 11 707 -14 q 615 100 633 36 l 604 100 q 549 41 582 67 q 471 1 515 15 q 371 -14 426 -14 m 410 106 q 524 133 481 106 q 585 217 567 160 q 604 363 604 274 l 604 372 q 562 573 604 503 q 410 643 519 643 q 270 573 315 643 q 225 369 225 503 q 272 172 225 239 q 410 106 319 106 z "},"β":{"ha":858,"x_min":114,"x_max":786,"o":"m 114 -333 l 114 733 q 157 925 114 853 q 274 1030 200 997 q 439 1063 347 1063 q 598 1033 531 1063 q 701 944 665 1003 q 738 797 738 885 q 711 683 738 731 q 640 605 685 635 q 542 564 596 575 l 542 558 q 669 516 614 549 q 755 427 724 483 q 786 286 786 371 q 744 123 786 190 q 629 21 701 56 q 465 -14 557 -14 q 350 -2 394 -14 q 261 32 306 10 l 261 -333 l 114 -333 m 444 106 q 584 156 532 106 q 636 297 636 206 q 610 409 636 365 q 540 475 583 453 q 449 497 497 497 l 347 497 l 347 610 l 436 610 q 518 632 483 610 q 570 694 553 654 q 588 785 588 733 q 544 905 588 865 q 433 944 500 944 q 349 926 389 944 q 285 863 310 908 q 261 733 261 818 l 261 158 q 345 121 304 136 q 444 106 386 106 z "},"γ":{"ha":736,"x_min":0,"x_max":694,"o":"m 267 -292 l 267 -1 l 0 749 l 151 749 l 286 342 q 310 271 296 311 q 338 191 325 231 q 357 126 350 151 l 363 126 q 472 301 432 208 q 530 505 513 394 q 547 749 547 615 l 694 749 q 669 478 694 604 q 584 236 644 353 q 414 0 524 119 l 414 -292 l 267 -292 z "},"δ":{"ha":825,"x_min":58,"x_max":754,"o":"m 407 -14 q 227 26 306 -14 q 103 139 149 65 q 58 311 58 213 q 90 468 58 403 q 176 578 121 533 q 306 651 232 622 q 242 698 272 672 q 193 761 213 724 q 174 850 174 799 q 205 954 174 906 q 298 1033 236 1003 q 453 1063 360 1063 q 572 1049 519 1063 q 663 1014 624 1035 q 724 971 701 993 l 664 863 q 566 924 619 900 q 454 947 513 947 q 371 932 401 947 q 329 894 340 917 q 318 851 318 872 q 331 803 318 826 q 378 756 344 781 q 474 699 411 732 q 651 577 590 638 q 733 455 711 517 q 754 328 754 393 q 707 135 754 211 q 581 23 660 60 q 407 -14 503 -14 m 410 106 q 518 134 474 106 q 585 213 563 163 q 608 328 608 264 q 585 440 608 390 q 519 526 563 489 q 419 590 476 564 q 331 550 371 574 q 265 494 292 526 q 223 421 238 463 q 208 326 208 379 q 233 210 208 260 q 303 133 258 161 q 410 106 349 106 z "},"ε":{"ha":667,"x_min":58,"x_max":622,"o":"m 376 -14 q 135 48 213 -14 q 58 204 58 110 q 105 328 58 288 q 218 386 151 369 l 218 393 q 122 453 157 413 q 86 560 86 494 q 119 669 86 624 q 215 738 151 714 q 369 763 278 763 q 512 747 446 763 q 622 706 578 732 l 578 592 q 480 632 529 618 q 374 646 431 646 q 263 619 296 646 q 229 547 229 593 q 274 467 229 490 q 383 443 318 443 l 483 443 l 483 333 l 383 333 q 287 319 325 333 q 229 280 249 306 q 210 215 210 254 q 255 133 210 160 q 383 106 300 106 q 506 117 453 106 q 606 156 558 129 l 606 32 q 504 -3 561 7 q 376 -14 447 -14 z "},"ζ":{"ha":649,"x_min":72,"x_max":646,"o":"m 436 -281 q 478 -187 461 -233 q 496 -111 496 -142 q 488 -67 496 -85 q 453 -37 479 -50 q 374 -14 426 -25 q 196 50 261 13 q 101 142 131 88 q 72 269 72 196 q 108 433 72 353 q 207 597 144 513 q 346 779 269 682 l 481 951 q 440 948 471 950 q 367 945 408 946 q 286 944 325 944 l 111 944 l 111 1056 l 646 1056 l 646 965 l 446 704 q 319 530 368 601 q 247 402 269 458 q 224 290 224 346 q 240 213 224 246 q 303 156 257 181 q 439 108 349 131 q 558 69 514 92 q 622 15 603 47 q 642 -71 642 -18 q 633 -147 642 -111 q 610 -215 625 -182 q 579 -281 596 -249 l 436 -281 z "},"η":{"ha":858,"x_min":114,"x_max":750,"o":"m 604 -333 l 604 469 q 568 597 604 554 q 456 640 532 640 q 341 610 383 640 q 280 521 299 579 q 261 378 261 463 l 261 0 l 114 0 l 114 749 l 231 749 l 251 649 l 260 649 q 319 713 285 688 q 397 750 354 738 q 488 763 440 763 q 630 734 571 763 q 719 644 689 706 q 750 488 750 583 l 750 -333 l 604 -333 z "},"θ":{"ha":833,"x_min":74,"x_max":761,"o":"m 415 -14 q 223 51 299 -14 q 110 236 147 115 q 74 525 74 357 q 108 814 74 693 q 217 999 142 935 q 415 1063 293 1063 q 609 999 532 1063 q 724 815 686 936 q 761 525 761 694 q 726 236 761 357 q 616 51 692 115 q 415 -14 540 -14 m 415 103 q 524 141 482 103 q 588 263 567 179 q 613 481 610 346 l 222 481 q 244 264 224 347 q 306 142 264 181 q 415 103 349 103 m 222 593 l 611 593 q 586 792 608 714 q 522 908 564 869 q 415 946 481 946 q 310 908 351 946 q 247 792 268 869 q 222 593 226 714 z "},"ι":{"ha":489,"x_min":113,"x_max":454,"o":"m 339 -14 q 210 15 260 -14 q 136 95 160 43 q 113 217 113 147 l 113 749 l 260 749 l 260 224 q 289 131 260 156 q 361 107 318 107 q 411 111 389 107 q 454 121 433 115 l 454 3 q 405 -9 435 -4 q 339 -14 375 -14 z "},"κ":{"ha":776,"x_min":115,"x_max":768,"o":"m 747 749 l 460 414 l 768 0 l 596 0 l 361 322 l 267 251 l 267 0 l 115 0 l 115 749 l 267 749 l 267 554 q 265 453 267 503 q 260 372 263 403 l 263 372 q 297 415 279 393 q 329 456 314 436 l 578 749 l 747 749 z "},"λ":{"ha":743,"x_min":7,"x_max":743,"o":"m 653 -14 q 592 -3 617 -14 q 551 32 567 8 q 521 93 535 56 l 426 367 q 407 423 418 392 q 385 488 396 454 q 365 551 374 521 q 353 607 357 582 l 347 607 q 322 492 339 553 q 285 372 304 431 l 168 0 l 8 0 l 282 749 l 251 828 q 188 917 229 890 q 85 943 147 943 q 41 940 60 943 q 7 935 22 938 l 7 1051 q 35 1058 19 1056 q 68 1061 50 1060 q 106 1063 86 1063 q 234 1040 181 1063 q 326 969 288 1018 q 394 840 365 921 l 642 183 q 663 136 654 153 q 681 114 671 119 q 703 108 690 108 q 725 110 715 108 q 743 115 735 113 l 743 4 q 718 -5 733 0 q 686 -12 703 -10 q 653 -14 669 -14 z "},"μ":{"ha":888,"x_min":114,"x_max":856,"o":"m 114 -333 l 114 749 l 261 749 l 261 279 q 301 151 261 194 q 418 107 340 107 q 566 175 522 107 q 610 371 610 243 l 610 749 l 757 749 l 757 185 q 774 123 757 140 q 814 106 790 106 q 838 108 825 106 q 856 113 850 111 l 856 4 q 835 -4 849 0 q 804 -11 821 -8 q 772 -14 788 -14 q 678 11 715 -14 q 624 100 642 36 l 613 100 q 563 38 592 64 q 497 -1 533 13 q 410 -14 460 -14 q 322 3 360 -14 q 260 47 285 19 l 254 47 q 259 -20 257 22 q 261 -117 261 -62 l 261 -333 l 114 -333 z "},"ν":{"ha":736,"x_min":0,"x_max":694,"o":"m 265 0 l 0 749 l 151 749 l 286 342 q 310 271 296 311 q 338 191 325 231 q 357 126 350 151 l 363 126 q 472 301 432 208 q 530 505 513 394 q 547 749 547 615 l 694 749 q 669 475 694 601 q 583 232 644 349 q 414 0 522 115 l 265 0 z "},"ξ":{"ha":694,"x_min":72,"x_max":650,"o":"m 440 -281 q 482 -190 464 -233 q 500 -108 500 -146 q 492 -68 500 -85 q 458 -38 483 -51 q 379 -14 433 -25 q 213 44 282 8 q 108 135 144 79 q 72 278 72 192 q 99 405 72 350 q 172 496 125 460 q 279 549 218 532 l 279 557 q 190 594 226 569 q 136 657 154 619 q 118 746 118 694 q 144 846 118 806 q 216 912 171 886 q 321 953 261 938 q 269 949 300 951 q 208 946 239 947 q 150 944 176 944 l 115 944 l 115 1056 l 650 1056 l 650 951 l 610 951 q 473 943 536 951 q 363 913 410 935 q 288 854 315 892 q 261 760 261 817 q 282 681 261 715 q 351 628 303 647 q 476 608 399 608 l 628 608 l 628 497 l 474 497 q 326 472 382 497 q 247 401 271 446 q 222 297 222 356 q 247 199 222 233 q 324 144 272 164 q 457 106 375 125 q 575 63 535 89 q 631 5 615 38 q 646 -65 646 -28 q 638 -142 646 -107 q 616 -211 631 -178 q 583 -281 601 -244 l 440 -281 z "},"ο":{"ha":849,"x_min":74,"x_max":776,"o":"m 776 376 q 751 210 776 282 q 681 88 726 138 q 569 12 635 38 q 422 -14 503 -14 q 283 12 347 -14 q 172 88 219 38 q 99 210 125 138 q 74 376 74 282 q 116 586 74 500 q 238 717 158 672 q 426 763 317 763 q 608 717 529 763 q 731 586 686 672 q 776 376 776 500 m 225 376 q 246 231 225 292 q 311 137 267 169 q 425 104 356 104 q 538 137 494 104 q 603 231 582 169 q 624 376 624 292 q 602 520 624 461 q 537 611 581 579 q 424 643 493 643 q 272 572 319 643 q 225 376 225 501 z "},"π":{"ha":944,"x_min":25,"x_max":911,"o":"m 782 -14 q 656 34 697 -14 q 614 178 614 82 l 614 636 l 325 636 l 325 0 l 178 0 l 178 636 l 25 636 l 25 749 l 911 749 l 911 636 l 761 636 l 761 189 q 779 124 761 143 q 825 106 797 106 q 864 110 846 106 q 894 121 882 115 l 894 10 q 849 -6 879 1 q 782 -14 819 -14 z "},"ρ":{"ha":840,"x_min":93,"x_max":767,"o":"m 93 -333 l 93 382 q 133 592 93 507 q 247 719 174 676 q 418 763 321 763 q 608 716 529 763 q 726 581 686 669 q 767 368 767 493 q 724 163 767 249 q 608 32 682 78 q 438 -14 533 -14 q 333 1 383 -14 q 242 46 282 17 l 233 46 q 238 -28 236 22 q 240 -139 240 -79 l 240 -333 l 93 -333 m 425 104 q 528 133 485 104 q 593 221 571 163 q 615 367 615 279 q 564 577 615 511 q 415 643 513 643 q 286 579 331 643 q 242 386 242 515 l 242 171 q 326 122 278 139 q 425 104 374 104 z "},"σ":{"ha":869,"x_min":72,"x_max":821,"o":"m 414 -14 q 234 31 311 -14 q 115 159 157 75 q 72 360 72 243 q 121 585 72 500 q 258 710 169 671 q 468 749 347 749 l 821 749 l 821 636 l 650 636 q 711 560 688 603 q 747 467 735 518 q 760 354 760 417 q 738 217 760 283 q 674 99 717 150 q 565 17 631 47 q 414 -14 500 -14 m 417 107 q 528 141 486 107 q 591 232 571 175 q 611 357 611 289 q 601 467 611 417 q 569 559 590 517 q 515 636 547 601 l 469 636 q 333 609 389 636 q 250 522 278 582 q 222 360 222 461 q 242 228 222 286 q 304 139 261 171 q 417 107 347 107 z "},"τ":{"ha":703,"x_min":25,"x_max":654,"o":"m 464 -15 q 344 5 399 -15 q 256 76 289 25 q 222 222 222 128 l 222 636 l 25 636 l 25 749 l 654 749 l 654 636 l 371 636 l 371 231 q 385 156 371 185 q 428 115 400 128 q 492 103 456 103 q 555 108 522 103 q 613 121 588 114 l 613 11 q 549 -7 590 1 q 464 -15 508 -15 z "},"υ":{"ha":847,"x_min":108,"x_max":754,"o":"m 404 -14 q 251 11 310 -14 q 162 81 193 36 q 119 189 131 126 q 108 326 108 251 l 108 749 l 256 749 l 256 326 q 268 203 256 251 q 315 130 281 154 q 413 106 350 106 q 519 138 475 106 q 584 238 563 169 q 606 413 606 306 q 594 585 606 508 q 561 749 583 663 l 710 749 q 735 640 725 693 q 749 531 744 588 q 754 407 754 475 q 664 89 754 192 q 404 -14 574 -14 z "},"φ":{"ha":1043,"x_min":72,"x_max":972,"o":"m 453 -333 l 453 -10 q 251 50 336 1 q 119 181 165 99 q 72 374 72 264 q 115 569 72 486 q 244 701 158 653 q 453 757 329 749 l 453 1056 l 593 1056 l 593 757 q 795 698 710 747 q 926 567 881 649 q 972 374 972 485 q 928 181 972 264 q 799 49 883 99 q 593 -10 714 0 l 593 -333 l 453 -333 m 453 103 l 453 644 q 324 602 375 636 q 249 511 274 568 q 225 374 225 454 q 249 238 225 296 q 324 145 274 179 q 453 103 374 111 m 593 103 q 721 147 671 113 q 796 238 771 181 q 821 374 821 296 q 764 561 821 493 q 593 643 707 629 l 593 103 z "},"χ":{"ha":836,"x_min":22,"x_max":831,"o":"m 731 -333 q 640 -317 675 -333 q 578 -262 604 -300 q 522 -164 551 -225 l 189 524 q 142 606 163 578 q 86 633 121 633 q 58 631 72 633 q 31 624 44 629 l 31 740 q 66 750 49 746 q 117 754 83 754 q 192 740 163 754 q 247 694 222 726 q 299 607 272 663 l 644 -99 q 680 -161 664 -136 q 716 -199 696 -186 q 767 -211 736 -211 q 799 -210 783 -211 q 831 -206 815 -208 l 831 -319 q 803 -327 818 -324 q 770 -332 788 -331 q 731 -333 753 -333 m 22 -333 l 381 239 l 439 107 l 175 -333 l 22 -333 m 475 136 l 417 269 l 678 749 l 831 749 l 475 136 z "},"ψ":{"ha":1074,"x_min":106,"x_max":981,"o":"m 464 -333 l 464 -12 q 275 27 356 -8 q 150 143 194 63 q 106 361 106 224 l 106 749 l 250 749 l 250 357 q 278 207 250 260 q 354 134 306 154 q 464 108 403 114 l 464 1056 l 607 1056 l 607 110 q 733 147 682 117 q 810 238 783 178 q 836 390 836 297 q 824 568 836 485 q 789 749 813 651 l 935 749 q 969 568 958 653 q 981 392 981 483 q 932 163 981 250 q 799 35 883 76 q 607 -12 715 -6 l 607 -333 l 464 -333 z "},"ω":{"ha":1138,"x_min":86,"x_max":1053,"o":"m 364 -14 q 211 34 272 -14 q 118 167 150 82 q 86 363 86 251 q 123 594 86 497 q 213 749 160 690 l 356 749 q 292 654 321 710 q 247 526 264 599 q 229 364 229 454 q 267 172 229 239 q 374 106 306 106 q 447 128 418 106 q 488 190 475 150 q 500 282 500 231 l 500 499 l 639 499 l 639 282 q 653 186 639 226 q 694 126 667 146 q 764 106 722 106 q 843 135 811 106 q 892 224 875 165 q 910 364 910 282 q 894 521 910 450 q 851 649 879 592 q 783 749 824 706 l 926 749 q 994 649 965 706 q 1038 522 1022 593 q 1053 363 1053 450 q 1021 167 1053 251 q 927 34 989 82 q 775 -14 865 -14 q 647 23 696 -14 q 572 140 597 60 l 565 140 q 524 53 550 88 q 457 2 497 18 q 364 -14 417 -14 z "},"ϊ":{"ha":489,"x_min":-17,"x_max":454,"o":"m 339 -14 q 210 15 260 -14 q 136 95 160 43 q 113 217 113 147 l 113 749 l 260 749 l 260 224 q 289 131 260 156 q 361 107 318 107 q 411 111 389 107 q 454 121 433 115 l 454 3 q 405 -9 435 -4 q 339 -14 375 -14 m -17 949 q 5 1006 -17 988 q 57 1024 26 1024 q 110 1006 88 1024 q 132 949 132 988 q 110 891 132 910 q 57 872 88 872 q 5 891 26 872 q -17 949 -17 910 m 256 949 q 277 1006 256 988 q 329 1024 299 1024 q 382 1006 360 1024 q 404 949 404 988 q 382 891 404 910 q 329 872 360 872 q 277 891 299 872 q 256 949 256 910 z "},"ϋ":{"ha":847,"x_min":108,"x_max":754,"o":"m 404 -14 q 251 11 310 -14 q 162 81 193 36 q 119 189 131 126 q 108 326 108 251 l 108 749 l 256 749 l 256 326 q 268 203 256 251 q 315 130 281 154 q 413 106 350 106 q 519 138 475 106 q 584 238 563 169 q 606 413 606 306 q 594 585 606 508 q 561 749 583 663 l 710 749 q 735 640 725 693 q 749 531 744 588 q 754 407 754 475 q 664 89 754 192 q 404 -14 574 -14 m 193 949 q 215 1006 193 988 q 267 1024 236 1024 q 319 1006 297 1024 q 342 949 342 988 q 319 891 342 910 q 267 872 297 872 q 215 891 236 872 q 193 949 193 910 m 465 949 q 487 1006 465 988 q 539 1024 508 1024 q 592 1006 569 1024 q 614 949 614 988 q 592 891 614 910 q 539 872 569 872 q 487 891 508 872 q 465 949 465 910 z "},"ό":{"ha":849,"x_min":74,"x_max":776,"o":"m 776 376 q 751 210 776 282 q 681 88 726 138 q 569 12 635 38 q 422 -14 503 -14 q 283 12 347 -14 q 172 88 219 38 q 99 210 125 138 q 74 376 74 282 q 116 586 74 500 q 238 717 158 672 q 426 763 317 763 q 608 717 529 763 q 731 586 686 672 q 776 376 776 500 m 225 376 q 246 231 225 292 q 311 137 267 169 q 425 104 356 104 q 538 137 494 104 q 603 231 582 169 q 624 376 624 292 q 602 520 624 461 q 537 611 581 579 q 424 643 493 643 q 272 572 319 643 q 225 376 225 501 m 389 842 l 389 858 l 456 1078 l 626 1078 l 626 1064 l 485 842 l 389 842 z "},"ύ":{"ha":847,"x_min":108,"x_max":754,"o":"m 404 -14 q 251 11 310 -14 q 162 81 193 36 q 119 189 131 126 q 108 326 108 251 l 108 749 l 256 749 l 256 326 q 268 203 256 251 q 315 130 281 154 q 413 106 350 106 q 519 138 475 106 q 584 238 563 169 q 606 413 606 306 q 594 585 606 508 q 561 749 583 663 l 710 749 q 735 640 725 693 q 749 531 744 588 q 754 407 754 475 q 664 89 754 192 q 404 -14 574 -14 m 367 842 l 367 858 l 433 1078 l 604 1078 l 604 1064 l 463 842 l 367 842 z "},"ώ":{"ha":1140,"x_min":86,"x_max":1053,"o":"m 364 -14 q 211 34 272 -14 q 118 167 150 82 q 86 363 86 251 q 123 594 86 497 q 213 749 160 690 l 356 749 q 292 654 321 710 q 247 526 264 599 q 229 364 229 454 q 267 172 229 239 q 374 106 306 106 q 447 128 418 106 q 488 190 475 150 q 500 282 500 231 l 500 499 l 639 499 l 639 282 q 653 186 639 226 q 694 126 667 146 q 764 106 722 106 q 843 135 811 106 q 892 224 875 165 q 910 364 910 282 q 894 521 910 450 q 851 649 879 592 q 783 749 824 706 l 926 749 q 994 649 965 706 q 1038 522 1022 593 q 1053 363 1053 450 q 1021 167 1053 251 q 927 34 989 82 q 775 -14 865 -14 q 647 23 696 -14 q 572 140 597 60 l 565 140 q 524 53 550 88 q 457 2 497 18 q 364 -14 417 -14 m 535 842 l 535 858 l 601 1078 l 772 1078 l 772 1064 l 631 842 l 535 842 z "},"Ё":{"ha":774,"x_min":129,"x_max":693,"o":"m 129 0 l 129 992 l 693 992 l 693 863 l 281 863 l 281 581 l 668 581 l 668 453 l 281 453 l 281 129 l 693 129 l 693 0 l 129 0 m 294 1092 q 240 1114 260 1092 q 219 1176 219 1136 q 240 1240 219 1218 q 294 1261 261 1261 q 350 1240 329 1261 q 371 1176 371 1218 q 350 1114 371 1136 q 294 1092 329 1092 m 547 1092 q 492 1113 513 1092 q 472 1176 472 1135 q 492 1240 472 1219 q 549 1261 513 1261 q 603 1240 583 1261 q 622 1176 622 1218 q 602 1113 622 1135 q 547 1092 582 1092 z "},"Ђ":{"ha":1014,"x_min":18,"x_max":947,"o":"m 649 -17 q 585 -12 615 -17 q 529 0 554 -8 l 529 124 q 585 113 561 115 q 632 111 608 111 q 752 159 710 111 q 793 292 794 207 l 793 292 q 742 434 793 388 q 589 481 690 481 q 476 468 536 481 q 361 432 417 456 l 404 514 l 404 0 l 256 0 l 254 863 l 18 863 l 18 992 l 733 992 l 733 863 l 403 863 l 404 524 l 365 558 q 481 594 419 581 q 610 607 542 607 q 859 527 771 607 q 947 296 947 447 l 947 293 q 910 128 947 199 q 806 21 874 58 q 649 -17 739 -17 z "},"Ѓ":{"ha":729,"x_min":132,"x_max":693,"o":"m 132 0 l 132 992 l 693 992 l 693 863 l 282 863 l 282 0 l 132 0 m 342 1085 l 342 1101 l 476 1307 l 649 1307 l 649 1293 l 439 1085 l 342 1085 z "},"Є":{"ha":893,"x_min":81,"x_max":839,"o":"m 547 -14 q 287 47 390 -14 q 132 222 183 108 q 81 493 81 336 q 137 767 81 651 q 299 944 193 882 q 553 1006 406 1006 q 699 991 629 1006 q 839 944 769 976 l 782 821 q 669 863 724 850 q 560 876 614 876 q 389 834 460 876 q 279 711 318 792 q 238 515 240 631 l 174 572 l 707 572 l 707 444 l 172 444 l 239 503 q 273 291 236 376 q 384 161 310 206 q 568 117 458 117 q 687 128 626 117 q 811 167 747 140 l 811 35 q 687 -2 754 10 q 547 -14 619 -14 z "},"Ѕ":{"ha":761,"x_min":67,"x_max":699,"o":"m 342 -14 q 238 -8 288 -14 q 145 10 188 -1 q 67 38 103 21 l 67 179 q 200 132 128 150 q 347 114 272 114 q 460 132 415 114 q 528 182 506 150 q 550 257 550 214 q 528 334 550 303 q 458 392 506 365 q 329 450 410 419 q 228 497 274 471 q 149 557 182 522 q 97 638 115 592 q 79 744 79 683 q 119 885 79 826 q 233 974 160 943 q 401 1006 306 1006 q 551 990 482 1006 q 682 946 619 974 l 633 822 q 519 861 578 846 q 397 876 461 876 q 304 860 342 876 q 248 814 267 843 q 229 746 229 785 q 250 669 229 700 q 317 613 271 639 q 438 557 363 588 q 579 488 521 525 q 668 398 638 450 q 699 268 699 346 q 656 117 699 179 q 533 20 613 54 q 342 -14 453 -14 z "},"І":{"ha":411,"x_min":129,"x_max":281,"o":"m 129 0 l 129 992 l 281 992 l 281 0 l 129 0 z "},"Ї":{"ha":414,"x_min":36,"x_max":378,"o":"m 132 0 l 132 992 l 282 992 l 282 0 l 132 0 m 110 1096 q 55 1118 74 1096 q 36 1181 36 1140 q 56 1243 36 1221 q 110 1265 75 1265 q 164 1243 144 1265 q 183 1181 183 1221 q 165 1117 183 1139 q 110 1096 146 1096 m 304 1096 q 250 1117 269 1096 q 231 1181 231 1139 q 250 1244 231 1222 q 306 1265 269 1265 q 359 1243 340 1265 q 378 1181 378 1221 q 359 1117 378 1139 q 304 1096 340 1096 z "},"Ј":{"ha":403,"x_min":-107,"x_max":276,"o":"m 1 -272 q -60 -267 -33 -272 q -107 -254 -86 -262 l -107 -129 q -60 -139 -85 -135 q -7 -143 -35 -143 q 59 -129 28 -143 q 108 -79 90 -115 q 126 22 126 -43 l 126 992 l 276 992 l 276 29 q 242 -142 276 -75 q 147 -241 208 -210 q 1 -272 85 -272 z "},"Љ":{"ha":1413,"x_min":6,"x_max":1344,"o":"m 104 -15 q 54 -11 81 -15 q 6 0 28 -7 l 6 133 q 40 125 25 128 q 74 122 56 122 q 140 140 115 122 q 180 201 165 158 q 200 315 194 243 q 210 440 206 376 q 218 578 214 503 q 228 754 222 654 q 239 992 233 854 l 839 992 l 839 618 l 967 618 q 1249 541 1154 618 q 1344 311 1344 464 q 1249 80 1344 160 q 968 0 1153 0 l 689 0 l 689 863 l 372 863 q 363 690 367 769 q 356 542 360 611 q 348 413 353 474 q 338 294 343 351 q 299 115 326 183 q 225 16 272 47 q 104 -15 178 -15 m 839 126 l 964 126 q 1135 172 1079 126 q 1190 311 1190 218 q 1135 449 1190 406 q 963 492 1079 492 l 839 492 l 839 126 z "},"Њ":{"ha":1442,"x_min":132,"x_max":1372,"o":"m 132 0 l 132 992 l 282 992 l 282 600 l 715 600 l 715 992 l 865 992 l 865 600 l 994 600 q 1277 524 1182 600 q 1372 301 1372 449 q 1276 78 1372 156 q 996 0 1181 0 l 715 0 l 715 472 l 282 472 l 282 0 l 132 0 m 865 126 l 990 126 q 1163 171 1107 126 q 1218 301 1218 215 q 1163 431 1218 389 q 990 472 1107 472 l 865 472 l 865 126 z "},"Ћ":{"ha":1019,"x_min":18,"x_max":939,"o":"m 256 0 l 256 863 l 18 863 l 18 992 l 732 992 l 732 863 l 404 863 l 404 503 l 361 557 q 491 594 425 582 q 624 606 557 606 q 860 530 782 606 q 939 293 939 454 l 938 0 l 789 0 l 789 293 q 742 434 789 389 q 590 479 694 479 q 478 467 535 479 q 357 429 421 454 l 404 513 l 404 0 l 256 0 z "},"Ќ":{"ha":892,"x_min":132,"x_max":885,"o":"m 711 0 l 381 501 l 381 532 l 693 992 l 854 992 l 524 510 l 525 543 l 885 0 l 711 0 m 132 0 l 132 992 l 282 992 l 282 0 l 132 0 m 229 453 l 229 582 l 461 582 l 461 453 l 229 453 m 382 1085 l 382 1101 l 517 1307 l 689 1307 l 689 1293 l 479 1085 l 382 1085 z "},"Ў":{"ha":868,"x_min":8,"x_max":868,"o":"m 215 -15 q 159 -11 188 -15 q 106 1 131 -7 l 106 133 q 151 126 129 129 q 200 122 172 122 q 286 141 251 122 q 347 201 321 160 q 399 308 372 242 l 404 193 l 8 992 l 174 992 l 417 481 q 429 453 422 469 q 443 421 436 438 q 456 390 450 404 l 461 390 q 472 418 465 401 q 484 451 478 435 q 496 481 490 468 l 711 992 l 868 992 l 558 288 q 464 115 511 182 q 358 17 417 49 q 215 -15 300 -15 m 457 1072 q 293 1122 353 1072 q 221 1265 233 1171 l 354 1265 q 386 1192 361 1215 q 457 1168 411 1168 q 526 1192 500 1168 q 558 1265 551 1215 l 692 1265 q 620 1122 681 1171 q 457 1072 560 1072 z "},"Џ":{"ha":1029,"x_min":132,"x_max":897,"o":"m 442 -215 l 442 0 l 132 0 l 132 992 l 282 992 l 282 128 l 747 128 l 747 992 l 897 992 l 897 0 l 586 0 l 586 -215 l 442 -215 z "}}}
